<svg width="104" height="102" viewBox="0 0 104 102" fill="none" xmlns="http://www.w3.org/2000/svg">
<path d="M101.912 44.4335C100.988 43.3583 99.6063 42.8367 98.0265 42.8367C97.3908 42.8406 96.7575 42.9169 96.1389 43.064C91.7953 30.9867 79.8913 22.1268 60.8422 20.0112C60.4197 19.9638 59.9943 19.9201 59.5662 19.8801C55.5429 19.1005 53.5021 17.3043 53.3279 8.42482C54.1139 8.08448 54.7832 7.52145 55.2535 6.80507C55.7238 6.08869 55.9745 5.25025 55.9748 4.39301C55.9748 3.22791 55.5125 2.11054 54.6895 1.28669C53.8666 0.462842 52.7504 0 51.5866 0C50.4227 0 49.3066 0.462842 48.4836 1.28669C47.6607 2.11054 47.1983 3.22791 47.1983 4.39301C47.1986 5.25025 47.4493 6.08869 47.9196 6.80507C48.3899 7.52145 49.0593 8.08448 49.8452 8.42482C49.6669 17.5232 47.5285 19.1842 43.3061 19.9373C23.8126 21.9134 11.52 30.8431 7.06208 43.0696C4.70776 42.5118 2.54427 42.9413 1.26124 44.4335C-1.09865 47.1809 -0.349198 54.55 5.23848 56.8846C6.35295 78.9472 21.0194 89.5337 51.5448 89.5337C54.8297 89.5337 57.9325 89.4105 60.8534 89.1641C80.2243 87.5324 91.688 80.4646 96.0191 67.6384C97.1067 64.4187 97.7489 60.8341 97.9458 56.8846C103.522 54.55 104.272 47.1809 101.912 44.4335ZM24.3433 43.2328C26.2672 43.2328 27.826 45.4181 27.826 48.1139C27.826 50.8097 26.2672 52.995 24.3433 52.995C22.4195 52.995 20.8606 50.8097 20.8606 48.1139C20.8606 45.4181 22.4222 43.2328 24.3433 43.2328ZM53.5271 64.3778C57.8805 64.1295 60.6054 62.9999 60.6054 60.9233C60.6054 58.9876 56.5655 57.4173 51.5782 57.4173C46.5909 57.4173 42.551 58.9876 42.551 60.9233C42.551 62.9999 45.2759 64.1309 49.6293 64.3778C49.5791 78.579 38.8203 79.9095 33.1434 78.8147C31.6466 78.5351 30.2277 77.9353 28.9837 77.0561C28.485 77.2305 25.4773 78.3475 23.1731 80.6821C23.0877 80.7676 22.9769 80.823 22.8573 80.84C22.7377 80.8569 22.6159 80.8345 22.5101 80.7762C22.4043 80.7178 22.3204 80.6266 22.2709 80.5163C22.2213 80.406 22.209 80.2826 22.2356 80.1647C22.8736 77.1649 25.4536 75.2836 26.5346 74.617C26.1348 74.0623 25.7856 73.4728 25.4912 72.8556C23.878 73.0411 19.8409 73.7105 16.3763 75.9432C16.2762 76.0075 16.1584 76.038 16.0398 76.0304C15.9212 76.0228 15.8082 75.9774 15.7172 75.901C15.6261 75.8245 15.5619 75.7209 15.5339 75.6053C15.5059 75.4898 15.5154 75.3682 15.5613 75.2585C17.6175 70.1989 23.5019 68.6411 24.3377 68.4445C24.3154 68.1404 24.3043 67.8336 24.3043 67.5282C24.3042 67.1826 24.3265 66.8374 24.3712 66.4948C22.7817 66.3735 20.4259 66.3804 18.1023 67.068C17.9882 67.1014 17.8665 67.0975 17.7548 67.0568C17.6432 67.016 17.5474 66.9406 17.4816 66.8416C17.4158 66.7425 17.3833 66.625 17.389 66.5061C17.3946 66.3873 17.4381 66.2734 17.513 66.181C20.2072 62.9218 24.8504 62.8646 25.6974 62.8828C29.3055 57.0436 39.5322 52.8332 51.5838 52.8332C54.6915 52.8267 57.7927 53.1177 60.845 53.7021C71.3517 55.7452 78.8618 61.1646 78.8618 67.5282C78.8618 67.5658 78.8618 67.6021 78.8618 67.6398C78.8173 72.7454 75.6689 77.7283 70.0199 78.8161C68.9723 79.0147 67.9085 79.1142 66.8423 79.1132C64.9212 79.1132 62.8093 78.7924 60.852 77.9292C56.9026 76.1984 53.5578 72.281 53.5299 64.3778H53.5271ZM89.9912 75.0521C88.0657 77.4363 85.7391 79.4657 83.1163 81.0489C80.358 82.7405 77.0912 84.1254 73.4051 85.1672C70.201 86.0723 66.5901 86.7431 62.6505 87.1656V80.4339C64.0196 80.7599 65.4224 80.9233 66.8297 80.9206C68.0109 80.9221 69.1896 80.8119 70.3501 80.5915C76.0854 79.4869 80.2062 74.5947 80.6255 68.5407H93.7345C92.8142 70.8834 91.5538 73.0775 89.994 75.0521H89.9912ZM101.136 50.3787C100.822 51.705 99.8975 54.0967 97.2269 55.211C96.9109 55.3423 96.6385 55.5606 96.4413 55.8405C96.244 56.1203 96.13 56.4504 96.1124 56.7925C95.9272 60.4352 95.3463 63.7781 94.385 66.7319H80.6241C80.3566 63.3555 78.3798 60.194 74.8664 57.5456C71.7153 55.1748 67.5109 53.3451 62.6393 52.2308V22.0654C70.7067 23.1979 77.5453 25.6287 82.9784 29.3048C85.6502 31.0905 88.0312 33.2778 90.0372 35.7898C91.9158 38.1642 93.3969 40.8281 94.4226 43.6777C94.5487 44.0286 94.7798 44.332 95.0845 44.5467C95.3891 44.7613 95.7525 44.8766 96.125 44.877C96.2657 44.8774 96.4059 44.8615 96.5429 44.8296C97.0267 44.7135 97.5221 44.6532 98.0196 44.6497C98.7872 44.6497 99.8459 44.817 100.527 45.6162C101.193 46.3776 101.66 48.1934 101.146 50.3787H101.136Z" fill="#FFFF00"/>
<path d="M78.8131 44.9063C77.9633 44.9063 77.1483 45.2442 76.5475 45.8458C75.9466 46.4473 75.609 47.2632 75.609 48.1139C75.609 48.9646 75.9466 49.7805 76.5475 50.382C77.1483 50.9835 77.9633 51.3215 78.8131 51.3215C79.6629 51.3215 80.4779 50.9835 81.0787 50.382C81.6796 49.7805 82.0172 48.9646 82.0172 48.1139C82.0172 47.2632 81.6796 46.4473 81.0787 45.8458C80.4779 45.2442 79.6629 44.9063 78.8131 44.9063ZM78.8131 49.5085C78.4436 49.5085 78.0893 49.3616 77.828 49.1C77.5668 48.8385 77.42 48.4838 77.42 48.1139C77.42 47.744 77.5668 47.3893 77.828 47.1278C78.0893 46.8662 78.4436 46.7193 78.8131 46.7193C79.1826 46.7193 79.5369 46.8662 79.7982 47.1278C80.0594 47.3893 80.2062 47.744 80.2062 48.1139C80.2062 48.4838 80.0594 48.8385 79.7982 49.1C79.5369 49.3616 79.1826 49.5085 78.8131 49.5085Z" fill="#FFFF00"/>
<path d="M78.8131 41.1409C76.9658 41.1409 75.1941 41.8755 73.8878 43.1832C72.5815 44.4909 71.8477 46.2645 71.8477 48.1139C71.8477 49.9633 72.5815 51.7369 73.8878 53.0446C75.1941 54.3523 76.9658 55.0869 78.8131 55.0869C80.6605 55.0869 82.4321 54.3523 83.7384 53.0446C85.0447 51.7369 85.7785 49.9633 85.7785 48.1139C85.7785 46.2645 85.0447 44.4909 83.7384 43.1832C82.4321 41.8755 80.6605 41.1409 78.8131 41.1409ZM78.8131 53.2739C77.4461 53.2739 76.135 52.7303 75.1684 51.7626C74.2017 50.7949 73.6587 49.4824 73.6587 48.1139C73.6587 46.7454 74.2017 45.4329 75.1684 44.4652C76.135 43.4975 77.4461 42.9538 78.8131 42.9538C80.1801 42.9538 81.4912 43.4975 82.4578 44.4652C83.4245 45.4329 83.9675 46.7454 83.9675 48.1139C83.9675 49.4824 83.4245 50.7949 82.4578 51.7626C81.4912 52.7303 80.1801 53.2739 78.8131 53.2739Z" fill="#FFFF00"/>
<path d="M78.8131 41.1409C76.9658 41.1409 75.1941 41.8755 73.8878 43.1832C72.5815 44.4909 71.8477 46.2645 71.8477 48.1139C71.8477 49.9633 72.5815 51.7369 73.8878 53.0446C75.1941 54.3523 76.9658 55.0869 78.8131 55.0869C80.6605 55.0869 82.4321 54.3523 83.7384 53.0446C85.0447 51.7369 85.7785 49.9633 85.7785 48.1139C85.7785 46.2645 85.0447 44.4909 83.7384 43.1832C82.4321 41.8755 80.6605 41.1409 78.8131 41.1409ZM78.8131 53.2739C77.4461 53.2739 76.135 52.7303 75.1684 51.7626C74.2017 50.7949 73.6587 49.4824 73.6587 48.1139C73.6587 46.7454 74.2017 45.4329 75.1684 44.4652C76.135 43.4975 77.4461 42.9538 78.8131 42.9538C80.1801 42.9538 81.4912 43.4975 82.4578 44.4652C83.4245 45.4329 83.9675 46.7454 83.9675 48.1139C83.9675 49.4824 83.4245 50.7949 82.4578 51.7626C81.4912 52.7303 80.1801 53.2739 78.8131 53.2739Z" fill="#FFFF00"/>
<path d="M78.8131 44.9063C77.9633 44.9063 77.1483 45.2442 76.5475 45.8458C75.9466 46.4473 75.609 47.2632 75.609 48.1139C75.609 48.9646 75.9466 49.7805 76.5475 50.382C77.1483 50.9835 77.9633 51.3215 78.8131 51.3215C79.6629 51.3215 80.4779 50.9835 81.0787 50.382C81.6796 49.7805 82.0172 48.9646 82.0172 48.1139C82.0172 47.2632 81.6796 46.4473 81.0787 45.8458C80.4779 45.2442 79.6629 44.9063 78.8131 44.9063ZM78.8131 49.5085C78.4436 49.5085 78.0893 49.3616 77.828 49.1C77.5668 48.8385 77.42 48.4838 77.42 48.1139C77.42 47.744 77.5668 47.3893 77.828 47.1278C78.0893 46.8662 78.4436 46.7193 78.8131 46.7193C79.1826 46.7193 79.5369 46.8662 79.7982 47.1278C80.0594 47.3893 80.2062 47.744 80.2062 48.1139C80.2062 48.4838 80.0594 48.8385 79.7982 49.1C79.5369 49.3616 79.1826 49.5085 78.8131 49.5085Z" fill="#FFFF00"/>
<path d="M78.8131 44.9063C77.9633 44.9063 77.1483 45.2442 76.5475 45.8458C75.9466 46.4473 75.609 47.2632 75.609 48.1139C75.609 48.9646 75.9466 49.7805 76.5475 50.382C77.1483 50.9835 77.9633 51.3215 78.8131 51.3215C79.6629 51.3215 80.4779 50.9835 81.0787 50.382C81.6796 49.7805 82.0172 48.9646 82.0172 48.1139C82.0172 47.2632 81.6796 46.4473 81.0787 45.8458C80.4779 45.2442 79.6629 44.9063 78.8131 44.9063ZM78.8131 49.5085C78.4436 49.5085 78.0893 49.3616 77.828 49.1C77.5668 48.8385 77.42 48.4838 77.42 48.1139C77.42 47.744 77.5668 47.3893 77.828 47.1278C78.0893 46.8662 78.4436 46.7193 78.8131 46.7193C79.1826 46.7193 79.5369 46.8662 79.7982 47.1278C80.0594 47.3893 80.2062 47.744 80.2062 48.1139C80.2062 48.4838 80.0594 48.8385 79.7982 49.1C79.5369 49.3616 79.1826 49.5085 78.8131 49.5085Z" fill="#FFFF00"/>
</svg>
