<?xml version="1.0" standalone="no"?>
<!DOCTYPE svg PUBLIC "-//W3C//DTD SVG 20010904//EN"
 "http://www.w3.org/TR/2001/REC-SVG-20010904/DTD/svg10.dtd">
<svg version="1.0" xmlns="http://www.w3.org/2000/svg"
 width="832.000000pt" height="832.000000pt" viewBox="0 0 832.000000 832.000000"
 preserveAspectRatio="xMidYMid meet">
<metadata>
Created by potrace 1.14, written by Peter Selinger 2001-2017
</metadata>
<g transform="translate(0.000000,832.000000) scale(0.100000,-0.100000)"
fill="#000000" stroke="none">
<path d="M4020 8221 c-88 -31 -159 -86 -191 -148 -8 -16 -17 -30 -20 -33 -10
-9 -29 -93 -31 -135 -2 -33 3 -68 17 -135 10 -50 113 -168 164 -190 29 -11 29
-12 26 -93 -4 -91 -14 -228 -21 -260 -2 -12 -6 -37 -9 -57 -9 -59 -14 -80 -31
-139 -10 -31 -18 -58 -18 -61 -5 -30 -72 -136 -112 -176 -65 -67 -180 -123
-279 -139 -11 -2 -33 -6 -50 -9 -16 -3 -55 -8 -85 -11 -30 -3 -71 -8 -90 -11
-19 -3 -57 -7 -84 -10 -28 -3 -53 -7 -57 -10 -5 -2 -32 -7 -61 -10 -29 -3 -56
-8 -59 -10 -4 -2 -24 -6 -45 -9 -22 -3 -46 -8 -54 -11 -8 -3 -30 -8 -48 -10
-103 -13 -479 -123 -657 -191 -95 -36 -122 -48 -248 -107 -42 -20 -82 -36 -87
-36 -6 0 -10 -4 -10 -10 0 -5 -8 -10 -19 -10 -10 0 -24 -7 -31 -15 -7 -8 -18
-15 -25 -15 -7 0 -24 -9 -39 -21 -14 -11 -26 -17 -26 -14 0 4 -15 -4 -34 -19
-19 -14 -39 -26 -44 -26 -5 0 -22 -11 -38 -25 -16 -14 -32 -25 -36 -25 -11 0
-197 -133 -237 -169 -19 -17 -38 -31 -41 -31 -11 0 -281 -269 -331 -330 -67
-81 -159 -208 -159 -219 0 -5 -4 -11 -8 -13 -24 -9 -155 -256 -221 -415 -18
-44 -33 -67 -42 -65 -42 11 -61 13 -139 13 -216 0 -343 -103 -397 -321 -12
-47 -7 -300 6 -300 3 0 7 -12 8 -28 3 -39 54 -157 96 -222 61 -94 146 -173
245 -226 45 -24 52 -32 53 -58 2 -70 15 -199 34 -333 19 -129 52 -280 91 -408
10 -33 19 -63 20 -67 1 -5 3 -10 4 -13 1 -3 3 -8 5 -12 1 -5 5 -17 9 -28 5
-11 20 -51 34 -90 54 -146 218 -437 298 -532 11 -12 37 -44 58 -71 61 -78 240
-249 331 -317 22 -17 42 -33 45 -36 7 -9 196 -132 250 -162 206 -116 472 -225
725 -297 82 -23 144 -39 167 -44 41 -9 62 -14 103 -24 22 -6 60 -14 85 -17 24
-4 48 -8 51 -11 4 -2 22 -6 41 -8 18 -3 45 -7 58 -11 14 -3 41 -8 60 -10 19
-2 49 -6 65 -9 39 -6 187 -25 245 -31 110 -12 129 -14 205 -20 123 -9 210 -14
327 -19 59 -3 112 -7 117 -10 5 -4 12 -2 15 2 5 8 93 0 99 -8 1 -2 12 2 25 9
12 6 22 8 22 4 0 -10 212 -9 228 0 6 4 13 4 16 -1 5 -8 91 -6 113 2 7 3 15 1
18 -5 4 -5 11 -7 17 -3 5 3 47 8 93 9 108 4 286 15 353 21 30 3 77 7 105 9 86
7 271 29 323 39 22 4 172 28 194 31 8 1 29 5 45 8 17 4 41 8 55 11 14 2 75 16
135 31 61 14 118 28 129 30 10 3 44 12 75 21 31 9 70 20 86 24 17 5 82 27 145
50 63 23 121 42 128 42 6 1 12 5 12 10 0 4 6 8 14 8 17 0 136 53 251 112 69
35 110 59 230 131 73 45 251 183 335 261 100 93 290 319 290 344 0 6 4 12 9
14 11 4 76 112 129 213 57 109 93 193 132 305 18 52 35 102 38 110 8 23 10 32
17 64 3 16 8 33 11 37 6 10 45 197 49 234 2 17 4 30 5 30 2 0 6 26 25 165 3
19 8 76 11 125 4 50 8 97 10 105 1 8 3 18 3 23 1 4 10 7 21 7 11 0 20 3 20 8
0 4 18 15 39 26 53 25 170 138 214 207 46 71 88 174 102 249 3 14 7 36 10 50
10 46 7 206 -5 251 -7 24 -14 51 -15 60 -7 35 -54 116 -89 151 -19 20 -66 51
-103 70 -64 31 -73 33 -188 35 -66 0 -127 -3 -136 -8 -15 -7 -23 6 -54 87 -54
138 -200 411 -227 422 -4 2 -8 8 -8 14 0 11 -29 51 -114 158 -88 110 -181 207
-313 327 -102 93 -432 323 -462 323 -6 0 -11 4 -11 9 0 5 -11 12 -25 15 -14 4
-25 11 -25 16 0 6 -6 10 -14 10 -7 0 -46 18 -87 41 -41 22 -76 40 -79 41 -3 0
-23 8 -45 18 -22 10 -69 30 -105 44 -36 15 -74 31 -85 36 -39 17 -230 83 -242
83 -7 0 -13 3 -13 7 0 3 -8 6 -17 7 -10 0 -66 15 -124 32 -94 27 -249 65 -319
77 -223 41 -243 44 -365 59 -16 2 -52 7 -80 11 -27 4 -68 8 -90 9 -22 1 -47 5
-55 7 -8 3 -37 11 -65 17 -139 33 -251 122 -310 246 -35 72 -71 196 -80 275
-3 25 -7 63 -11 85 -7 57 -12 118 -15 210 l-2 79 32 18 c135 76 204 242 165
396 -49 191 -262 307 -444 243z m1110 -1765 c8 -2 33 -7 55 -10 22 -3 72 -12
110 -20 39 -8 82 -17 95 -19 161 -30 536 -145 675 -206 11 -5 54 -24 95 -42
136 -60 447 -230 470 -258 3 -3 34 -26 70 -50 36 -25 67 -48 68 -53 2 -4 8 -8
14 -8 6 0 18 -8 27 -18 9 -9 32 -29 51 -43 19 -15 76 -66 125 -116 80 -78 115
-116 199 -213 12 -14 38 -47 56 -75 19 -27 40 -55 45 -61 66 -75 265 -461 247
-478 -3 -3 0 -6 6 -6 7 0 12 -7 12 -16 0 -29 33 -72 72 -94 33 -19 48 -21 96
-15 128 15 148 16 197 4 95 -22 148 -72 176 -170 16 -53 20 -219 6 -237 -5 -7
-7 -15 -5 -18 8 -8 -27 -113 -56 -168 -57 -108 -128 -177 -239 -234 -86 -44
-107 -81 -112 -199 -2 -49 -5 -88 -6 -88 0 0 -2 -11 -4 -25 -8 -76 -18 -157
-21 -175 -2 -11 -9 -49 -15 -85 -6 -36 -17 -90 -24 -120 -8 -30 -16 -66 -18
-80 -3 -14 -15 -55 -27 -92 l-22 -68 -548 1 -549 0 -6 47 c-9 67 -51 197 -87
267 -69 137 -199 289 -348 405 -25 20 -65 49 -90 65 -25 17 -47 33 -50 36 -3
3 -12 8 -20 12 -8 4 -37 20 -65 36 -135 79 -397 192 -525 226 -8 3 -49 14 -90
25 -71 20 -102 28 -125 33 -36 8 -35 -10 -35 1218 l0 1200 53 -4 c28 -3 59 -8
67 -11z m-3115 -1687 c58 -16 143 -108 174 -188 50 -129 47 -277 -8 -397 -57
-121 -146 -187 -248 -180 -61 4 -97 22 -149 74 -178 178 -138 573 68 676 56
28 101 32 163 15z m2352 -764 c130 -8 177 -12 223 -18 19 -3 58 -8 85 -12 28
-3 71 -11 97 -16 26 -6 51 -8 57 -5 5 4 12 2 16 -3 3 -5 13 -10 23 -9 20 0
156 -31 262 -61 41 -12 84 -24 94 -26 38 -9 242 -88 326 -127 103 -48 280
-149 280 -160 0 -4 5 -8 11 -8 19 0 132 -92 211 -172 132 -134 209 -266 244
-423 14 -61 5 -318 -11 -345 -2 -4 -7 -21 -10 -39 -7 -41 -57 -167 -84 -212
-11 -19 -24 -41 -28 -49 -4 -8 -11 -19 -15 -25 -106 -133 -129 -157 -216 -219
-27 -20 -54 -36 -60 -36 -6 0 -12 -4 -14 -8 -8 -19 -189 -89 -253 -97 -16 -3
-50 -8 -75 -12 -56 -8 -299 -9 -360 0 -174 24 -370 100 -483 187 -253 195
-381 480 -402 897 -4 80 -3 83 18 84 12 0 36 2 52 4 17 3 50 7 75 9 25 3 56 8
70 11 14 3 34 8 45 9 118 19 285 118 285 169 0 9 4 18 9 21 12 8 7 87 -7 113
-42 78 -243 173 -420 197 -20 3 -59 8 -87 12 -61 8 -356 12 -370 5 -5 -3 -28
-7 -49 -8 -33 -3 -86 -13 -199 -38 -40 -9 -135 -48 -182 -75 -209 -120 -138
-310 144 -386 75 -20 79 -21 141 -29 30 -3 69 -8 85 -10 17 -2 41 -4 54 -4
l23 -1 -6 -107 c-3 -60 -9 -121 -12 -138 -3 -16 -7 -43 -9 -60 -13 -127 -115
-394 -172 -453 -7 -7 -13 -16 -13 -20 0 -4 -12 -20 -26 -37 -14 -16 -36 -41
-48 -55 -34 -41 -137 -124 -193 -158 -94 -57 -190 -93 -338 -127 -112 -27
-366 -26 -507 0 -91 18 -296 102 -306 127 -7 17 -46 7 -135 -34 -51 -24 -96
-46 -102 -51 -5 -4 -32 -22 -60 -39 -49 -31 -138 -101 -183 -144 -22 -21 -48
-24 -73 -8 -27 16 13 141 76 239 52 80 198 221 245 237 9 3 -1 28 -31 77 l-43
73 -41 -6 c-22 -3 -51 -8 -65 -11 -14 -3 -41 -8 -60 -11 -19 -3 -60 -13 -90
-21 -30 -9 -62 -17 -70 -18 -8 -1 -31 -9 -51 -17 -20 -9 -47 -19 -60 -23 -23
-6 -44 -15 -126 -52 -21 -9 -68 -34 -105 -55 -74 -42 -102 -47 -117 -20 -29
54 84 229 229 356 79 69 258 165 385 206 39 13 72 25 75 27 10 9 6 152 -4 156
-43 15 -328 -7 -426 -33 -71 -18 -88 -19 -104 -2 -20 24 -15 46 20 84 58 63
132 115 224 156 36 16 68 29 73 30 4 1 31 8 60 16 68 20 107 26 196 32 66 5
101 18 101 39 0 4 6 12 13 20 6 7 23 28 37 46 43 57 142 149 225 210 44 33 85
64 92 69 7 6 15 10 19 10 3 0 18 8 32 19 41 28 210 114 277 141 33 13 66 28
73 33 6 5 12 6 12 2 0 -4 6 -3 13 2 6 6 44 20 82 32 39 13 77 25 85 28 8 3 20
7 25 8 6 2 30 9 55 16 25 7 50 14 55 14 6 1 19 4 30 8 11 3 35 9 54 12 19 3
37 8 41 10 8 5 52 14 105 21 22 3 47 8 55 10 8 3 31 8 50 10 19 2 51 7 70 10
19 3 58 8 85 10 28 3 66 7 85 9 19 3 98 8 175 11 77 3 141 7 142 8 4 3 201 -3
300 -9z m3123 -1262 c0 -7 -17 -48 -37 -91 -20 -42 -36 -80 -35 -84 1 -5 -3
-8 -8 -8 -6 0 -10 -6 -10 -12 0 -14 -119 -206 -160 -259 -124 -159 -258 -296
-385 -389 -33 -25 -62 -47 -65 -50 -15 -16 -147 -99 -200 -126 -19 -10 -37
-21 -40 -24 -12 -14 -284 -144 -325 -154 -5 -2 -23 -9 -40 -15 -78 -33 -336
-115 -395 -126 -8 -2 -35 -8 -60 -15 -25 -7 -53 -14 -63 -16 -10 -2 -27 -6
-37 -9 -10 -3 -31 -8 -46 -10 -16 -2 -40 -6 -54 -9 -53 -12 -164 -32 -225 -40
-22 -4 -51 -8 -65 -11 -14 -3 -45 -7 -70 -10 -25 -2 -70 -7 -101 -10 l-56 -7
-1 270 0 270 26 -8 c27 -9 63 -15 157 -26 91 -12 289 -6 390 11 47 8 153 33
175 42 8 3 20 7 27 9 7 1 43 18 82 37 247 123 422 320 515 577 14 41 29 86 32
100 24 107 31 144 33 186 1 20 4 20 521 20 432 1 520 -2 520 -13z"/>
<path d="M6178 4935 c-182 -45 -334 -181 -399 -357 -11 -29 -22 -71 -25 -93
-6 -42 -7 -159 -1 -185 15 -67 23 -93 50 -150 17 -36 36 -71 41 -78 35 -45
117 -123 156 -149 56 -37 152 -76 191 -77 16 -1 29 -4 29 -7 0 -14 187 -1 244
16 111 33 235 123 302 220 30 44 69 134 83 190 12 55 20 205 10 205 -4 0 -7
10 -7 23 0 12 -9 48 -20 80 -63 177 -212 313 -392 360 -73 18 -191 19 -262 2z
m186 -139 c96 -13 158 -46 233 -122 85 -86 121 -180 117 -300 -5 -153 -98
-290 -241 -356 -62 -29 -77 -32 -168 -32 -88 0 -107 3 -159 27 -109 50 -196
143 -226 242 -7 22 -15 47 -18 55 -8 25 -8 152 1 157 4 2 7 14 7 26 0 65 101
202 183 250 49 29 152 61 167 52 5 -3 10 -2 10 2 0 9 23 9 94 -1z"/>
<path d="M6225 4637 c-75 -26 -147 -100 -166 -171 -45 -166 72 -327 241 -331
272 -7 361 361 118 486 -48 25 -145 33 -193 16z m130 -152 c17 -9 38 -27 45
-40 29 -55 0 -137 -55 -154 -34 -11 -85 -10 -85 2 0 4 -6 7 -13 7 -18 0 -48
55 -49 90 -1 42 19 76 56 94 39 20 60 20 101 1z"/>
</g>
</svg>
