<svg width="1006" height="94" viewBox="0 0 1006 94" fill="none" xmlns="http://www.w3.org/2000/svg">
<g clip-path="url(#clip0)">
<path d="M87.2552 77.127C85.7916 84.8004 84.5512 91.3166 84.07 93.8477H141.001V77.127H87.2552ZM0.00390625 77.2792V93.9999H56.5306L52.7586 77.2792H0.00390625Z" fill="#E05F0C"/>
<path d="M27.7767 38.94L23.6626 21.6427H58.7654L70.1336 71.296H70.6188L77.7805 39.4887C81.3894 25.0469 82.7528 21.6427 103.091 21.6427H117.719C117.719 21.6427 114.764 34.9551 111.087 49.4009C109.687 54.9117 97.4732 54.2589 98.0827 49.1126C98.1469 48.5759 98.7243 44.7032 99.1814 41.9478C99.8471 37.9829 95.2156 37.4862 94.3816 41.4111C93.7881 44.2226 91.1055 58.1758 88.5993 71.296H141.001V0H0V71.296H51.1706L43.8806 38.9641L27.7767 38.94V38.94Z" fill="#0066B3"/>
<path d="M213.5 71H229.668L251.758 5.388H238.692L222.054 56.9H221.866L205.04 5.388H190.94L213.5 71Z" fill="#0066B3"/>
<path d="M250.001 47.124C250.001 61.036 259.307 72.128 275.287 72.128C291.361 72.128 300.667 61.036 300.667 47.124C300.667 31.144 289.669 21.462 275.287 21.462C260.999 21.462 250.001 31.144 250.001 47.124ZM263.161 45.62C263.161 38.382 267.109 31.238 275.287 31.238C283.559 31.238 287.507 38.194 287.507 45.62C287.507 53.704 284.969 62.352 275.287 62.352C265.699 62.352 263.161 53.61 263.161 45.62Z" fill="#0066B3"/>
<path d="M309.909 71H322.505V0.5H309.909V71Z" fill="#0066B3"/>
<path d="M335.132 71H347.728V47.5H347.916L364.084 71H380.064L359.76 44.21L377.808 22.59H362.956L347.916 41.954H347.728V0.5H335.132V71Z" fill="#0066B3"/>
<path d="M415.752 23.248C411.804 22.402 407.95 21.462 402.028 21.462C392.158 21.462 383.04 26.068 383.04 36.502C383.04 53.986 404.942 47.5 404.942 56.994C404.942 61.694 399.866 62.916 396.67 62.916C392.346 62.916 388.21 61.694 384.262 59.72L383.51 70.06C388.116 71.282 393.004 72.128 397.798 72.128C408.044 72.128 418.102 67.616 418.102 56.336C418.102 38.852 396.2 43.74 396.2 36.032C396.2 31.896 400.242 30.674 403.626 30.674C408.232 30.674 411.052 31.426 414.906 32.742L415.752 23.248Z" fill="#0066B3"/>
<path d="M439.66 46.654C439.66 39.886 442.856 31.238 450.94 31.238C459.118 31.238 461.374 40.168 461.374 46.654C461.374 53.328 459.024 62.352 450.752 62.352C442.386 62.352 439.66 53.516 439.66 46.654ZM426.97 71H439.19V65.078H439.378C443.044 70.248 448.872 72.128 454.23 72.128C469.082 72.128 474.534 59.908 474.534 46.654C474.534 33.306 469.082 21.462 454.23 21.462C447.65 21.462 443.232 24.188 439.754 28.794H439.566V0.5H426.97V71Z" fill="#0066B3"/>
<path d="M486.032 35.938C490.262 32.742 495.62 30.674 500.978 30.674C508.404 30.674 511.882 33.306 511.882 41.108H504.926C499.662 41.108 493.458 41.578 488.664 43.928C483.87 46.278 480.392 50.508 480.392 57.746C480.392 66.958 488.758 72.128 497.312 72.128C503.046 72.128 509.344 69.12 512.258 63.762H512.446C512.54 65.266 512.54 68.462 513.01 71H524.102C523.82 67.24 523.632 63.856 523.538 60.19C523.444 56.618 523.35 52.952 523.35 48.064V41.86C523.35 27.572 517.24 21.462 502.482 21.462C497.124 21.462 490.544 22.872 485.656 25.128L486.032 35.938ZM492.424 56.994C492.424 49.568 500.79 48.628 506.43 48.628H511.882C511.882 52.388 511.318 55.866 509.25 58.592C507.276 61.224 504.268 62.916 500.414 62.916C495.902 62.916 492.424 61.13 492.424 56.994Z" fill="#0066B3"/>
<path d="M534.787 71H547.383V47.312C547.383 41.108 549.357 31.238 558.475 31.238C566.559 31.238 566.653 39.228 566.653 45.15V71H579.249V40.45C579.249 29.546 574.267 21.462 562.799 21.462C556.219 21.462 550.861 23.624 546.913 29.17H546.725V22.59H534.787V71Z" fill="#0066B3"/>
<path d="M591.594 71H604.19V47.5H604.378L620.546 71H636.526L616.222 44.21L634.27 22.59H619.418L604.378 41.954H604.19V0.5H591.594V71Z" fill="#0066B3"/>
<path d="M682.114 41.672H688.318C694.898 41.672 701.854 42.988 701.854 51.542C701.854 59.156 694.428 60.66 688.318 60.66H682.114V41.672ZM682.114 15.728H687.19C693.206 15.728 699.88 16.292 699.88 23.906C699.88 30.674 693.018 31.896 687.472 31.896H682.114V15.728ZM668.954 71H691.89C700.162 71 715.014 68.556 715.014 52.012C715.014 43.928 708.904 37.912 699.974 37.066V36.878C707.776 35.468 713.04 30.016 713.04 22.214C713.04 7.832 700.35 5.388 691.89 5.388H668.954V71Z" fill="#0066B3"/>
<path d="M733.281 42.048C733.845 35.562 737.417 30.674 744.467 30.674C751.517 30.674 754.337 35.938 754.713 42.048H733.281ZM763.173 58.028C758.473 60.66 753.209 62.916 747.099 62.916C739.297 62.916 733.845 58.498 733.281 50.696H766.745C766.745 33.776 761.669 21.462 743.715 21.462C728.675 21.462 721.249 33.024 721.249 47.03C721.249 62.916 730.555 72.128 746.535 72.128C753.303 72.128 758.567 70.812 763.173 68.274V58.028Z" fill="#0066B3"/>
<path d="M775.925 71H788.521V53.234C788.521 46.278 788.521 33.494 798.767 33.494C801.023 33.494 803.279 33.87 804.407 34.528V21.838C803.091 21.462 801.775 21.462 800.553 21.462C793.033 21.462 787.863 29.076 787.299 33.588H787.111V22.59H775.925V71Z" fill="#0066B3"/>
<path d="M832.013 61.224C824.775 61.224 821.297 53.14 821.297 46.56C821.297 39.134 824.023 31.238 832.577 31.238C839.909 31.238 843.105 38.006 843.105 46.278C843.105 54.362 839.909 61.224 832.013 61.224ZM843.669 22.59V29.17H843.481C840.003 23.624 835.021 21.462 828.629 21.462C814.153 21.462 808.137 34.904 808.137 46.56C808.137 59.532 813.589 71 827.877 71C834.927 71 840.567 67.428 842.917 63.292H843.105C843.105 71.658 842.447 82.092 828.535 82.092C824.587 82.092 818.289 79.93 814.435 77.862L813.401 88.578C819.417 91.116 825.151 91.868 830.133 91.868C850.437 91.868 855.701 79.46 855.701 66.3V22.59H843.669Z" fill="#0066B3"/>
<path d="M901.916 42.048C902.48 35.562 906.052 30.674 913.102 30.674C920.152 30.674 922.972 35.938 923.348 42.048H901.916ZM931.808 58.028C927.108 60.66 921.844 62.916 915.734 62.916C907.932 62.916 902.48 58.498 901.916 50.696H935.38C935.38 33.776 930.304 21.462 912.35 21.462C897.31 21.462 889.884 33.024 889.884 47.03C889.884 62.916 899.19 72.128 915.17 72.128C921.938 72.128 927.202 70.812 931.808 68.274V58.028Z" fill="#0066B3"/>
<path d="M997.482 6.986C991.842 5.294 985.826 4.26 978.212 4.26C955.934 4.26 942.21 16.856 942.21 39.322C942.21 61.506 956.968 72.128 978.212 72.128C985.262 72.128 992.5 70.624 999.456 68.744V33.4H972.948V43.74H986.86V60.848C984.604 61.412 981.784 61.788 978.212 61.788C964.206 61.788 955.934 51.73 955.934 38.382C955.934 24.94 964.394 14.6 979.716 14.6C984.98 14.6 991.56 15.728 996.636 18.078L997.482 6.986Z" fill="#0066B3"/>
</g>
<defs>
<clipPath id="clip0">
<rect width="1006" height="94" fill="white"/>
</clipPath>
</defs>
</svg>
