<svg width="235" height="256" viewBox="0 0 235 256" fill="none" xmlns="http://www.w3.org/2000/svg">
<path d="M113.476 254.611C161.673 259.758 203.093 242.023 205.99 215C208.886 187.978 172.159 161.888 123.962 156.735C75.7642 151.582 34.3371 169.324 31.4263 196.354C28.5154 223.383 65.2709 249.465 113.476 254.611Z" fill="url(#paint0_radial)"/>
<path d="M25.9105 136.989C28.635 137.162 31.236 138.188 33.3456 139.92C33.1111 139.393 32.8864 138.865 32.6714 138.338C31.4055 135.218 30.3224 132.028 29.4278 128.782C19.0324 129.535 13.7956 122.705 11.7732 116.179C18.153 115.202 23.7025 116.873 28.0209 122.832C27.5519 120.488 27.1806 118.133 26.9071 115.798C26.6986 113.994 26.5456 112.189 26.4479 110.385C25.8226 109.652 24.3375 109.662 23.2237 109.408C15.9939 107.396 10.5226 100.517 10.8255 93.6685C13.6606 93.9223 16.4038 94.8034 18.8565 96.2479C22.6375 98.4071 24.7186 101.875 26.1743 106.018L26.3502 103.351C26.4088 100.889 26.5716 98.4461 26.8387 96.0232C26.9266 94.626 27.0243 93.2387 27.1122 91.8513C17.4301 86.6243 12.7306 78.8571 15.437 72.4381C22.6668 75.1346 27.1611 79.9806 27.6691 88.4318L28.5289 85.7938C29.383 82.0572 30.4762 78.3793 31.8019 74.7829C31.6657 74.5928 31.5155 74.4132 31.3525 74.2456C29.6176 72.6801 27.9674 71.0234 26.4088 69.2823C22.9697 64.8858 22.5007 57.226 25.2364 53.8749C28.313 55.8189 30.85 58.507 32.6128 61.691C33.8091 63.9977 34.3306 66.595 34.1174 69.1846C34.4985 68.3346 34.8893 67.4944 35.2996 66.6542C35.2996 64.5243 34.9088 62.2967 35.114 60.2255C35.6513 54.9594 40.8881 50.3674 45.6266 50.6996C47.7174 55.9071 46.203 62.5312 42.0214 65.2082C39.7448 66.5306 37.389 67.7117 34.9674 68.745C34.5961 69.6341 34.2444 70.5232 33.9025 71.422C33.9025 71.549 33.9025 71.6858 33.9025 71.8226L34.3324 71.9398C34.9772 71.2168 34.9772 71.2168 35.4852 70.9628C41.4645 66.8496 47.7467 66.7128 52.3875 70.5818C50.3651 74.8513 46.6134 77.9094 42.1875 77.9387C39.357 77.8521 36.5795 77.1485 34.049 75.8772C33.5568 75.7394 33.0423 75.6996 32.5347 75.7599L32.4663 75.6622C31.3623 79.0793 30.4683 82.5607 29.7893 86.0869C33.1306 80.8209 38.4456 80.2249 44.9134 81.964C44.4372 84.9409 43.0753 87.7054 41.0053 89.8973C37.7617 93.0726 33.4824 93.0433 28.8318 92.2323C28.7634 92.799 28.7048 93.3755 28.6462 93.9519C28.3726 96.5996 28.2163 99.2864 28.187 101.983C30.3852 97.0979 34.8013 95.4956 40.6048 95.603C40.8866 98.6518 40.3291 101.72 38.9927 104.474C36.853 108.558 32.9255 109.604 28.4703 110.024C28.6266 111.978 28.8481 113.912 29.1347 115.827C29.3594 117.342 29.6329 118.856 29.9358 120.37C30.8151 114.508 34.8209 111.45 40.0479 110.6C41.0289 113.608 41.2207 116.818 40.6048 119.921C39.5301 124.581 36.0519 126.682 31.9485 128.255C32.8961 131.4 34.0381 134.484 35.368 137.488C35.6709 138.171 35.9835 138.836 36.345 139.5C36.091 132.085 38.5042 127.151 43.0766 125.754C47.3559 132.163 46.926 139.432 41.9726 143.926C41.334 144.376 40.7238 144.866 40.1456 145.392C39.9628 145.627 39.8449 145.907 39.8036 146.202C41.8941 149.732 44.2558 153.093 46.8674 156.256H46.926C43.7605 149.554 45.4898 144.473 49.4174 139.94C51.6956 142.293 53.3977 145.142 54.3904 148.264C56.0318 153.55 54.0778 157.497 51.3812 161.258C53.9126 163.819 56.6119 166.208 59.4611 168.41C56.5301 162.382 56.3542 156.549 59.1778 152.993C64.5318 156.588 69.9249 163.232 66.349 173.168C68.9439 174.77 71.625 176.228 74.3801 177.535C70.9801 172.513 69.6806 166.993 71.3904 163.29C74.4557 164.537 77.1862 166.484 79.3628 168.977C82.5479 172.728 83.095 176.793 82.8996 181.033C83.4565 181.238 84.0232 181.424 84.5898 181.619C91.4336 183.848 98.4946 185.345 105.654 186.084L108.097 192.161C100.671 191.086 90.9697 189.23 83.6714 186.573L81.6099 185.791C77.4381 193.119 70.7749 195.561 64.6979 191.751C66.222 186.768 68.8209 183.173 73.6668 182.254C70.3552 180.595 67.1479 178.735 64.0628 176.685C62.187 178.874 59.9691 180.652 56.7939 181.072C52.8858 181.59 49.1732 180.154 45.4312 177.867C48.2157 173.52 51.6743 170.843 56.6082 171.106C53.7956 168.761 51.139 166.235 48.6553 163.544C42.0703 167.785 35.1042 165.616 29.7502 159.558C33.5703 156.207 37.8008 154.79 42.8617 156.52C40.6043 153.453 38.5608 150.234 36.7456 146.886C34.6584 147.386 32.5215 147.648 30.3755 147.668C26.0082 147.541 19.9214 142.842 18.2703 138.64C20.6232 137.416 23.2619 136.846 25.9105 136.989Z" fill="url(#paint1_linear)"/>
<path d="M219.047 168.225C216.583 167.503 213.942 167.697 211.611 168.772C211.836 168.313 212.061 167.853 212.276 167.394C213.568 164.641 214.655 161.797 215.529 158.884C225.925 162.939 231.161 157.79 233.194 151.899C226.814 148.909 221.264 148.792 216.946 153.374C217.415 151.179 217.786 148.951 218.06 146.691C218.275 144.952 218.421 143.203 218.529 141.435C219.144 140.898 220.639 141.386 221.743 141.435C228.983 141.738 234.444 136.55 234.161 129.652C231.524 128.995 228.767 128.995 226.13 129.652C222.349 130.629 220.268 133.424 218.812 137.136C218.753 136.218 218.695 135.319 218.636 134.42C218.578 131.925 218.415 129.431 218.148 126.936C218.06 125.51 217.972 124.093 217.874 122.676C227.566 120.527 232.275 114.264 229.598 106.986C222.368 107.367 217.874 110.786 217.356 119.071L216.477 116.209C215.604 112.132 214.505 108.107 213.184 104.152C213.32 104.004 213.471 103.869 213.634 103.752C215.275 102.609 217.151 101.739 218.578 100.371C222.026 97.0689 222.486 89.6241 219.77 85.335C216.753 86.2626 214.145 88.1974 212.383 90.8161C211.157 92.934 210.636 95.3877 210.898 97.8212C210.517 96.8442 210.117 95.8672 209.716 94.8902C209.716 92.7505 210.107 90.65 209.902 88.5201C209.374 83.0879 204.137 76.7959 199.399 75.6431C197.308 80.1959 198.813 87.2988 202.994 91.2753C205.193 93.3856 207.664 95.1833 210.048 97.0592C210.41 98.0362 210.761 99.0132 211.103 100.068C211.103 100.205 211.103 100.352 211.152 100.488H210.722C210.427 99.9698 210.04 99.5095 209.579 99.1304C203.6 93.1218 197.318 90.9821 192.677 93.3661C194.69 98.2511 198.441 102.53 202.867 103.976C205.503 104.777 208.288 104.961 211.006 104.514C211.527 104.542 212.04 104.661 212.52 104.865L212.588 104.797C213.678 108.51 214.575 112.276 215.275 116.082C211.934 109.751 206.619 107.503 200.151 107.142C200.715 110.467 202.054 113.614 204.059 116.326C207.293 120.537 211.572 121.865 216.223 122.53C216.291 123.126 216.36 123.722 216.418 124.308C216.679 127.057 216.825 129.783 216.858 132.486C214.67 126.936 210.253 123.898 204.45 122.159C204.214 125.37 204.767 128.59 206.062 131.538C208.202 136.306 212.119 138.592 216.565 140.438C216.409 142.324 216.194 144.18 215.901 146.027C215.676 147.473 215.402 148.899 215.099 150.306C214.22 144.161 210.214 139.833 204.997 137.341C204.004 140.286 203.808 143.441 204.43 146.486C205.505 151.488 208.974 154.693 213.087 157.585C212.143 160.377 210.99 163.095 209.638 165.714C209.345 166.29 209.032 166.857 208.71 167.424C208.974 160.096 206.57 154.38 201.998 151.528C197.709 156.579 198.138 163.984 203.082 170.091C203.639 170.775 204.323 171.361 204.811 172.045C204.99 172.323 205.107 172.636 205.153 172.963C203.081 175.814 200.71 178.434 198.08 180.779H198.021C201.197 175.083 199.467 169.456 195.549 163.682C193.235 165.359 191.494 167.71 190.567 170.413C188.925 175.181 190.87 179.744 193.566 184.365C191.013 186.133 188.306 187.667 185.476 188.947C188.407 183.837 188.593 178.073 185.77 173.618C180.415 175.503 175.022 180.457 178.588 191.507C175.952 192.291 173.266 192.895 170.548 193.314C173.957 189.406 175.267 184.277 173.557 180.027C170.64 180.237 167.858 181.335 165.584 183.173C162.39 185.909 161.842 189.836 162.038 194.106H160.338C153.256 194.129 146.193 193.379 139.274 191.868L139.068 197.73C146.389 199.082 153.837 199.616 161.276 199.323C161.96 199.323 162.644 199.255 163.337 199.196C167.499 207.862 174.163 212.434 180.24 210.549C178.725 205.087 176.126 200.661 171.28 198.199C174.542 197.614 177.753 196.774 180.884 195.688C182.617 198.572 185.139 200.898 188.153 202.391C192.061 204.159 195.774 203.905 199.516 202.811C196.732 197.574 193.283 193.793 188.349 192.494C191.142 191.053 193.803 189.369 196.302 187.462C202.887 193.803 209.853 193.842 215.217 189.494C211.397 184.932 207.166 182.167 202.105 182.284C204.384 179.919 206.435 177.344 208.231 174.595C210.258 175.731 212.387 176.673 214.591 177.409C218.968 178.679 225.055 175.914 226.706 172.24C224.478 170.356 221.863 168.986 219.047 168.225Z" fill="url(#paint2_linear)"/>
<path d="M57.5758 19.4736L55.2505 20.5483L53.2671 27.6414L43.6631 27.534L41.4746 28.5012L50.6097 35.5357L48.9683 45.0029L57.566 41.7788L63.897 48.784L66.1637 47.7386L64.5223 37.7535L71.4786 31.9598L61.8648 29.0093L57.5758 19.4736Z" fill="#C49033"/>
<path d="M55.3287 20.519L51.0298 28.6869L41.416 28.5794L48.3626 36.5811L46.7212 46.0484L55.3189 42.8242L63.9166 48.7938L62.2752 38.7989L69.2315 33.0053L59.6177 30.0547L55.3287 20.519Z" fill="url(#paint3_linear)"/>
<path d="M89.4644 4.13525L87.1391 5.20997L85.1558 12.3031L75.5518 12.1956L73.3633 13.1628L82.4983 20.1973L80.857 29.6646L89.4547 26.4404L95.7857 33.4456L98.0524 32.4002L96.411 22.4054L103.367 16.6215L93.7535 13.6709L89.4644 4.13525Z" fill="#C49033"/>
<path d="M87.2183 5.1792L82.9097 13.347L73.3057 13.2395L80.2522 21.2413L78.6108 30.7085L87.2085 27.4844L95.8062 33.4539L94.1649 23.4591L101.121 17.6654L91.5172 14.7148L87.2183 5.1792Z" fill="url(#paint4_linear)"/>
<path d="M125.996 0.5L123.67 1.57471L121.687 8.66782L112.083 8.56034L109.895 9.52759L119.03 16.5621L117.388 26.0293L125.986 22.8052L132.327 29.8103L134.584 28.7747L132.942 18.7799L139.899 12.996L130.285 10.0356L125.996 0.5Z" fill="#C49033"/>
<path d="M123.749 1.5459L119.45 9.72348L109.836 9.60624L116.782 17.608L115.141 27.0752L123.739 23.8511L132.337 29.8206L130.695 19.8258L137.651 14.0419L128.047 11.0913L123.749 1.5459Z" fill="url(#paint5_linear)"/>
<path d="M161.715 14.6284L159.4 15.7031L157.417 22.7962L147.803 22.6888L145.624 23.656L154.759 30.6905L153.108 40.1577L161.706 36.9336L168.046 43.9388L170.303 42.9031L168.662 32.9083L175.628 27.1244L166.014 24.1738L161.715 14.6284Z" fill="#C49033"/>
<path d="M159.468 15.6724L155.169 23.8402L145.556 23.7327L152.512 31.7344L150.861 41.2017L159.468 37.9775L168.056 43.9471L166.425 33.9523L173.381 28.1683L163.767 25.2178L159.468 15.6724Z" fill="url(#paint6_linear)"/>
<path d="M191.788 40.0596L189.472 41.1343L187.489 48.2274L177.875 48.1199L175.696 49.0872L184.831 56.1216L183.18 65.5889L191.778 62.3647L198.119 69.3699L200.376 68.3245L198.734 58.3395L205.7 52.5458L196.087 49.5952L191.788 40.0596Z" fill="#C49033"/>
<path d="M189.541 41.105L185.242 49.2728L175.628 49.1653L182.584 57.167L180.933 66.6343L189.541 63.4102L198.129 69.3797L196.497 59.3849L203.453 53.601L193.839 50.6504L189.541 41.105Z" fill="url(#paint7_linear)"/>
<path d="M125.166 206.434L120.281 207.275L61.9141 65.862L64.7669 65.0316C71.606 65.0316 94.0773 61.7977 104.219 46.185L108.977 45.208L125.254 47.7678L141.511 50.3569C150.988 66.3701 164.959 77.5275 183.767 83.5752C184.031 155.522 159.342 188.418 125.146 206.483L125.166 206.434Z" fill="#429B91"/>
<path d="M111.333 140.621L117.836 141.683V98.0015L130.877 104.984V99.0325L112.347 88.9572L111.333 88.7916V140.621Z" fill="#808080"/>
<path d="M67.8933 72.1165C84.7272 72.1165 97.2818 66.0884 105.782 54.4521L120.369 56.7384L134.936 59.0539C143.426 73.4062 155.971 83.401 172.805 88.7941C173.039 153.277 150.92 182.744 120.31 198.933C89.7002 172.993 67.61 136.472 67.8933 72.1165Z" fill="#429B91"/>
<path d="M124.706 198.151L122.234 198.454C92.7865 173.481 69.5727 136.071 69.8561 74.0801C86.0549 74.0801 98.1894 68.2864 106.328 57.0801L120.368 59.3467L134.397 61.5841C142.575 75.399 156.771 84.8467 172.97 90.0347C173.204 152.104 160.005 179.324 130.538 194.907L128.115 196.783L124.706 198.151Z" fill="url(#paint8_linear)"/>
<path d="M120.28 207.306C154.476 189.241 179.116 156.345 178.901 84.3975C160.113 78.3889 146.122 67.2314 136.645 51.228L120.368 48.6682L104.111 46.0791C94.6141 59.0636 80.6624 65.7561 61.8256 65.7854C61.4934 137.576 86.1727 178.357 120.28 207.306ZM120.28 198.933C89.6997 172.993 67.6095 136.472 67.8928 72.1165C84.7267 72.1165 97.2813 66.0883 105.781 54.4521L120.368 56.7383L134.935 59.0538C143.426 73.4061 155.97 83.401 172.804 88.7941C173.039 153.277 150.919 182.743 120.309 198.933H120.28Z" fill="url(#paint9_linear)"/>
<path d="M106.485 138.084L116.06 139.589V106.712C113.03 107.741 109.803 108.055 106.632 107.631L105 99.7559L106.641 98.2513C110.706 98.7496 113.998 98.2025 116.353 96.3853L127.286 98.095V141.347L135.639 142.657V151.616L133.968 153.14L106.495 147.043L104.834 139.598L106.485 138.084Z" fill="#429B91"/>
<path d="M104.824 139.598L114.389 141.102V108.226C111.359 109.254 108.133 109.568 104.961 109.144V99.765C109.035 100.263 112.318 99.7162 114.682 97.8989L125.605 99.6087V142.851L133.968 144.16V153.12L104.814 148.557L104.824 139.598Z" fill="url(#paint10_linear)"/>
<defs>
<radialGradient id="paint0_radial" cx="0" cy="0" r="1" gradientUnits="userSpaceOnUse" gradientTransform="translate(118.638 205.771) rotate(6.09695) scale(85.383 40.6745)">
<stop stop-color="#3CCFC7" stop-opacity="0.42"/>
<stop offset="0.83" stop-color="#4EBDB4" stop-opacity="0.06"/>
<stop offset="0.91" stop-color="#4FBBB2" stop-opacity="0.02"/>
<stop offset="1" stop-color="#50BAB1" stop-opacity="0"/>
</radialGradient>
<linearGradient id="paint1_linear" x1="59.4513" y1="193.5" x2="59.4513" y2="50.6801" gradientUnits="userSpaceOnUse">
<stop stop-color="#1DBAB1"/>
<stop offset="1" stop-color="#8FD3D2"/>
</linearGradient>
<linearGradient id="paint2_linear" x1="22756.5" y1="36095.5" x2="22756.5" y2="17347.3" gradientUnits="userSpaceOnUse">
<stop stop-color="#1DBAB1"/>
<stop offset="1" stop-color="#8FD3D2"/>
</linearGradient>
<linearGradient id="paint3_linear" x1="41.416" y1="34.6564" x2="69.2315" y2="34.6564" gradientUnits="userSpaceOnUse">
<stop stop-color="#FBB449"/>
<stop offset="1" stop-color="#FCE473"/>
</linearGradient>
<linearGradient id="paint4_linear" x1="2160.3" y1="549.75" x2="2952.21" y2="549.75" gradientUnits="userSpaceOnUse">
<stop stop-color="#FBB449"/>
<stop offset="1" stop-color="#FCE473"/>
</linearGradient>
<linearGradient id="paint5_linear" x1="3236.86" y1="440.935" x2="4028.76" y2="440.935" gradientUnits="userSpaceOnUse">
<stop stop-color="#FBB449"/>
<stop offset="1" stop-color="#FCE473"/>
</linearGradient>
<linearGradient id="paint6_linear" x1="4290.97" y1="863.914" x2="5083.43" y2="863.914" gradientUnits="userSpaceOnUse">
<stop stop-color="#FBB449"/>
<stop offset="1" stop-color="#FCE473"/>
</linearGradient>
<linearGradient id="paint7_linear" x1="5177.5" y1="1625.34" x2="5969.97" y2="1625.34" gradientUnits="userSpaceOnUse">
<stop stop-color="#FBB449"/>
<stop offset="1" stop-color="#FCE473"/>
</linearGradient>
<linearGradient id="paint8_linear" x1="117.954" y1="55.8881" x2="132.824" y2="197.379" gradientUnits="userSpaceOnUse">
<stop stop-color="#87EAD3"/>
<stop offset="0.51" stop-color="#A3F2D5"/>
<stop offset="1" stop-color="#E2FFF6"/>
</linearGradient>
<linearGradient id="paint9_linear" x1="12948.8" y1="29041" x2="26975" y2="29041" gradientUnits="userSpaceOnUse">
<stop stop-color="#1DBAB1"/>
<stop offset="1" stop-color="#8FD3D2"/>
</linearGradient>
<linearGradient id="paint10_linear" x1="4596.87" y1="9963.08" x2="5466.82" y2="9963.08" gradientUnits="userSpaceOnUse">
<stop stop-color="#1DBAB1"/>
<stop offset="1" stop-color="#8FD3D2"/>
</linearGradient>
</defs>
</svg>
