<svg width="256" height="247" viewBox="0 0 256 247" fill="none" xmlns="http://www.w3.org/2000/svg">
<path d="M103.109 229.272C134.161 244.001 163.532 249.524 173.392 244.921C183.252 240.319 169.89 227.298 138.839 212.57C107.788 197.841 95.185 196.741 85.2869 201.353C75.3888 205.965 72.0673 214.534 103.109 229.272Z" fill="url(#paint0_radial)"/>
<path d="M146.108 162.775H0V228.124H146.108V162.775Z" fill="url(#paint1_radial)"/>
<path d="M134.798 222.468C169.434 238.08 204.23 234.213 212.641 213.827C221.053 193.44 199.711 164.246 165.086 148.634C130.462 133.022 95.6546 136.889 87.2431 157.275C78.8317 177.661 100.173 206.856 134.798 222.468Z" fill="url(#paint2_radial)"/>
<path d="M196.444 186.502C216.928 196.869 243.381 201.469 249.879 192.243C256.376 183.017 237.799 165.08 217.322 154.714C196.844 144.348 173.997 136.47 167.499 145.696C161.002 154.922 175.966 176.136 196.444 186.502Z" fill="url(#paint3_radial)"/>
<path d="M232.705 120.521L222.408 99.7091L211.893 102.091L203.077 79.3435L191.698 88.3495L185.947 73.9532L187.959 73.156L192.638 84.8477L204.035 75.8227L213.241 99.5667L223.594 97.2132L234.65 119.562L232.705 120.521Z" fill="#A4D9C9"/>
<path d="M239.281 161.735L159.166 116.174L166.54 116.269L244.899 160.834L239.281 161.735Z" fill="#A4D9C9"/>
<path d="M234.878 157.731L228.387 154.039L228.121 130.627L234.612 134.319L234.878 157.731Z" fill="#18B9B0"/>
<path d="M224.961 152.095L218.47 148.403L218.033 109L224.524 112.692L224.961 152.095Z" fill="#18B9B0"/>
<path d="M215.053 146.456L208.562 142.764L208.183 109.255L214.674 112.947L215.053 146.456Z" fill="#18B9B0"/>
<path d="M205.136 140.818L198.645 137.127L198.095 87.8262L204.586 91.5083L205.136 140.818Z" fill="#18B9B0"/>
<path d="M195.229 135.184L188.738 131.492L188.443 105.983L194.935 109.675L195.229 135.184Z" fill="#18B9B0"/>
<path d="M185.312 129.544L178.82 125.853L178.488 96.1489L184.979 99.8405L185.312 129.544Z" fill="#18B9B0"/>
<path d="M175.394 123.907L168.912 120.215L168.685 100.799L175.176 104.49L175.394 123.907Z" fill="#18B9B0"/>
<path d="M234.641 134.347L228.121 130.645L229.545 130.256L236.055 133.957L234.641 134.347Z" fill="#A4D9C9"/>
<path d="M236.055 133.959L236.32 157.295L234.83 157.703L234.574 134.291L236.055 133.959Z" fill="#C9E8DD"/>
<path d="M224.525 112.795L218.005 109.084L219.428 108.695L225.948 112.405L224.525 112.795Z" fill="#A4D9C9"/>
<path d="M225.948 112.406L226.384 151.638L224.904 152.055L224.458 112.738L225.948 112.406Z" fill="#C9E8DD"/>
<path d="M214.654 112.975L208.135 109.274L209.558 108.885L216.078 112.586L214.654 112.975Z" fill="#A4D9C9"/>
<path d="M216.078 112.576L216.448 145.991L214.958 146.408L214.588 112.908L216.078 112.576Z" fill="#C9E8DD"/>
<path d="M194.963 109.72L188.443 106.018L189.867 105.629L196.387 109.331L194.963 109.72Z" fill="#A4D9C9"/>
<path d="M196.377 109.294L196.671 134.737L195.181 135.155L194.896 109.627L196.377 109.294Z" fill="#C9E8DD"/>
<path d="M175.11 104.491L168.6 100.781L170.023 100.392L176.533 104.102L175.11 104.491Z" fill="#A4D9C9"/>
<path d="M176.533 104.093L176.751 123.414L175.271 123.832L175.043 104.425L176.533 104.093Z" fill="#C9E8DD"/>
<path d="M184.979 99.8221L178.459 96.121L179.882 95.7319L186.393 99.433L184.979 99.8221Z" fill="#A4D9C9"/>
<path d="M186.394 99.397L186.735 129.091L185.245 129.509L184.913 99.7291L186.394 99.397Z" fill="#C9E8DD"/>
<path d="M204.585 91.5567L198.065 87.8461L199.489 87.457L205.999 91.1676L204.585 91.5567Z" fill="#A4D9C9"/>
<path d="M206 91.1201L206.56 140.364L205.07 140.781L204.52 91.4523L206 91.1201Z" fill="#C9E8DD"/>
<path d="M222.986 41.6879C200.413 28.5411 177.839 15.4385 155.266 2.38022C155.255 2.38031 155.244 2.37808 155.234 2.37368C155.224 2.36929 155.216 2.36283 155.208 2.35474C155.201 2.34665 155.196 2.33712 155.193 2.32679C155.189 2.31645 155.188 2.30555 155.19 2.29481C155.114 2.29481 155.114 2.21889 155.028 2.21889C154.808 2.07929 154.568 1.97371 154.317 1.90572C154.241 1.90572 154.241 1.82031 154.165 1.82031H154.079C153.842 1.74439 153.529 1.58306 153.206 1.50714L152.257 1.26989H152.02C151.737 1.20707 151.446 1.18155 151.157 1.19397H149.173C148.936 1.19397 148.699 1.26989 148.376 1.26989C148.053 1.26989 147.826 1.34581 147.588 1.43122C147.512 1.43122 147.427 1.50714 147.351 1.50714C147.275 1.50714 146.952 1.58306 146.801 1.66847H146.715C146.365 1.74409 146.023 1.84885 145.69 1.98164C145.605 1.98164 145.529 2.05756 145.453 2.05756C145.175 2.13205 144.907 2.24041 144.656 2.38022C144.636 2.38022 144.616 2.38822 144.602 2.40246C144.588 2.4167 144.58 2.43601 144.58 2.45614C144.495 2.45614 144.419 2.53206 144.343 2.53206C144.02 2.69339 143.783 2.76931 143.47 2.93064C143.394 3.00656 143.232 3.00656 143.156 3.09198C142.741 3.26686 142.341 3.47638 141.961 3.71832C141.656 3.87436 141.367 4.05864 141.097 4.26874C141.059 4.31856 141.01 4.35902 140.955 4.38699C140.899 4.41497 140.837 4.42971 140.774 4.43007C140.578 4.54451 140.394 4.67802 140.224 4.82865C140.148 4.90457 139.987 4.98049 139.911 5.0659C139.835 5.15131 139.512 5.30315 139.351 5.45499C139.19 5.60683 139.114 5.61632 139.038 5.69224C138.872 5.85277 138.684 5.98718 138.478 6.09082C138.402 6.16674 138.241 6.25215 138.165 6.32807C137.934 6.48932 137.721 6.67376 137.529 6.87849C137.453 6.9639 137.368 6.9639 137.292 7.03982C137.054 7.27708 136.741 7.51433 136.504 7.75158L136.343 7.91291C136.136 8.07185 135.951 8.25686 135.792 8.46333L135.707 8.53925C135.071 9.17508 134.445 9.80142 133.809 10.5132L133.733 10.5986L133.647 10.6745C133.173 11.2249 132.698 11.7848 132.3 12.3353V12.4112C132.3 12.4966 132.224 12.4966 132.224 12.5725C131.911 13.047 131.512 13.5215 131.199 13.996C131.199 14.0719 131.114 14.0719 131.114 14.1573C131.114 14.1775 131.106 14.1968 131.091 14.211C131.077 14.2253 131.058 14.2333 131.038 14.2333C130.715 14.7078 130.402 15.1823 130.089 15.6568C130.089 15.7327 130.003 15.7327 130.003 15.8086C130.003 15.8845 129.927 15.9699 129.851 16.0459L129.14 17.2321C129.132 17.2945 129.102 17.352 129.054 17.3934C129.054 17.4034 129.052 17.4133 129.048 17.4225C129.045 17.4317 129.039 17.4401 129.032 17.4471C129.025 17.4542 129.017 17.4598 129.007 17.4636C128.998 17.4674 128.988 17.4694 128.978 17.4694C128.741 17.9439 128.418 18.4184 128.181 18.8169C128.181 18.8371 128.173 18.8564 128.159 18.8706C128.145 18.8849 128.125 18.8929 128.105 18.8929C128.029 18.9783 128.029 19.0542 127.944 19.1301C127.792 19.5287 127.555 19.8419 127.393 20.2404C127.393 20.3164 127.318 20.3923 127.318 20.4777C127.318 20.5631 127.232 20.5536 127.232 20.6295C126.989 21.0894 126.776 21.5649 126.596 22.053V22.1385C126.596 22.2144 126.52 22.2144 126.52 22.2903C126.359 22.6889 126.122 23.1634 125.97 23.562C125.97 23.6379 125.885 23.7138 125.885 23.7992C125.885 23.8846 125.885 23.8751 125.809 23.951C125.647 24.511 125.41 24.9855 125.258 25.5359V25.6118C125.097 26.1622 124.936 26.6367 124.784 27.1966C124.784 27.2726 124.698 27.3485 124.698 27.4339C124.698 27.5193 124.698 27.5857 124.622 27.5857C124.546 27.7471 124.546 27.9084 124.461 28.0602C124.376 28.2121 124.385 28.4588 124.3 28.6961C124.214 28.9333 124.224 29.0092 124.224 29.1706C124.224 29.3319 124.148 29.4078 124.148 29.5691C124.153 29.6126 124.148 29.6566 124.133 29.6977C124.118 29.7389 124.094 29.7761 124.062 29.8064C123.987 30.0436 123.987 30.2809 123.911 30.5181C123.835 30.7554 123.825 30.8313 123.825 30.9832C123.763 31.2149 123.737 31.4551 123.749 31.6949C123.761 31.8322 123.735 31.9701 123.673 32.0935V32.1979C123.578 32.7211 123.524 33.251 123.512 33.7827V34.0959C123.512 34.6558 123.436 35.2062 123.436 35.6807V43.026L123.673 128.787C123.688 129.263 123.659 129.74 123.588 130.211V130.448C123.575 130.926 123.524 131.402 123.436 131.872C123.449 132.007 123.42 132.143 123.351 132.261C123.362 132.374 123.335 132.487 123.275 132.583L111.393 125.703C111.373 125.703 111.354 125.695 111.34 125.681C111.325 125.667 111.317 125.647 111.317 125.627C111.307 125.627 111.296 125.625 111.286 125.621C111.276 125.616 111.267 125.61 111.26 125.602C111.253 125.594 111.247 125.584 111.244 125.574C111.241 125.563 111.24 125.552 111.241 125.542L110.757 125.304C110.748 125.304 110.738 125.303 110.728 125.299C110.719 125.295 110.711 125.289 110.704 125.282C110.697 125.275 110.691 125.267 110.687 125.258C110.684 125.248 110.682 125.239 110.682 125.229H110.606C110.368 125.153 110.207 125.067 109.97 124.991C109.755 124.951 109.542 124.897 109.334 124.83H109.182C108.935 124.83 108.784 124.754 108.546 124.754H107.512C107.199 124.754 106.961 124.83 106.648 124.83C106.487 124.83 106.25 124.915 106.012 124.915H105.851C105.69 124.915 105.614 124.991 105.453 124.991L104.741 125.229C104.665 125.229 104.665 125.304 104.579 125.304C104.494 125.304 104.19 125.466 104.029 125.542H103.953C103.868 125.542 103.868 125.627 103.792 125.627C103.564 125.696 103.35 125.802 103.156 125.94C103.08 125.94 103.004 126.016 102.919 126.102C102.606 126.253 102.368 126.415 102.046 126.576C101.723 126.737 101.258 127.051 100.783 127.364C100.622 127.44 100.546 127.601 100.385 127.677L99.5972 128.237C99.4359 128.389 99.2745 128.474 99.1227 128.626C98.9709 128.778 98.6482 129.025 98.4109 129.262L97.927 129.736L97.6138 130.05C97.4614 130.19 97.3275 130.35 97.2152 130.524L96.978 130.761C96.6648 131.074 96.4275 131.397 96.1903 131.634C96.1144 131.71 96.1144 131.71 96.1144 131.786C95.953 132.023 95.7917 132.185 95.6399 132.422C95.4631 132.569 95.326 132.759 95.2413 132.972L95.08 133.134C94.9186 133.295 94.8427 133.447 94.6814 133.608C94.534 133.779 94.4037 133.963 94.2923 134.159C94.2069 134.244 94.131 134.396 94.055 134.481C93.9791 134.567 93.8178 134.795 93.7324 134.956C93.647 135.117 93.5805 135.193 93.4951 135.345C93.4097 135.497 93.2579 135.744 93.106 135.905C92.9542 136.066 92.9447 136.142 92.8593 136.294C92.7739 136.446 92.7834 136.379 92.7834 136.455C92.5461 136.844 92.3848 137.167 92.1475 137.556V137.642C92.1475 137.717 92.0716 137.793 92.0716 137.879C91.9078 138.151 91.7742 138.441 91.673 138.742C91.5971 138.828 91.5971 138.98 91.5212 139.065L91.2839 139.54C91.1945 139.651 91.1386 139.786 91.1226 139.929L90.8854 140.64C90.8 140.802 90.8 140.878 90.724 141.039C90.6481 141.2 90.6481 141.115 90.6481 141.2C90.4868 141.589 90.3254 142.064 90.1736 142.462C90.1736 142.538 90.0882 142.614 90.0882 142.7C89.9489 143.056 89.844 143.424 89.775 143.801V143.962C89.6747 144.463 89.5703 144.962 89.4619 145.461C89.4684 145.505 89.464 145.549 89.4491 145.591C89.4342 145.632 89.4092 145.669 89.3765 145.699C89.3826 145.741 89.379 145.785 89.3658 145.826C89.3527 145.867 89.3303 145.905 89.3005 145.936C89.2246 146.41 89.1392 146.885 89.0633 147.359V147.435C88.9874 147.995 88.9874 148.47 88.9019 149.02V149.808C88.8904 151.089 89.05 152.365 89.3765 153.604C90.1736 157.001 91.8344 159.611 94.3682 161.034L162.174 200.285C165.667 202.269 170.336 201.794 175.328 198.947C180.319 196.1 184.913 191.194 188.395 185.187C191.878 179.179 193.776 172.707 193.776 167.013V159.658L193.492 73.954C193.492 63.6763 200.619 51.1115 209.568 45.8161L225.701 54.955C225.852 55.1068 227.513 55.344 227.513 53.446V52.497C227.494 46.3665 226.308 43.5859 222.986 41.6879Z" fill="url(#paint4_linear)"/>
<path d="M123.075 127.921L191.403 167.779C191.403 188.155 172.423 202.39 164.879 198.271L96.4746 158.185C105.044 159.722 123.075 159.248 123.075 127.921Z" fill="url(#paint5_linear)"/>
<path d="M180.822 177.013C180.808 176.819 180.837 176.625 180.908 176.444V176.045C180.908 175.637 180.983 175.239 180.983 174.755C180.983 171.129 179.712 168.633 177.719 167.419L109.505 127.447C111.497 128.652 112.769 131.148 112.769 134.773C112.78 135.205 112.754 135.636 112.693 136.064V136.472C112.693 136.709 112.617 137.032 112.617 137.278C112.617 137.525 112.532 137.924 112.456 138.161C112.439 138.384 112.385 138.602 112.295 138.806C112.219 138.968 112.219 139.214 112.133 139.376C112.048 139.537 111.981 139.936 111.896 140.182C111.811 140.429 111.82 140.496 111.735 140.657C111.669 140.966 111.564 141.266 111.422 141.549C111.336 141.71 111.336 141.786 111.26 141.948C111.099 142.356 110.938 142.754 110.786 143.238C110.786 143.324 110.7 143.324 110.7 143.4C110.539 143.808 110.387 144.13 110.226 144.453C110.14 144.529 110.14 144.69 110.064 144.776C109.903 145.098 109.666 145.497 109.505 145.819C109.499 145.88 109.472 145.937 109.429 145.981L108.707 147.186C108.632 147.271 108.546 147.433 108.47 147.509C108.309 147.755 108.072 148.078 107.91 148.315C107.825 148.465 107.72 148.602 107.597 148.723C107.454 148.952 107.292 149.168 107.113 149.369C106.942 149.525 106.806 149.716 106.715 149.929L106.24 150.413C106.003 150.659 105.766 150.982 105.519 151.219L105.044 151.703C104.883 151.789 104.807 151.941 104.646 152.026C104.484 152.111 104.247 152.425 104.01 152.586C103.773 152.747 103.773 152.833 103.611 152.909C103.45 152.984 103.137 153.317 102.89 153.478C102.814 153.554 102.653 153.639 102.577 153.715C102.254 153.962 101.856 154.199 101.542 154.446C101.229 154.693 101.058 154.683 100.821 154.844C100.745 154.844 100.66 154.93 100.584 154.93L100.024 155.167C99.9481 155.167 99.9481 155.253 99.8627 155.253C99.718 155.34 99.5561 155.395 99.3882 155.414H99.3028C99.1014 155.503 98.8865 155.557 98.667 155.575H98.5911L97.6421 155.812C97.4048 155.812 97.1676 155.898 96.9303 155.898H96.0477C95.8849 155.911 95.7214 155.881 95.5732 155.812H95.4119C95.216 155.799 95.0252 155.744 94.852 155.651C94.6907 155.575 94.5388 155.575 94.3775 155.49C94.2162 155.404 94.2921 155.414 94.2162 155.414C94.0732 155.349 93.9393 155.266 93.8176 155.167C93.7417 155.167 93.7417 155.091 93.6562 155.091C116.363 168.472 139.101 181.825 161.871 195.149H162.032C162.173 195.213 162.307 195.292 162.43 195.386H162.582C162.728 195.477 162.894 195.533 163.066 195.547C163.228 195.633 163.465 195.633 163.617 195.709H163.778C163.939 195.709 164.101 195.794 164.262 195.794H165.135C165.379 195.807 165.623 195.778 165.856 195.709C166.181 195.67 166.5 195.59 166.805 195.471H166.919C167.156 195.386 167.318 195.386 167.555 195.31C167.566 195.31 167.577 195.308 167.586 195.303C167.596 195.299 167.605 195.293 167.612 195.284C167.62 195.276 167.625 195.267 167.628 195.257C167.631 195.246 167.632 195.235 167.631 195.225C167.779 195.137 167.944 195.082 168.115 195.063H168.191C168.252 195.057 168.309 195.03 168.352 194.987C168.514 194.902 168.751 194.826 168.912 194.741C169.073 194.655 169.073 194.665 169.149 194.665C169.387 194.503 169.624 194.418 169.861 194.257C170.221 194.034 170.57 193.793 170.905 193.535C170.981 193.45 171.142 193.374 171.218 193.289C171.476 193.126 171.718 192.939 171.939 192.729C172.101 192.643 172.177 192.491 172.338 192.406C172.499 192.321 172.737 192.007 172.974 191.837C173.211 191.666 173.211 191.599 173.372 191.523L173.61 191.277L173.847 191.039C174.084 190.793 174.331 190.47 174.568 190.233L174.805 189.986C174.881 189.91 174.967 189.825 174.967 189.749C175.143 189.594 175.28 189.398 175.365 189.179C175.452 189.056 175.557 188.947 175.679 188.857C175.764 188.781 175.84 188.619 175.925 188.534C176.008 188.386 176.114 188.251 176.238 188.135C176.312 188.045 176.37 187.942 176.409 187.832C176.495 187.67 176.656 187.509 176.732 187.348C176.808 187.186 176.893 187.101 176.969 187.025C177.045 186.949 177.055 186.94 177.055 186.864C177.269 186.566 177.453 186.248 177.605 185.915V185.839C177.605 185.753 177.69 185.678 177.69 185.592C177.852 185.355 177.928 185.108 178.089 184.871C178.165 184.786 178.165 184.624 178.25 184.548C178.336 184.472 178.326 184.302 178.402 184.226C178.478 184.15 178.488 184.064 178.563 183.903C178.639 183.742 178.801 183.334 178.962 183.096C178.962 183.011 179.038 183.011 179.038 182.935V182.85C179.22 182.522 179.354 182.171 179.437 181.806C179.437 181.72 179.522 181.72 179.522 181.644C179.522 181.568 179.598 181.398 179.683 181.236C179.768 181.091 179.82 180.929 179.835 180.762C179.904 180.637 179.933 180.495 179.921 180.354C179.996 180.192 179.996 180.031 180.082 179.87C180.167 179.708 180.158 179.708 180.158 179.547C180.158 179.386 180.234 179.224 180.319 179.063C180.405 178.902 180.395 178.664 180.48 178.503C180.475 178.459 180.48 178.414 180.493 178.372C180.506 178.329 180.527 178.29 180.556 178.256C180.646 177.947 180.7 177.629 180.718 177.307V177.146C180.822 177.336 180.822 177.175 180.822 177.013Z" fill="url(#paint6_linear)"/>
<path d="M178.81 168.957C180.072 169.745 180.708 171.102 180.708 173.55C180.708 184.559 172.442 187.244 168.181 185.688L127.63 159.847C127.508 159.831 127.394 159.774 127.308 159.685C127.288 159.685 127.268 159.677 127.254 159.663C127.24 159.649 127.232 159.629 127.232 159.609C127.146 159.533 127.071 159.533 126.995 159.448C126.919 159.363 126.909 159.448 126.909 159.372L127.668 159.856C127.754 159.856 127.877 159.922 127.944 159.922H128.01C128.103 159.99 128.218 160.02 128.333 160.008H129.358C129.548 160.016 129.738 159.987 129.918 159.922H129.993C130.155 159.922 130.231 159.847 130.392 159.847H130.468C130.581 159.858 130.694 159.831 130.791 159.771C130.789 159.76 130.79 159.749 130.793 159.739C130.797 159.728 130.802 159.719 130.809 159.711C130.816 159.703 130.825 159.696 130.835 159.692C130.845 159.687 130.856 159.685 130.867 159.685C130.942 159.609 131.104 159.609 131.18 159.533C131.256 159.457 131.265 159.448 131.341 159.448L131.816 159.211C132.053 159.049 132.29 158.973 132.527 158.812C132.613 158.736 132.689 158.736 132.774 158.66C132.859 158.584 133.087 158.423 133.249 158.338C133.41 158.252 133.4 158.262 133.486 158.186C133.571 158.11 133.723 157.949 133.884 157.863L134.122 157.626C134.198 157.465 134.359 157.389 134.435 157.313L134.909 156.838C135.071 156.753 135.147 156.591 135.232 156.516C135.317 156.44 135.469 156.278 135.545 156.202C135.621 156.126 135.782 155.965 135.858 155.804L136.096 155.567C136.257 155.405 136.342 155.244 136.494 155.092C136.646 154.94 136.58 154.931 136.655 154.855L137.13 154.134L137.206 154.058C137.369 153.866 137.503 153.652 137.604 153.422C137.604 153.346 137.69 153.27 137.69 153.185C137.809 152.98 137.914 152.768 138.003 152.549C138.023 152.549 138.042 152.541 138.057 152.526C138.071 152.512 138.079 152.493 138.079 152.473C138.164 152.16 138.316 151.922 138.402 151.676C138.402 151.6 138.478 151.524 138.478 151.438C138.478 151.353 138.639 151.049 138.715 150.888C138.791 150.727 138.8 150.651 138.8 150.565C138.8 150.48 138.876 150.252 138.952 150.091C139.028 149.929 139.037 149.854 139.037 149.702C139.037 149.55 139.113 149.464 139.113 149.303C139.202 149.128 139.256 148.938 139.275 148.743C139.275 148.591 139.351 148.43 139.351 148.269V148.031C139.41 147.773 139.436 147.509 139.427 147.244C139.512 145.023 138.715 143.448 137.529 142.641L178.81 168.957Z" fill="url(#paint7_linear)"/>
<path d="M178.128 167.382C179.399 168.17 180.026 169.518 180.026 171.976C180.026 182.975 171.484 186.771 167.499 184.104C167.499 184.104 140.927 167.212 126.938 158.263C126.818 158.238 126.707 158.183 126.616 158.101C126.596 158.101 126.576 158.093 126.562 158.079C126.548 158.065 126.54 158.045 126.54 158.025C126.464 157.94 126.378 157.94 126.302 157.864C126.282 157.864 126.263 157.856 126.249 157.842C126.235 157.827 126.227 157.808 126.227 157.788L126.976 158.263C127.066 158.294 127.158 158.32 127.251 158.338H127.337C127.426 158.406 127.539 158.437 127.65 158.424H128.684C128.872 158.431 129.059 158.402 129.235 158.338H129.32C129.472 158.338 129.558 158.263 129.709 158.263H129.795C129.906 158.275 130.018 158.245 130.108 158.177C130.108 158.167 130.11 158.157 130.114 158.148C130.118 158.139 130.123 158.13 130.13 158.123C130.137 158.116 130.146 158.111 130.155 158.107C130.164 158.103 130.174 158.101 130.184 158.101C130.269 158.025 130.431 158.025 130.507 157.94C130.582 157.854 130.582 157.864 130.668 157.864L131.142 157.627C131.38 157.465 131.617 157.389 131.854 157.228C131.93 157.152 132.015 157.152 132.091 157.067C132.167 156.981 132.405 156.83 132.566 156.754C132.727 156.678 132.727 156.678 132.803 156.592C132.879 156.507 133.04 156.355 133.202 156.279L133.439 156.042C133.515 155.881 133.676 155.805 133.752 155.719L134.227 155.245C134.388 155.169 134.473 155.007 134.549 154.932C134.625 154.856 134.787 154.694 134.862 154.609C134.938 154.523 135.1 154.372 135.185 154.22L135.422 153.983C135.584 153.821 135.66 153.66 135.821 153.508C135.982 153.356 135.897 153.347 135.973 153.261L136.447 152.55L136.533 152.474C136.689 152.277 136.823 152.064 136.931 151.838C136.931 151.762 137.007 151.676 137.007 151.601C137.127 151.396 137.231 151.184 137.32 150.965C137.331 150.966 137.342 150.965 137.352 150.962C137.363 150.959 137.372 150.953 137.38 150.946C137.388 150.939 137.395 150.93 137.399 150.92C137.404 150.91 137.406 150.9 137.406 150.889C137.496 150.618 137.6 150.351 137.719 150.092C137.719 150.016 137.795 149.94 137.795 149.854C137.795 149.769 137.956 149.456 138.042 149.304C138.127 149.152 138.118 149.067 138.118 148.981C138.118 148.896 138.193 148.668 138.279 148.507C138.364 148.345 138.355 148.27 138.355 148.108C138.355 147.947 138.431 147.871 138.431 147.719C138.523 147.546 138.578 147.355 138.592 147.159C138.592 146.998 138.668 146.846 138.668 146.685V146.447C138.734 146.187 138.763 145.919 138.753 145.65C138.829 143.43 138.042 141.854 136.855 141.057L178.128 167.382Z" fill="url(#paint8_linear)"/>
<path d="M156.566 192.274C156.308 190.614 156.219 188.932 156.3 187.254L87.9717 147.851C88.0426 149.546 88.2907 151.228 88.7119 152.871C89.4996 156.278 91.1698 158.897 93.7037 160.321L161.576 199.724C159.023 198.272 157.353 195.766 156.566 192.274Z" fill="url(#paint9_linear)"/>
<path d="M110.653 124.61L179.086 164.468C172.443 160.596 158.673 169.688 156.12 187.244L87.953 147.842C87.004 126.973 104.57 120.804 110.653 124.61Z" fill="url(#paint10_linear)"/>
<path d="M225.758 54.0236C225.758 48.8706 223.936 45.2264 220.928 43.4802C198.329 30.3144 175.73 17.1802 153.131 4.07764C156.073 5.8238 157.876 9.46797 157.971 14.6211C157.974 14.7544 158.003 14.886 158.057 15.0081C158.11 15.1302 158.188 15.2406 158.284 15.3328L226.081 54.6595C225.974 54.5927 225.888 54.4982 225.831 54.3862C225.774 54.2743 225.749 54.1489 225.758 54.0236Z" fill="url(#paint11_linear)"/>
<path d="M190.815 81.5467L190.473 73.8408L122.942 34.7324V42.1062L123.075 127.924L191.052 167.621L190.815 81.5467Z" fill="url(#paint12_linear)"/>
<path d="M190.815 81.5467L190.473 73.8408L122.942 34.7324V42.1062L123.075 127.924L191.052 167.621L190.815 81.5467Z" fill="url(#paint13_linear)"/>
<path d="M209.292 42.1021C219.513 36.1518 227.845 40.9158 227.921 52.7309C227.907 53.0952 227.806 53.4509 227.626 53.7679C227.446 54.085 227.193 54.3542 226.887 54.553C226.336 54.8661 225.862 54.6289 225.777 53.9171C225.777 43.4781 218.327 39.331 209.292 44.4841C200.258 49.6371 192.875 62.4012 192.875 72.8687L193.112 158.896V166.27C193.112 171.964 191.214 178.474 187.722 184.5C184.229 190.526 179.551 195.423 174.635 198.27C169.719 201.117 165.05 201.601 161.482 199.617C158.938 198.194 157.278 195.651 156.48 192.168C156.15 190.93 155.99 189.653 156.006 188.372V187.575C156.48 179.034 162.269 169.335 169.292 165.216C176.666 160.936 182.692 164.419 182.692 172.808C182.692 181.197 176.742 191.598 169.406 195.878C167.998 196.745 166.44 197.337 164.813 197.625C167.66 198.422 170.991 197.7 174.559 195.641C178.924 193.107 183.043 188.742 186.137 183.437C188.95 178.524 190.444 172.966 190.474 167.304V73.8082C190.559 62.2399 199.062 48.0523 209.292 42.1021ZM158.625 190.526C159.973 195.205 164.319 196.714 169.482 193.696C175.669 190.127 180.661 181.359 180.661 174.27C180.661 167.181 175.593 164.286 169.406 167.854C163.218 171.423 158.378 179.821 158.227 186.882C158.229 188.107 158.362 189.329 158.625 190.526Z" fill="url(#paint14_linear)"/>
<path d="M154.658 1.4309C177.339 14.5208 199.963 27.655 222.531 40.8335C218.554 38.7836 210.412 40.1122 204.243 46.2807C198.075 52.4493 191.413 60.0033 190.473 73.8018L122.942 34.7314C122.942 19.2247 132.091 11.1582 134.947 8.31117C137.804 5.46416 147.759 -2.12786 154.658 1.4309Z" fill="url(#paint15_linear)"/>
<path d="M154.658 1.4309C177.339 14.5208 199.963 27.655 222.531 40.8335C218.554 38.7836 210.412 40.1122 204.243 46.2807C198.075 52.4493 191.413 60.0033 190.473 73.8018L122.942 34.7314C122.942 19.2247 132.091 11.1582 134.947 8.31117C137.804 5.46416 147.759 -2.12786 154.658 1.4309Z" fill="url(#paint16_radial)"/>
<path d="M180.292 83.575L133.79 57.43C133.439 57.1833 133.098 57.3541 133.098 57.8571C133.124 58.0923 133.199 58.3195 133.318 58.5238C133.437 58.7282 133.598 58.9052 133.79 59.0433L180.292 85.1789C180.633 85.4351 180.984 85.1789 180.984 84.7613C180.996 84.5178 180.936 84.2762 180.813 84.0657C180.691 83.8551 180.509 83.6847 180.292 83.575Z" fill="url(#paint17_linear)"/>
<path d="M179.807 90.6179L133.306 64.397C132.955 64.1408 132.604 64.3116 132.604 64.8241C132.631 65.0586 132.708 65.2846 132.829 65.4873C132.95 65.6901 133.113 65.8651 133.306 66.0008L179.807 92.1458C180.149 92.3926 180.5 92.1458 180.5 91.7188C180.47 91.4962 180.393 91.2826 180.274 91.0925C180.154 90.9025 179.995 90.7406 179.807 90.6179Z" fill="url(#paint18_linear)"/>
<path d="M180.292 98.2947L133.79 72.1497C133.439 71.9029 133.098 72.0642 133.098 72.5767C133.125 72.8116 133.2 73.0383 133.32 73.2425C133.439 73.4467 133.599 73.6239 133.79 73.763L180.292 99.8985C180.633 100.155 180.984 99.8985 180.984 99.4714C180.957 99.238 180.881 99.0129 180.761 98.8104C180.642 98.6078 180.482 98.4322 180.292 98.2947Z" fill="url(#paint19_linear)"/>
<path d="M180.292 105.649L133.79 79.514C133.439 79.2577 133.098 79.4285 133.098 79.941C133.124 80.1749 133.199 80.4006 133.318 80.6034C133.438 80.8062 133.599 80.9815 133.79 81.1178L180.292 107.253C180.633 107.51 180.984 107.253 180.984 106.836C180.957 106.601 180.881 106.374 180.762 106.17C180.642 105.966 180.482 105.789 180.292 105.649Z" fill="url(#paint20_linear)"/>
<path d="M180.206 113.099L133.704 86.9536C133.353 86.7068 133.012 86.9536 133.012 87.3806C133.038 87.6159 133.113 87.843 133.232 88.0474C133.351 88.2517 133.512 88.4287 133.704 88.5669L180.206 114.702C180.547 114.959 180.898 114.702 180.898 114.275C180.899 114.035 180.835 113.799 180.713 113.592C180.591 113.385 180.416 113.214 180.206 113.099Z" fill="url(#paint21_linear)"/>
<path d="M173.259 116.562L133.704 94.3178C133.353 94.0615 133.012 94.3178 133.012 94.7353C133.038 94.9705 133.113 95.1977 133.232 95.402C133.351 95.6064 133.512 95.7834 133.704 95.9216L173.297 118.166C173.639 118.422 173.99 118.166 173.99 117.749C173.986 117.503 173.917 117.263 173.788 117.055C173.659 116.846 173.477 116.676 173.259 116.562Z" fill="url(#paint22_linear)"/>
<path d="M166.312 120.029L133.704 101.675C133.353 101.419 133.012 101.589 133.012 102.102C133.038 102.336 133.113 102.562 133.232 102.764C133.352 102.967 133.513 103.142 133.704 103.279L166.35 121.642C166.692 121.889 167.043 121.718 167.043 121.215C167.011 120.977 166.929 120.749 166.803 120.544C166.677 120.34 166.51 120.164 166.312 120.029Z" fill="url(#paint23_linear)"/>
<path d="M107.133 190.518H107.02V189.019H107.133V190.518Z" fill="#5A6873"/>
<path d="M105.728 201.877C105.948 202.017 106.16 202.169 106.364 202.333C114.785 207.23 123.205 212.124 131.626 217.014L156.946 231.743C157.079 231.818 157.202 231.913 157.335 231.999C157.284 232.075 157.206 232.13 157.116 232.151C154.715 232.502 153.539 234.191 152.704 236.222C152.451 236.751 152.31 237.327 152.29 237.913C152.271 238.5 152.373 239.084 152.59 239.629C152.634 239.695 152.658 239.772 152.658 239.852C152.658 239.931 152.634 240.009 152.59 240.075L141.875 233.878L99.9201 209.498C99.6923 209.365 99.493 209.156 99.1894 209.213C98.7674 209.049 98.4076 208.756 98.1608 208.377C97.9139 207.997 97.7924 207.549 97.8133 207.097C97.7724 206.177 97.9197 205.258 98.246 204.396C98.5723 203.535 99.0709 202.749 99.7113 202.086C100.198 201.499 100.803 201.021 101.486 200.682C101.891 200.458 102.351 200.352 102.813 200.373C103.275 200.395 103.723 200.545 104.105 200.805C104.608 201.217 105.152 201.576 105.728 201.877Z" fill="url(#paint24_linear)"/>
<path d="M105.861 201.954C105.541 201.831 105.24 201.661 104.969 201.451C102.777 199.667 101.173 200.673 99.7212 202.343C99.1456 202.941 98.6947 203.648 98.3949 204.422C98.0951 205.195 97.9524 206.021 97.975 206.851C97.9261 207.275 98.0036 207.704 98.1978 208.084C98.392 208.464 98.6942 208.778 99.0664 208.986C99.1328 208.986 99.1518 209.138 99.1897 209.214C95.4471 211.775 91.2651 213.624 86.8527 214.671C75.8336 217.578 64.1934 217.088 53.4573 213.266C49.1131 211.824 45.1607 209.398 41.9079 206.177C39.7773 204.122 38.3071 201.479 37.6849 198.585C37.6849 198.414 37.6849 198.234 37.6279 198.054C37.6279 196.289 37.6279 194.533 37.6279 192.768C37.6279 192.483 37.6279 190.946 37.6279 190.946C37.8602 191.337 38.054 191.75 38.2068 192.179C38.373 192.699 38.576 193.207 38.8142 193.698C40.2677 196.631 42.4588 199.136 45.1725 200.967C50.3066 204.678 56.1619 206.595 62.3115 207.715C66.6034 208.479 70.9695 208.743 75.3223 208.502C82.3702 208.292 89.2902 206.567 95.612 203.444C98.8126 201.882 101.651 199.668 103.944 196.943C105.139 195.478 106.046 193.8 106.62 191.999C106.669 191.78 106.755 191.571 106.877 191.382C107.019 191.23 107.209 189.731 107.275 189.873C107.275 191.828 107.361 194.827 107.275 196.782C107.246 197.025 107.23 197.268 107.228 197.513C107.071 199.069 106.607 200.579 105.861 201.954Z" fill="url(#paint25_linear)"/>
<path d="M152.59 240.077C151.527 237.884 152.4 236.024 153.539 234.212C153.989 233.57 154.559 233.022 155.218 232.598C155.825 232.165 156.562 231.953 157.306 232.001C157.692 232.129 158.032 232.368 158.284 232.686C158.537 233.004 158.692 233.389 158.73 233.794C158.808 235.163 158.479 236.524 157.785 237.706C157.091 238.888 156.062 239.838 154.829 240.437C154.702 240.473 154.572 240.498 154.44 240.513C154.084 240.561 153.724 240.561 153.368 240.513C153.088 240.408 152.826 240.261 152.59 240.077Z" fill="#1DBAB1"/>
<path d="M103.337 183.705C101.699 180.486 99.1516 177.819 96.0102 176.037C93.5391 174.532 90.8983 173.324 88.143 172.44C84.3352 171.203 80.3891 170.441 76.3944 170.172C74.1846 169.99 71.9647 169.965 69.7514 170.096C67.7205 170.248 65.6896 170.391 63.6872 170.713C58.3709 171.47 53.2616 173.29 48.6645 176.066C45.4094 178.096 42.6573 180.611 41.1294 184.227C39.9902 186.849 39.9255 189.814 40.9491 192.483C41.9736 195.105 43.6887 197.401 45.9124 199.126C49.2141 201.768 53.0029 203.735 57.0632 204.915C62.0886 206.467 67.3303 207.204 72.5889 207.098C75.1486 207.126 77.7065 206.948 80.2378 206.566C83.1438 206.172 86.0043 205.495 88.7788 204.545C91.6376 203.609 94.3523 202.28 96.8454 200.597C99.7329 198.775 102.038 196.163 103.488 193.072C104.162 191.598 104.498 189.992 104.472 188.371C104.445 186.751 104.058 185.157 103.337 183.705ZM101.904 191.999C101.309 193.845 100.281 195.521 98.9047 196.887C96.0889 199.718 92.6602 201.864 88.8832 203.16C82.6595 205.43 76.0283 206.367 69.4192 205.912C63.7533 205.689 58.1871 204.351 53.0394 201.973C49.7158 200.522 46.8017 198.273 44.5553 195.425C43.7982 194.447 43.214 193.346 42.8282 192.17C42.6668 191.174 43.3027 190.462 43.7772 189.722C45.5343 186.987 47.9573 184.744 50.8188 183.202C55.5985 180.533 60.8774 178.879 66.3255 178.343C68.4831 178.054 70.6588 177.921 72.8356 177.945C78.212 177.97 83.5451 178.907 88.608 180.716C91.9049 181.856 94.9641 183.594 97.633 185.84C99.3403 187.276 100.727 189.054 101.704 191.06C101.887 191.336 101.958 191.672 101.904 191.999Z" fill="#3D4850"/>
<path d="M107.133 187.623V187.13C107.025 185.856 106.68 184.614 106.117 183.466C104.382 179.965 101.657 177.051 98.2786 175.087C93.9421 172.4 89.1441 170.544 84.1289 169.611C81.06 168.939 77.9319 168.573 74.7908 168.52C73.0891 168.368 71.3773 168.368 69.6756 168.52C69.4479 168.52 69.2296 168.52 69.0018 168.52C64.8245 168.721 60.6845 169.405 56.6648 170.56C51.6052 171.883 46.9085 174.329 42.9233 177.715C39.2032 181.046 37.03 185.08 37.4475 190.233C37.6468 190.755 37.3906 191.381 37.8366 191.846C38.2511 193.098 38.8083 194.299 39.4974 195.424C41.1816 197.944 43.3611 200.094 45.9031 201.744C49.2459 203.93 52.9087 205.582 56.7597 206.641C61.1679 207.916 65.7235 208.612 70.3115 208.71C72.9299 208.787 75.5507 208.708 78.1597 208.473C80.447 208.25 82.7191 207.891 84.9641 207.4C89.2705 206.506 93.4086 204.936 97.2252 202.75C99.929 201.232 102.319 199.213 104.267 196.8C105.499 195.242 106.418 193.46 106.971 191.552C107.198 190.874 107.294 190.159 107.256 189.445C107.312 188.835 107.271 188.22 107.133 187.623ZM101.866 191.998C101.271 193.843 100.243 195.519 98.867 196.885C96.0512 199.716 92.6224 201.863 88.8455 203.158C82.6217 205.428 75.9906 206.366 69.3814 205.91C63.7285 205.683 58.1756 204.345 53.0396 201.972C49.716 200.52 46.8019 198.271 44.5555 195.424C43.7984 194.445 43.2142 193.344 42.8284 192.169C42.667 191.172 43.3029 190.461 43.7774 189.72C45.5345 186.986 47.9575 184.742 50.819 183.201C55.5987 180.532 60.8776 178.878 66.3257 178.342C68.4833 178.053 70.659 177.919 72.8358 177.943C78.2122 177.968 83.5453 178.905 88.6082 180.714C91.9052 181.855 94.9643 183.592 97.6332 185.839C99.3405 187.275 100.728 189.053 101.704 191.058C101.887 191.335 101.959 191.671 101.904 191.998H101.866ZM107.047 190.85C107.038 190.73 107.038 190.609 107.047 190.489V189.958C107.047 190.176 107.047 190.394 107.047 190.622V190.85Z" fill="url(#paint26_linear)"/>
<path d="M101.904 191.999C100.834 189.316 99.0278 186.99 96.6936 185.289C92.4847 182.176 87.6128 180.078 82.4586 179.159C79.7619 178.643 77.0309 178.326 74.2877 178.21C70.794 178.066 67.2949 178.292 63.8487 178.884C60.7534 179.357 57.7244 180.191 54.8237 181.37C51.0754 182.782 47.7271 185.084 45.0679 188.08C44.01 189.241 43.2339 190.631 42.7998 192.141C42.2357 190.644 42.0278 189.037 42.1925 187.446C42.3572 185.854 42.89 184.323 43.7488 182.974C45.4106 180.284 47.7378 178.068 50.5057 176.54C54.792 174.072 59.517 172.46 64.4181 171.795C66.3646 171.456 68.3357 171.279 70.3114 171.263C71.4407 171.263 72.5036 171.263 73.6803 171.263C77.4335 171.286 81.1682 171.79 84.7932 172.763C89.3399 173.817 93.5917 175.88 97.2346 178.798C99.8174 180.762 101.617 183.581 102.312 186.751C102.681 188.503 102.54 190.325 101.904 191.999Z" fill="url(#paint27_linear)"/>
<defs>
<radialGradient id="paint0_radial" cx="0" cy="0" r="1" gradientUnits="userSpaceOnUse" gradientTransform="translate(128.458 225.021) rotate(26.4017) scale(47.8254 9.92351)">
<stop stop-color="#3CCFC7" stop-opacity="0.42"/>
<stop offset="0.83" stop-color="#4EBDB4" stop-opacity="0.06"/>
<stop offset="0.91" stop-color="#4FBBB2" stop-opacity="0.02"/>
<stop offset="1" stop-color="#50BAB1" stop-opacity="0"/>
</radialGradient>
<radialGradient id="paint1_radial" cx="0" cy="0" r="1" gradientUnits="userSpaceOnUse" gradientTransform="translate(73.0732 196.465) scale(53.1441 30.8236)">
<stop offset="0.2" stop-color="white" stop-opacity="0"/>
<stop offset="0.58" stop-color="#3CCFC7" stop-opacity="0.4"/>
<stop offset="0.84" stop-color="#4EBDB4" stop-opacity="0.06"/>
<stop offset="0.91" stop-color="#4FBBB2" stop-opacity="0.02"/>
<stop offset="1" stop-color="#50BAB1" stop-opacity="0"/>
</radialGradient>
<radialGradient id="paint2_radial" cx="0" cy="0" r="1" gradientUnits="userSpaceOnUse" gradientTransform="translate(149.694 185.697) rotate(30.3677) scale(61.071 41.2118)">
<stop stop-color="#3CCFC7" stop-opacity="0.42"/>
<stop offset="0.83" stop-color="#4EBDB4" stop-opacity="0.06"/>
<stop offset="0.91" stop-color="#4FBBB2" stop-opacity="0.02"/>
<stop offset="1" stop-color="#50BAB1" stop-opacity="0"/>
</radialGradient>
<radialGradient id="paint3_radial" cx="0" cy="0" r="1" gradientUnits="userSpaceOnUse" gradientTransform="translate(212.635 173.521) rotate(32.0524) scale(36.2384 21.2609)">
<stop stop-color="#3CCFC7" stop-opacity="0.25"/>
<stop offset="0.83" stop-color="#4EBDB4" stop-opacity="0.03"/>
<stop offset="0.91" stop-color="#4FBBB2" stop-opacity="0.01"/>
<stop offset="1" stop-color="#50BAB1" stop-opacity="0"/>
</radialGradient>
<linearGradient id="paint4_linear" x1="188.756" y1="81.6124" x2="138.174" y2="114.714" gradientUnits="userSpaceOnUse">
<stop stop-color="#B1D7C9"/>
<stop offset="1" stop-color="#94BCAD"/>
</linearGradient>
<linearGradient id="paint5_linear" x1="137.13" y1="179.585" x2="155.398" y2="146.835" gradientUnits="userSpaceOnUse">
<stop stop-color="#9BDEC5"/>
<stop offset="1" stop-color="#CDFCEB"/>
</linearGradient>
<linearGradient id="paint6_linear" x1="149.761" y1="149.568" x2="131.237" y2="171.803" gradientUnits="userSpaceOnUse">
<stop stop-color="#A2C8BA"/>
<stop offset="1" stop-color="#84AA9C"/>
</linearGradient>
<linearGradient id="paint7_linear" x1="10405.2" y1="6057.42" x2="9891.29" y2="5317.14" gradientUnits="userSpaceOnUse">
<stop stop-color="#B1D7C9"/>
<stop offset="1" stop-color="#94BCAD"/>
</linearGradient>
<linearGradient id="paint8_linear" x1="10366.9" y1="6177.84" x2="9839.47" y2="5433.14" gradientUnits="userSpaceOnUse">
<stop stop-color="#A2C8BA"/>
<stop offset="1" stop-color="#84AA9C"/>
</linearGradient>
<linearGradient id="paint9_linear" x1="122.866" y1="177.09" x2="126.663" y2="170.447" gradientUnits="userSpaceOnUse">
<stop stop-color="#8EC7B2"/>
<stop offset="0.32" stop-color="#86DABB"/>
<stop offset="1" stop-color="#9CEFD0"/>
</linearGradient>
<linearGradient id="paint10_linear" x1="123.417" y1="168.786" x2="139" y2="142.176" gradientUnits="userSpaceOnUse">
<stop stop-color="#A3F2D5"/>
<stop offset="0.78" stop-color="#F2FFFB"/>
<stop offset="1" stop-color="#E2FFF6"/>
</linearGradient>
<linearGradient id="paint11_linear" x1="191.338" y1="26.4172" x2="188.007" y2="32.1112" gradientUnits="userSpaceOnUse">
<stop stop-color="#AAC8BD"/>
<stop offset="1" stop-color="#B1D7CA"/>
</linearGradient>
<linearGradient id="paint12_linear" x1="177.083" y1="65.9736" x2="136.741" y2="136.693" gradientUnits="userSpaceOnUse">
<stop stop-color="#E9FFF7"/>
<stop offset="0.91" stop-color="#D2FFEF"/>
<stop offset="1" stop-color="#CDFCEB"/>
</linearGradient>
<linearGradient id="paint13_linear" x1="191.422" y1="101.182" x2="123.075" y2="101.182" gradientUnits="userSpaceOnUse">
<stop offset="0.84" stop-color="white" stop-opacity="0"/>
<stop offset="1" stop-color="#CDFCEB" stop-opacity="0.74"/>
</linearGradient>
<linearGradient id="paint14_linear" x1="191.964" y1="46.2777" x2="191.964" y2="194.369" gradientUnits="userSpaceOnUse">
<stop stop-color="#CDF2E5"/>
<stop offset="1" stop-color="#ADD1C4"/>
</linearGradient>
<linearGradient id="paint15_linear" x1="181.629" y1="18.2377" x2="159.441" y2="54.7269" gradientUnits="userSpaceOnUse">
<stop stop-color="#EFFFF9"/>
<stop offset="0.11" stop-color="#FBFFFD"/>
<stop offset="0.68" stop-color="#E9FFF7"/>
</linearGradient>
<radialGradient id="paint16_radial" cx="0" cy="0" r="1" gradientUnits="userSpaceOnUse" gradientTransform="translate(206.166 65.3534) rotate(-145.179) scale(92.9563 65.3805)">
<stop offset="0.81" stop-color="white" stop-opacity="0"/>
<stop offset="1" stop-color="#CDFCEB"/>
</radialGradient>
<linearGradient id="paint17_linear" x1="178.441" y1="84.4956" x2="134.806" y2="57.6103" gradientUnits="userSpaceOnUse">
<stop stop-color="#29B7AF"/>
<stop offset="1" stop-color="#63E0B6"/>
</linearGradient>
<linearGradient id="paint18_linear" x1="10075.8" y1="5811.58" x2="8638.57" y2="7328.1" gradientUnits="userSpaceOnUse">
<stop stop-color="#29B7AF"/>
<stop offset="1" stop-color="#63E0B6"/>
</linearGradient>
<linearGradient id="paint19_linear" x1="10099.7" y1="5591.4" x2="8662.72" y2="7107.91" gradientUnits="userSpaceOnUse">
<stop stop-color="#29B7AF"/>
<stop offset="1" stop-color="#63E0B6"/>
</linearGradient>
<linearGradient id="paint20_linear" x1="10099.7" y1="5381.07" x2="8663" y2="6897.56" gradientUnits="userSpaceOnUse">
<stop stop-color="#29B7AF"/>
<stop offset="1" stop-color="#63E0B6"/>
</linearGradient>
<linearGradient id="paint21_linear" x1="10095.4" y1="5167.18" x2="8659.88" y2="6683.74" gradientUnits="userSpaceOnUse">
<stop stop-color="#29B7AF"/>
<stop offset="1" stop-color="#63E0B6"/>
</linearGradient>
<linearGradient id="paint22_linear" x1="8750.26" y1="4257.36" x2="7415.25" y2="5607.6" gradientUnits="userSpaceOnUse">
<stop stop-color="#29B7AF"/>
<stop offset="1" stop-color="#63E0B6"/>
</linearGradient>
<linearGradient id="paint23_linear" x1="7296.58" y1="3428.71" x2="6175.28" y2="4569.51" gradientUnits="userSpaceOnUse">
<stop stop-color="#29B7AF"/>
<stop offset="1" stop-color="#63E0B6"/>
</linearGradient>
<linearGradient id="paint24_linear" x1="97.7943" y1="220.222" x2="157.335" y2="220.222" gradientUnits="userSpaceOnUse">
<stop stop-color="#1DBAB1"/>
<stop offset="1" stop-color="#8FD3D2"/>
</linearGradient>
<linearGradient id="paint25_linear" x1="4198.53" y1="7024.47" x2="9315.52" y2="7024.47" gradientUnits="userSpaceOnUse">
<stop stop-color="#1DBAB1"/>
<stop offset="1" stop-color="#8FD3D2"/>
</linearGradient>
<linearGradient id="paint26_linear" x1="4198.28" y1="9879.35" x2="9343.12" y2="9879.35" gradientUnits="userSpaceOnUse">
<stop stop-color="#A3F2D5"/>
<stop offset="0.78" stop-color="#F2FFFB"/>
<stop offset="1" stop-color="#E2FFF6"/>
</linearGradient>
<linearGradient id="paint27_linear" x1="3938.75" y1="5046.5" x2="7779.82" y2="5046.5" gradientUnits="userSpaceOnUse">
<stop stop-color="#1DBAB1"/>
<stop offset="1" stop-color="#8FD3D2"/>
</linearGradient>
</defs>
</svg>
