<svg width="165" height="292" viewBox="0 0 165 292" fill="none" xmlns="http://www.w3.org/2000/svg">
<path d="M86.1812 291.399C131.681 287.699 166.881 263.999 164.881 238.499C162.781 212.899 124.281 195.199 78.7812 198.899C33.2812 202.599 -1.91882 226.299 0.0811755 251.799C2.08118 277.299 40.6812 295.099 86.1812 291.399Z" fill="url(#paint0_radial)"/>
<path d="M108.84 221.449C111.665 220.935 113.795 219.637 113.598 218.55C113.4 217.464 110.949 217 108.124 217.514C105.298 218.028 103.168 219.326 103.366 220.413C103.564 221.5 106.015 221.964 108.84 221.449Z" fill="#1DBAB1"/>
<path d="M115.481 229C114.081 233.3 107.381 233.3 105.281 230.9L103.381 220.4C103.781 222.6 114.081 221.3 113.581 218.4L115.481 229Z" fill="#429B91"/>
<path d="M111.481 219.201L105.581 188.601L108.281 189.701L110.081 189.401L97.8807 123.401L103.781 101.101L87.6807 18.3008L83.1807 19.2008L99.1807 100.901L93.2807 123.201L104.381 183.701L100.981 182.801L89.6807 122.101L73.0807 93.3008L57.5807 17.2008L52.6807 16.3008L68.7807 94.6008V94.9008L85.3807 123.601L97.0807 186.501L100.781 187.401L107.081 220.101L111.481 219.201Z" fill="#429B91"/>
<path d="M66.6807 70.3008V76.2008L94.7807 86.5008L93.2807 79.7008L66.6807 70.3008Z" fill="url(#paint1_linear)"/>
<path d="M68.0807 69.1992L92.8807 77.8992L93.2807 79.7992L66.6807 70.2992L68.0807 69.1992Z" fill="#429B91"/>
<path d="M109.981 219.501L103.781 188.601L108.281 189.701L96.0809 123.401L101.981 101.101L85.8809 18.3008L81.3809 19.2008L97.3809 100.901L91.4809 123.201L102.581 183.701L99.1809 182.801L87.8809 122.101L71.2809 93.3008L55.7809 17.2008L50.8809 16.3008L66.9809 94.6008V94.9008L83.5809 123.601L95.2809 186.501L98.9809 187.401L105.581 220.401L109.981 219.501Z" fill="url(#paint2_linear)"/>
<path d="M55.6812 2.09961L50.2812 5.89961L81.6812 16.5996L87.5813 11.0996L55.6812 2.09961Z" fill="url(#paint3_linear)"/>
<path d="M87.4807 11.0996L88.5807 18.4996L82.2807 23.2996L81.6807 16.4996L87.4807 11.0996Z" fill="#429B91"/>
<path d="M72.0805 13.0996L81.6805 16.5996L82.2805 23.2996L71.9805 19.8996L72.0805 13.0996Z" fill="url(#paint4_linear)"/>
<path d="M57.5809 225.199C60.4528 225.199 62.7809 224.304 62.7809 223.199C62.7809 222.095 60.4528 221.199 57.5809 221.199C54.709 221.199 52.3809 222.095 52.3809 223.199C52.3809 224.304 54.709 225.199 57.5809 225.199Z" fill="#1DBAB1"/>
<path d="M70.9812 23.2008V102.301L60.1812 123.901V185.201L56.9812 183.701V122.301L46.1812 86.7008L45.7812 11.0008L41.2812 8.80078L41.6812 87.1008V87.4008L52.4812 122.901V186.601L56.0813 188.301V220.701L58.9812 224.401L60.5813 222.901V190.801L63.0813 193.701L64.6812 192.701V126.701L75.4812 105.101V21.4008L70.9812 23.2008Z" fill="#429B91"/>
<path d="M69.3812 24.7008V103.801L58.5813 125.401V186.701L55.4812 185.201V123.801L44.6812 88.2008L44.2812 12.5008L39.7812 10.3008L40.1812 88.6008V88.9008L50.9812 124.401V188.101L54.5813 189.801V222.201L59.0813 224.401V191.901L63.0813 193.801V126.401L73.8812 104.801V22.9008L69.3812 24.7008Z" fill="url(#paint5_linear)"/>
<path d="M38.8809 3.5V11.4L69.3809 25.6V18L38.8809 3.5Z" fill="url(#paint6_linear)"/>
<path d="M69.3809 17.9996L76.4809 14.0996V21.7996L69.3809 25.5996V17.9996Z" fill="#429B91"/>
<path d="M45.8809 0L76.4809 14.1L69.3809 18L38.8809 3.5L45.8809 0Z" fill="url(#paint7_linear)"/>
<path d="M44.5811 65.5V71.4L69.381 81.7V75.3L44.5811 65.5Z" fill="url(#paint8_linear)"/>
<path d="M46.0811 64.4004L69.481 73.5004V75.4004L44.5811 65.5004L46.0811 64.4004Z" fill="#429B91"/>
<path d="M62.8805 233.8C60.7805 237.8 54.1805 236.6 52.4805 233.8V223.1C52.4805 225.3 62.8805 225.9 62.8805 223V233.8Z" fill="#429B91"/>
<defs>
<radialGradient id="paint0_radial" cx="0" cy="0" r="1" gradientUnits="userSpaceOnUse" gradientTransform="translate(84.5 242.5) rotate(-6.75358) scale(76.531 34.1858)">
<stop stop-color="#3CCFC7" stop-opacity="0.42"/>
<stop offset="0.8286" stop-color="#4EBDB4" stop-opacity="0.0625"/>
<stop offset="0.9119" stop-color="#4FBBB2" stop-opacity="0.02375"/>
<stop offset="1" stop-color="#50BAB1" stop-opacity="0"/>
</radialGradient>
<linearGradient id="paint1_linear" x1="66.6329" y1="78.436" x2="94.74" y2="78.436" gradientUnits="userSpaceOnUse">
<stop stop-color="#1DBAB1"/>
<stop offset="1" stop-color="#8FD3D2"/>
</linearGradient>
<linearGradient id="paint2_linear" x1="82.7903" y1="114.738" x2="97.0838" y2="240.878" gradientUnits="userSpaceOnUse">
<stop stop-color="#87EAD3"/>
<stop offset="0.5083" stop-color="#A3F2D5"/>
<stop offset="1" stop-color="#E2FFF6"/>
</linearGradient>
<linearGradient id="paint3_linear" x1="50.3206" y1="9.36391" x2="87.6181" y2="9.36391" gradientUnits="userSpaceOnUse">
<stop stop-color="#3CCFC7"/>
<stop offset="1" stop-color="#6AF0C8"/>
</linearGradient>
<linearGradient id="paint4_linear" x1="71.9458" y1="18.2192" x2="82.285" y2="18.2192" gradientUnits="userSpaceOnUse">
<stop stop-color="#1DBAB1"/>
<stop offset="1" stop-color="#8FD3D2"/>
</linearGradient>
<linearGradient id="paint5_linear" x1="63.3975" y1="114.755" x2="79.7475" y2="263.217" gradientUnits="userSpaceOnUse">
<stop stop-color="#87EAD3"/>
<stop offset="0.5083" stop-color="#A3F2D5"/>
<stop offset="1" stop-color="#E2FFF6"/>
</linearGradient>
<linearGradient id="paint6_linear" x1="38.8323" y1="14.5483" x2="69.4285" y2="14.5483" gradientUnits="userSpaceOnUse">
<stop stop-color="#1DBAB1"/>
<stop offset="1" stop-color="#8FD3D2"/>
</linearGradient>
<linearGradient id="paint7_linear" x1="38.8323" y1="9.0293" x2="76.5127" y2="9.0293" gradientUnits="userSpaceOnUse">
<stop stop-color="#3CCFC7"/>
<stop offset="1" stop-color="#6AF0C8"/>
</linearGradient>
<linearGradient id="paint8_linear" x1="44.5669" y1="73.633" x2="69.4286" y2="73.633" gradientUnits="userSpaceOnUse">
<stop stop-color="#1DBAB1"/>
<stop offset="1" stop-color="#8FD3D2"/>
</linearGradient>
</defs>
</svg>
