<svg width="800" height="800" viewBox="0 0 800 800" fill="none" xmlns="http://www.w3.org/2000/svg">
<path d="M682.843 117.157C526.633 -39.0524 273.367 -39.0524 117.157 117.157C-39.0524 273.367 -39.0524 526.633 117.157 682.843C273.367 839.052 526.633 839.052 682.843 682.843C839.052 526.633 839.052 273.367 682.843 117.157Z" fill="url(#paint0_radial)"/>
<path d="M682.843 117.157C526.633 -39.0524 273.367 -39.0524 117.157 117.157C-39.0524 273.367 -39.0524 526.633 117.157 682.843C273.367 839.052 526.633 839.052 682.843 682.843C839.052 526.633 839.052 273.367 682.843 117.157Z" fill="url(#paint1_radial)" fill-opacity="0.64"/>
<defs>
<radialGradient id="paint0_radial" cx="0" cy="0" r="1" gradientUnits="userSpaceOnUse" gradientTransform="translate(588.577 588.941) rotate(-134.956) scale(666.946 533.209)">
<stop stop-color="white"/>
<stop offset="0.884675" stop-color="#FEFEFE" stop-opacity="0"/>
</radialGradient>
<radialGradient id="paint1_radial" cx="0" cy="0" r="1" gradientUnits="userSpaceOnUse" gradientTransform="translate(588.577 588.941) rotate(-134.956) scale(666.946 533.209)">
<stop stop-color="#1DBAB1"/>
<stop offset="0.884675" stop-color="#1DBAB1" stop-opacity="0"/>
</radialGradient>
</defs>
</svg>
