<svg width="96" height="96" viewBox="0 0 96 96" fill="none" xmlns="http://www.w3.org/2000/svg">
<rect width="96" height="96" rx="48" fill="url(#paint0_radial)"/>
<rect width="96" height="96" rx="48" fill="url(#paint1_radial)"/>
<circle cx="48.382" cy="38.0383" r="9.84778" stroke="#80E150" stroke-width="2.28571" stroke-linecap="round" stroke-linejoin="round"/>
<path fill-rule="evenodd" clip-rule="evenodd" d="M32.7618 61.5822C32.7591 60.89 32.9139 60.2061 33.2145 59.5825C34.1578 57.696 36.8178 56.6961 39.0251 56.2433C40.617 55.9036 42.2308 55.6767 43.8547 55.5642C46.8611 55.3001 49.8848 55.3001 52.8912 55.5642C54.5149 55.678 56.1287 55.9049 57.7208 56.2433C59.928 56.6961 62.5881 57.6016 63.5313 59.5825C64.1358 60.8537 64.1358 62.3296 63.5313 63.6008C62.5881 65.5817 59.928 66.4873 57.7208 66.9212C56.1308 67.2749 54.5163 67.5083 52.8912 67.6192C50.4442 67.8266 47.9859 67.8645 45.5337 67.7324C44.9677 67.7324 44.4206 67.7324 43.8547 67.6192C42.2356 67.5096 40.6274 67.2763 39.044 66.9212C36.8178 66.4873 34.1767 65.5817 33.2145 63.6008C32.9155 62.97 32.7608 62.2804 32.7618 61.5822Z" stroke="#80E150" stroke-width="2.28571" stroke-linecap="round" stroke-linejoin="round"/>
<defs>
<radialGradient id="paint0_radial" cx="0" cy="0" r="1" gradientUnits="userSpaceOnUse" gradientTransform="translate(-4.77144e-06 96) rotate(-45) scale(135.765 90.6552)">
<stop offset="0.263029" stop-color="white" stop-opacity="0.24"/>
<stop offset="0.810988" stop-color="white" stop-opacity="0"/>
</radialGradient>
<radialGradient id="paint1_radial" cx="0" cy="0" r="1" gradientUnits="userSpaceOnUse" gradientTransform="translate(-4.77144e-06 96) rotate(-45) scale(135.765 90.6552)">
<stop offset="0.263029" stop-color="#7CFF50" stop-opacity="0.24"/>
<stop offset="0.810988" stop-color="#7DFF50" stop-opacity="0"/>
</radialGradient>
</defs>
</svg>
