<svg width="96" height="96" viewBox="0 0 96 96" fill="none" xmlns="http://www.w3.org/2000/svg">
<rect width="96" height="96" rx="48" fill="url(#paint0_radial)"/>
<rect width="96" height="96" rx="48" fill="url(#paint1_radial)"/>
<path d="M63.8561 41.7523C65.2455 43.8856 66.1717 46.3237 66.1717 48.7618C66.1717 53.1808 64.0105 56.838 60.4599 59.2761C60.1512 59.4285 59.9968 59.7332 59.9968 60.038L58.9162 65.8285C58.7618 66.2856 58.2987 66.7428 57.8356 66.7428H53.9763C53.3588 66.7428 52.8957 66.2856 52.8957 65.8285L52.4326 63.8475C52.2782 63.238 51.8151 62.9332 51.1976 62.9332C49.9626 63.0856 48.7276 63.238 47.3382 63.238C46.412 63.238 45.4858 63.238 44.7139 63.0856C44.0964 63.0856 43.6333 63.3904 43.4789 63.9999L43.1702 65.9808C43.0158 66.438 42.5527 66.8951 42.0896 66.8951H38.2302C37.6128 66.8951 37.1496 66.438 37.1496 65.9808L36.069 60.9523C36.069 60.6475 35.7603 60.3428 35.4515 60.1904C33.4447 59.1237 31.901 57.5999 30.666 55.9237C30.5116 55.6189 30.2029 55.4666 30.0485 55.4666L25.726 54.3999C25.2629 54.2475 24.7998 53.7904 24.7998 53.3332V47.5428C24.7998 47.0856 25.2629 46.4761 25.726 46.4761L28.0416 46.0189C28.5048 45.8666 28.8135 45.5618 28.9679 45.1047C29.431 43.2761 30.5116 41.4475 31.5922 39.9237" stroke="#FFC757" stroke-width="2.28571" stroke-miterlimit="10" stroke-linecap="round" stroke-linejoin="round"/>
<path d="M60.7688 38.2474C58.9163 36.7236 56.7551 35.657 54.2852 35.1998" stroke="#FFC757" stroke-width="2.28571" stroke-miterlimit="10" stroke-linecap="round" stroke-linejoin="round"/>
<path d="M39.7744 35.2C41.0094 34.8952 42.5531 34.7428 44.0969 34.5905" stroke="#FFC757" stroke-width="2.28571" stroke-miterlimit="10" stroke-linecap="round" stroke-linejoin="round"/>
<path d="M40.2373 37.181C40.2373 37.3334 40.2373 37.4857 40.2373 37.6381C40.0829 38.7048 39.6198 39.7715 38.8479 40.381C37.9217 41.2953 36.8411 41.7524 35.4517 41.7524C34.6799 41.7524 33.7536 41.6 33.1361 41.1429C32.5186 40.8381 31.9011 40.2286 31.438 39.6191C31.1293 39.1619 30.9749 38.7048 30.8205 38.2477C30.8205 38.0953 30.6662 37.9429 30.6662 37.7905L29.8943 32.7619C29.7399 32.1524 30.3574 31.6953 30.8205 31.8476L35.9148 32.6096C36.9954 32.7619 37.9217 33.2191 38.6935 33.981C39.0023 34.2857 39.311 34.7429 39.6198 35.2C39.9285 35.8096 40.2373 36.4191 40.2373 37.181Z" stroke="#FFC757" stroke-width="2.28571" stroke-miterlimit="10" stroke-linecap="round" stroke-linejoin="round"/>
<path d="M36.996 48.1523C36.996 47.238 36.2241 46.3237 35.1435 46.3237C34.2173 46.3237 33.291 47.0856 33.291 48.1523" stroke="#FFC757" stroke-width="2.28571" stroke-miterlimit="10" stroke-linecap="round" stroke-linejoin="round"/>
<path d="M68.0244 41.4475C68.1787 38.2475 73.7361 39.0094 72.038 44.4951C71.2662 46.9332 68.6418 48.3047 66.1719 47.5428" stroke="#FFC757" stroke-width="2.28571" stroke-miterlimit="10" stroke-linecap="round" stroke-linejoin="round"/>
<path d="M43.7881 38.3999H54.9029" stroke="#FFC757" stroke-width="2.28571" stroke-miterlimit="10" stroke-linecap="round" stroke-linejoin="round"/>
<path d="M55.2109 31.9999C55.2109 33.219 54.9021 34.1333 54.2846 35.0476C53.204 36.7238 51.3515 37.7904 49.3447 37.7904C47.0291 37.7904 45.0222 36.419 44.096 34.438C43.7873 33.6761 43.4785 32.7619 43.4785 31.9999C43.4785 28.7999 46.1029 26.2095 49.3447 26.2095C52.5865 26.2095 55.2109 28.7999 55.2109 31.9999Z" stroke="#FFC757" stroke-width="2.28571" stroke-miterlimit="10" stroke-linecap="round" stroke-linejoin="round"/>
<defs>
<radialGradient id="paint0_radial" cx="0" cy="0" r="1" gradientUnits="userSpaceOnUse" gradientTransform="translate(-4.77144e-06 96) rotate(-45) scale(135.765 90.6552)">
<stop offset="0.263029" stop-color="white" stop-opacity="0.24"/>
<stop offset="0.810988" stop-color="white" stop-opacity="0"/>
</radialGradient>
<radialGradient id="paint1_radial" cx="0" cy="0" r="1" gradientUnits="userSpaceOnUse" gradientTransform="translate(-4.77144e-06 96) rotate(-45) scale(135.765 90.6552)">
<stop offset="0.263029" stop-color="#FFE450" stop-opacity="0.24"/>
<stop offset="0.810988" stop-color="#FFE450" stop-opacity="0"/>
</radialGradient>
</defs>
</svg>
