<svg width="96" height="96" viewBox="0 0 96 96" fill="none" xmlns="http://www.w3.org/2000/svg">
<rect width="96" height="96" rx="48" fill="url(#paint0_radial)"/>
<rect width="96" height="96" rx="48" fill="url(#paint1_radial)"/>
<path d="M56.633 55.8886C57.0795 57.2281 56.9307 58.27 56.3353 58.8653C54.5493 60.6514 48.8935 57.6746 43.5353 52.4653C38.1772 47.256 35.3493 41.4514 37.1353 39.6653C37.7307 39.07 38.7725 39.07 40.1121 39.3676" stroke="#3CCFC7" stroke-width="2.28571" stroke-miterlimit="10" stroke-linecap="round" stroke-linejoin="round"/>
<path d="M34.4559 45.7678C32.6699 47.5539 35.6466 53.2097 40.8559 58.5678C42.3443 60.0562 43.8327 61.2469 45.1722 62.2888" stroke="#3CCFC7" stroke-width="2.28571" stroke-miterlimit="10" stroke-linecap="round" stroke-linejoin="round"/>
<path d="M32.3721 53.0605C30.7349 54.6978 32.8683 59.5492 37.3334 64.6096" stroke="#3CCFC7" stroke-width="2.28571" stroke-miterlimit="10" stroke-linecap="round" stroke-linejoin="round"/>
<path d="M55.4417 59.312L28.7998 67.2004L30.8835 60.6515" stroke="#3CCFC7" stroke-width="2.28571" stroke-miterlimit="10" stroke-linecap="round" stroke-linejoin="round"/>
<path d="M49.3398 50.2328C50.5305 49.6374 51.2747 50.8281 52.4654 50.2328C53.6561 49.6374 52.9119 48.2979 54.2515 47.5537C55.4422 46.9583 56.1864 48.149 57.3771 47.5537C58.5678 46.9583 57.8236 45.6188 59.1631 44.8746C60.3538 44.2793 61.098 45.47 62.2887 44.8746C63.4794 44.2793 62.7352 42.9397 64.0747 42.1955C65.2654 41.6002 66.0096 42.7909 67.2003 42.1955" stroke="#3CCFC7" stroke-width="2.28571" stroke-miterlimit="10" stroke-linecap="round" stroke-linejoin="round"/>
<path d="M44.5771 43.237C45.3213 42.0463 46.512 42.7905 47.2562 41.5998C48.0004 40.4091 46.6609 39.6649 47.4051 38.4742C48.1492 37.2835 49.3399 38.0277 50.0841 36.837C50.8283 35.6463 49.4888 34.9021 50.233 33.7114" stroke="#3CCFC7" stroke-width="2.28571" stroke-miterlimit="10" stroke-linecap="round" stroke-linejoin="round"/>
<path d="M42.791 31.1815L46.6608 30.1396" stroke="#3CCFC7" stroke-width="2.28571" stroke-miterlimit="10" stroke-linecap="round" stroke-linejoin="round"/>
<path d="M45.3212 32.521L44.2793 28.8" stroke="#3CCFC7" stroke-width="2.28571" stroke-miterlimit="10" stroke-linecap="round" stroke-linejoin="round"/>
<path d="M64.9688 54.8466C65.7908 54.8466 66.4572 54.1803 66.4572 53.3582C66.4572 52.5362 65.7908 51.8699 64.9688 51.8699C64.1468 51.8699 63.4805 52.5362 63.4805 53.3582C63.4805 54.1803 64.1468 54.8466 64.9688 54.8466Z" stroke="#3CCFC7" stroke-width="2.28571" stroke-miterlimit="10" stroke-linecap="round" stroke-linejoin="round"/>
<path d="M58.9247 34.9384L56.2969 36.3369L57.6953 38.9648L60.3232 37.5663L58.9247 34.9384Z" stroke="#3CCFC7" stroke-width="2.28571" stroke-miterlimit="10" stroke-linecap="round" stroke-linejoin="round"/>
<defs>
<radialGradient id="paint0_radial" cx="0" cy="0" r="1" gradientUnits="userSpaceOnUse" gradientTransform="translate(-4.77144e-06 96) rotate(-45) scale(135.765 90.6552)">
<stop offset="0.263029" stop-color="white" stop-opacity="0.24"/>
<stop offset="0.810988" stop-color="white" stop-opacity="0"/>
</radialGradient>
<radialGradient id="paint1_radial" cx="0" cy="0" r="1" gradientUnits="userSpaceOnUse" gradientTransform="translate(-4.77144e-06 96) rotate(-45) scale(135.765 90.6552)">
<stop offset="0.263029" stop-color="#50FFF5" stop-opacity="0.24"/>
<stop offset="0.810988" stop-color="#50FFF5" stop-opacity="0"/>
</radialGradient>
</defs>
</svg>
