<svg width="256" height="256" viewBox="0 0 256 256" fill="none" xmlns="http://www.w3.org/2000/svg">
<path d="M130.765 235.039C158.15 222.295 174.595 199.385 167.5 183.868C160.406 168.351 132.446 166.105 105.061 178.849C77.6764 191.592 61.2314 214.503 68.3316 230.015C75.4318 245.526 103.359 247.782 130.765 235.039Z" fill="url(#paint0_radial)"/>
<path d="M95.4444 83.61L139.849 57.6679C142.025 56.4107 149.324 58.2627 149.324 61.5072L143.194 182.106C143.193 183.448 142.875 184.77 142.266 185.963C141.657 187.155 140.776 188.183 139.695 188.96L101.047 220.897C98.3757 222.08 91.458 219.897 91.458 216.842L91.5648 90.3692C91.5627 88.9958 91.9207 87.6465 92.6023 86.459C93.2839 85.2714 94.2647 84.2883 95.4444 83.61Z" fill="url(#paint1_linear)"/>
<path d="M142.693 63.4211L102.168 87.3218C101.082 87.9929 100.186 88.9381 99.5695 90.065C98.9527 91.1919 98.6356 92.4617 98.6495 93.7499V213.639C98.6277 214.277 98.7823 214.909 99.096 215.464C99.4096 216.018 99.8699 216.473 100.425 216.777C100.98 217.081 101.608 217.223 102.238 217.185C102.868 217.148 103.475 216.933 103.991 216.566L143.955 193.111C144.95 192.351 145.756 191.366 146.309 190.235C146.862 189.103 147.147 187.857 147.14 186.595V66.1518C147.16 65.6155 147.037 65.0837 146.785 64.6113C146.534 64.139 146.162 63.7432 145.709 63.4648C145.255 63.1865 144.737 63.0357 144.207 63.028C143.677 63.0203 143.154 63.156 142.693 63.4211Z" fill="url(#paint2_linear)"/>
<path d="M142.693 63.4211L102.168 87.3218C101.082 87.9929 100.186 88.9381 99.5695 90.065C98.9527 91.1919 98.6356 92.4617 98.6495 93.7499V213.639C98.6277 214.277 98.7823 214.909 99.096 215.464C99.4096 216.018 99.8699 216.473 100.425 216.777C100.98 217.081 101.608 217.223 102.238 217.185C102.868 217.148 103.475 216.933 103.991 216.566L143.955 193.111C144.95 192.351 145.756 191.366 146.309 190.235C146.862 189.103 147.147 187.857 147.14 186.595V66.1518C147.16 65.6155 147.037 65.0837 146.785 64.6113C146.534 64.139 146.162 63.7432 145.709 63.4648C145.255 63.1865 144.737 63.0357 144.207 63.028C143.677 63.0203 143.154 63.156 142.693 63.4211Z" fill="url(#paint3_linear)"/>
<path d="M144.63 59.3986L100.139 85.0838C98.9619 85.7644 97.9842 86.7484 97.3051 87.9356C96.626 89.1229 96.2697 90.4711 96.2725 91.843V217.356C96.2728 218.049 96.4612 218.728 96.8172 219.32C97.1731 219.911 97.6829 220.392 98.2909 220.711C98.8988 221.029 99.5814 221.172 100.264 221.124C100.947 221.075 101.603 220.838 102.162 220.438L146.019 194.077C147.099 193.301 147.98 192.274 148.589 191.083C149.198 189.892 149.516 188.571 149.517 187.23V62.2713C149.516 61.6925 149.365 61.1241 149.079 60.6228C148.794 60.1216 148.383 59.7048 147.888 59.4142C147.394 59.1236 146.833 58.9692 146.261 58.9665C145.689 58.9638 145.127 59.1127 144.63 59.3986ZM147.14 186.574C147.147 187.836 146.862 189.082 146.309 190.214C145.756 191.345 144.95 192.33 143.955 193.09L104.011 216.565C103.495 216.933 102.888 217.147 102.258 217.184C101.628 217.222 101 217.08 100.445 216.776C99.89 216.472 99.4298 216.017 99.1162 215.463C98.8025 214.909 98.6479 214.277 98.6696 213.638V93.7492C98.6581 92.4632 98.9762 91.1962 99.593 90.0719C100.21 88.9476 101.104 88.0045 102.189 87.3346L117.132 78.5476V81.5825C117.133 81.844 117.202 82.1007 117.334 82.3256C117.466 82.5506 117.655 82.7356 117.881 82.8613C118.108 82.987 118.364 83.0488 118.622 83.0403C118.88 83.0317 119.131 82.9531 119.349 82.8127L129.305 76.4928C129.743 76.2071 130.103 75.8149 130.353 75.3521C130.602 74.8892 130.734 74.3705 130.734 73.8431V70.4635L142.713 63.4001C143.172 63.1363 143.692 63.0008 144.22 63.0074C144.748 63.0139 145.264 63.1624 145.717 63.4374C146.169 63.7125 146.541 64.1044 146.795 64.5729C147.049 65.0414 147.175 65.5697 147.16 66.1038L147.14 186.574Z" fill="url(#paint4_linear)"/>
<path d="M94.4425 99.8528H92.8867V110.539H94.4425V99.8528Z" fill="#77C9BA"/>
<path d="M94.4425 113.749H92.8867V124.436H94.4425V113.749Z" fill="#77C9BA"/>
<path d="M119.943 78.1625V79.1291L127.382 74.7356V73.8163L119.943 78.1625Z" fill="#2EA092"/>
<path d="M112.679 175.624L136.163 160.981C139.044 159.185 140.737 155.876 139.705 152.643C137.967 147.201 133.801 140.512 124.237 147.303C114.379 154.302 110.426 166.237 108.897 173.273C108.411 175.508 110.808 176.941 112.679 175.624Z" fill="#1DBAB1"/>
<path d="M130.355 136.92C133.542 130.855 133.56 124.558 130.395 122.854C127.23 121.15 122.082 124.684 118.895 130.749C115.708 136.813 115.69 143.11 118.855 144.814C122.02 146.518 127.169 142.984 130.355 136.92Z" fill="#1DBAB1"/>
<path d="M109.814 112.77H105.761L63.4404 137.752H67.4268L109.814 112.77Z" fill="#77C9BA"/>
<path d="M63.5205 137.751V174.86H67.5269V137.751C67.5269 137.751 63.5205 137.718 63.5205 137.751Z" fill="url(#paint5_linear)"/>
<path d="M101.781 162.025L97.3209 161.234L91.752 158.963L94.9237 156.996L101.781 162.025Z" fill="#2EA092"/>
<path d="M109.794 112.762L67.4268 137.684V174.934L94.2162 159.178L101.795 162.044V154.082L109.794 149.357V112.762Z" fill="url(#paint6_linear)"/>
<path d="M83.1852 149.11C84.3112 146.904 84.4006 144.686 83.385 144.155C82.3694 143.623 80.6333 144.98 79.5074 147.186C78.3815 149.391 78.2921 151.61 79.3077 152.141C80.3233 152.672 82.0593 151.315 83.1852 149.11Z" fill="white"/>
<path d="M90.7858 144.471C91.9117 142.265 92.0012 140.047 90.9856 139.515C89.97 138.984 88.2339 140.341 87.108 142.547C85.9821 144.752 85.8926 146.97 86.9082 147.502C87.9238 148.033 89.6599 146.676 90.7858 144.471Z" fill="white"/>
<path d="M98.3864 140.087C99.5124 137.882 99.6018 135.664 98.5862 135.132C97.5706 134.601 95.8345 135.958 94.7086 138.163C93.5827 140.369 93.4932 142.587 94.5088 143.119C95.5244 143.65 97.2605 142.293 98.3864 140.087Z" fill="white"/>
<path d="M133.059 75.7446V111.9H137.065V75.7446H133.059Z" fill="url(#paint7_linear)"/>
<path d="M140.023 106.64V115.826H144.03V106.64C144.03 106.64 140.023 106.627 140.023 106.64Z" fill="#2EA092"/>
<path d="M178.498 51.5119H174.438L133.059 75.7776H137.038L178.498 51.5119Z" fill="#77C9BA"/>
<path d="M178.464 51.4985L137.005 75.7643V111.96L144.003 107.844V115.826L153.698 102.139L178.464 87.566V51.4985Z" fill="url(#paint8_linear)"/>
<path d="M151.199 88.1638C152.577 85.4643 152.685 82.7479 151.44 82.0966C150.195 81.4453 148.069 83.1058 146.691 85.8053C145.313 88.5048 145.205 91.2211 146.449 91.8724C147.694 92.5237 149.821 90.8633 151.199 88.1638Z" fill="white"/>
<path d="M160.507 82.8101C161.885 80.1106 161.993 77.3943 160.748 76.743C159.503 76.0917 157.377 77.7521 155.998 80.4516C154.62 83.1511 154.512 85.8675 155.757 86.5188C157.002 87.17 159.128 85.5096 160.507 82.8101Z" fill="white"/>
<path d="M169.808 77.4535C171.187 74.754 171.295 72.0376 170.05 71.3864C168.805 70.7351 166.678 72.3955 165.3 75.095C163.922 77.7945 163.814 80.5108 165.059 81.1621C166.304 81.8134 168.43 80.153 169.808 77.4535Z" fill="white"/>
<defs>
<radialGradient id="paint0_radial" cx="0" cy="0" r="1" gradientUnits="userSpaceOnUse" gradientTransform="translate(120.335 205.377) rotate(-30.6132) scale(51.2758 27.891)">
<stop offset="0.27" stop-color="#3CCFC7" stop-opacity="0.42"/>
<stop offset="0.83" stop-color="#4EBDB4" stop-opacity="0.06"/>
<stop offset="0.91" stop-color="#4FBBB2" stop-opacity="0.02"/>
<stop offset="1" stop-color="#50BAB1" stop-opacity="0"/>
</radialGradient>
<linearGradient id="paint1_linear" x1="91.458" y1="139.252" x2="149.324" y2="139.252" gradientUnits="userSpaceOnUse">
<stop stop-color="#378B7A"/>
<stop offset="0.73" stop-color="#1DBAB1"/>
</linearGradient>
<linearGradient id="paint2_linear" x1="96.2723" y1="140.118" x2="149.517" y2="140.118" gradientUnits="userSpaceOnUse">
<stop stop-color="#3CCFC7"/>
<stop offset="1" stop-color="#6AF0C8"/>
</linearGradient>
<linearGradient id="paint3_linear" x1="123.997" y1="212.132" x2="121.479" y2="50.7687" gradientUnits="userSpaceOnUse">
<stop stop-color="#87EAD3"/>
<stop offset="0.34" stop-color="#A3F2D5"/>
<stop offset="1" stop-color="#E2FFF6"/>
</linearGradient>
<linearGradient id="paint4_linear" x1="7766.22" y1="41888.1" x2="23831.6" y2="22699.1" gradientUnits="userSpaceOnUse">
<stop stop-color="#3CCFC7"/>
<stop offset="1" stop-color="#6AF0C8"/>
</linearGradient>
<linearGradient id="paint5_linear" x1="387.958" y1="7136.97" x2="460.955" y2="7136.97" gradientUnits="userSpaceOnUse">
<stop stop-color="#378B7A"/>
<stop offset="0.73" stop-color="#1DBAB1"/>
</linearGradient>
<linearGradient id="paint6_linear" x1="59.8346" y1="161.497" x2="111.688" y2="134.969" gradientUnits="userSpaceOnUse">
<stop stop-color="#5AD7D0"/>
<stop offset="1" stop-color="#68DDD4"/>
</linearGradient>
<linearGradient id="paint7_linear" x1="887.783" y1="3429.51" x2="963.263" y2="3429.51" gradientUnits="userSpaceOnUse">
<stop stop-color="#378B7A"/>
<stop offset="0.73" stop-color="#1DBAB1"/>
</linearGradient>
<linearGradient id="paint8_linear" x1="5157.76" y1="3112.86" x2="7731.98" y2="3112.86" gradientUnits="userSpaceOnUse">
<stop stop-color="#5AD7D0"/>
<stop offset="1" stop-color="#68DDD4"/>
</linearGradient>
</defs>
</svg>
