<svg width="256" height="256" viewBox="0 0 256 256" fill="none" xmlns="http://www.w3.org/2000/svg">
<path d="M133.936 204.774C260.07 194.217 236.948 176.873 233.432 139.417C229.917 101.961 202.451 112.858 134.958 119.055C67.4652 125.252 23.5571 127.48 27.065 164.943C30.5729 202.406 66.4427 210.957 133.936 204.774Z" fill="url(#paint0_radial)"/>
<path d="M153.266 128.277L155.012 57.3492C155.012 55.8221 151.863 53.3432 149.601 53.9924L54.941 86.0699C53.6519 86.4324 52.5173 87.2003 51.7093 88.2573C50.9012 89.3143 50.4637 90.6028 50.4629 91.9277L50.6943 162.376C50.6925 162.718 50.8006 163.053 51.0031 163.331C51.2056 163.61 51.492 163.817 51.8213 163.925L54.0006 164.663L153.266 128.277Z" fill="#429B91"/>
<path d="M155.416 132.136L218.58 151.745C219.969 152.239 219.722 157.19 218.327 157.647L128.085 188.824C124.236 190.157 120.045 190.17 116.188 188.861L54.1358 167.865C53.7513 167.733 53.4187 167.484 53.1855 167.154C52.9523 166.824 52.8304 166.43 52.8372 166.028V164.265L155.416 132.136Z" fill="#429B91"/>
<path d="M155.416 128.986L218.349 151.59C218.661 151.694 218.933 151.893 219.126 152.157C219.318 152.422 219.422 152.74 219.422 153.066C219.422 153.392 219.318 153.71 219.126 153.975C218.933 154.239 218.661 154.438 218.349 154.541L128.084 185.675C124.231 186.995 120.041 186.995 116.188 185.675L52.8145 164.265L155.416 128.986Z" fill="#DEF4F2"/>
<path d="M155.416 128.986L155.184 57.6893C155.184 55.358 152.945 54.4727 150.661 55.1219L57.0758 86.8453C55.7866 87.2078 54.6521 87.9757 53.844 89.0327C53.036 90.0897 52.5984 91.3782 52.5977 92.703L52.829 164.265L155.416 128.986Z" fill="url(#paint1_linear)"/>
<path d="M149.721 62.624L59.6289 93.3883V154.814L149.721 123.865V62.624Z" fill="url(#paint2_linear)"/>
<path d="M155.14 134.259L70.0254 163.902L74.2423 165.326L159.282 135.831L155.14 134.259Z" fill="url(#paint3_linear)"/>
<path d="M162.402 136.716L77.2803 166.367L81.5046 167.783L166.544 138.295L162.402 136.716Z" fill="url(#paint4_linear)"/>
<path d="M169.656 139.18L84.542 168.83L88.7589 170.247L173.799 140.752L169.656 139.18Z" fill="url(#paint5_linear)"/>
<path d="M176.919 141.637L91.7969 171.287L96.0213 172.704L181.061 143.216L176.919 141.637Z" fill="url(#paint6_linear)"/>
<path d="M184.18 144.101L99.0586 173.751L103.283 175.168L188.323 145.672L184.18 144.101Z" fill="url(#paint7_linear)"/>
<path d="M119.33 170.381L121.83 169.473L115.986 167.548L113.448 168.529L119.33 170.381Z" fill="#DEF4F2"/>
<path d="M180.993 148.705L183.494 147.797L177.642 145.872L175.104 146.853L180.993 148.705Z" fill="#DEF4F2"/>
<path d="M173.224 151.663L175.724 150.748L169.88 148.823L167.335 149.804L173.224 151.663Z" fill="#DEF4F2"/>
<path d="M162.252 145.283L164.752 144.368L158.908 142.45L156.363 143.431L162.252 145.283Z" fill="#DEF4F2"/>
<path d="M153.886 138.081L156.386 137.166L150.542 135.241L147.997 136.222L153.886 138.081Z" fill="#DEF4F2"/>
<path d="M109.911 153.198L112.411 152.283L106.567 150.365L104.029 151.346L109.911 153.198Z" fill="#DEF4F2"/>
<path d="M83.6241 162.722L86.1244 161.815L80.2804 159.889L77.7354 160.87L83.6241 162.722Z" fill="#DEF4F2"/>
<path d="M109.075 158.591L111.575 157.676L105.731 155.758L103.193 156.739L109.075 158.591Z" fill="#DEF4F2"/>
<path d="M108.835 168.868L111.336 167.953L105.492 166.035L102.954 167.016L108.835 168.868Z" fill="#DEF4F2"/>
<path d="M126.703 93.6021V87.3459L120.173 89.6182V95.8596L126.703 93.6021Z" fill="#3CCFC7"/>
<path d="M118.217 96.531V90.297L111.687 92.5619V98.7885L118.217 96.531Z" fill="#3CCFC7"/>
<path d="M109.724 99.46V93.2408L103.193 95.5057V101.718L109.724 99.46Z" fill="#3CCFC7"/>
<path d="M103.193 109.663L109.724 107.405V101.186L103.193 103.451V109.663Z" fill="#3CCFC7"/>
<path d="M77.7207 118.457L84.2513 116.2V110.025L77.7207 112.29V118.457Z" fill="#3CCFC7"/>
<path d="M126.703 101.549V95.2926L120.173 97.5575V103.799L126.703 101.549Z" fill="#3CCFC7"/>
<path d="M111.687 106.735L118.217 104.478V98.2436L111.687 100.509V106.735Z" fill="#3CCFC7"/>
<path d="M69.3242 115.204V121.349L75.7653 119.128V112.976L69.3242 115.204Z" fill="#3CCFC7"/>
<path d="M86.2139 115.521L92.7445 113.271V107.081L86.2139 109.346V115.521Z" fill="#3CCFC7"/>
<path d="M94.7002 112.592L101.231 110.342V104.13L94.7002 106.402V112.592Z" fill="#3CCFC7"/>
<path d="M86.2139 123.467L92.7445 121.217V115.027L86.2139 117.292V123.467Z" fill="#3CCFC7"/>
<path d="M94.7002 120.539L101.231 118.281V112.076L94.7002 114.341V120.539Z" fill="#3CCFC7"/>
<path d="M126.703 109.494V103.238L120.173 105.503V111.744L126.703 109.494Z" fill="#3CCFC7"/>
<path d="M77.7207 126.395L84.2513 124.145V117.97L77.7207 120.235V126.395Z" fill="#3CCFC7"/>
<path d="M111.687 114.673L118.217 112.423V106.182L111.687 108.447V114.673Z" fill="#3CCFC7"/>
<path d="M103.193 117.609L109.724 115.352V109.133L103.193 111.398V117.609Z" fill="#FFC757"/>
<path d="M69.3242 123.149V129.295L75.7653 127.074V120.914L69.3242 123.149Z" fill="#3CCFC7"/>
<path d="M103.193 125.548L109.724 123.297V117.071L103.193 119.343V125.548Z" fill="#3CCFC7"/>
<path d="M77.7207 134.342L84.2513 132.092V125.917L77.7207 128.181V134.342Z" fill="#3CCFC7"/>
<path d="M94.7002 128.484L101.231 126.226V120.022L94.7002 122.287V128.484Z" fill="#3CCFC7"/>
<path d="M86.2139 131.413L92.7445 129.155V122.966L86.2139 125.238V131.413Z" fill="#3CCFC7"/>
<path d="M69.3242 131.096V137.241L75.7653 135.021V128.86L69.3242 131.096Z" fill="#3CCFC7"/>
<path d="M111.687 122.618L118.217 120.361V114.127L111.687 116.392V122.618Z" fill="#3CCFC7"/>
<path d="M126.703 117.432V111.183L120.173 113.448V119.689L126.703 117.432Z" fill="#3CCFC7"/>
<path d="M69.3242 139.041V145.186L75.7653 142.966V136.806L69.3242 139.041Z" fill="#3CCFC7"/>
<path d="M69.3242 96.7606V102.906L98.4097 92.4817V86.3215L69.3242 96.7606Z" fill="#3CCFC7"/>
<path d="M129.114 86.6451V87.405L145.504 81.5325V80.7652L129.114 86.6451Z" fill="#3CCFC7"/>
<path d="M129.114 89.9218V90.6817L145.504 84.8018V84.0419L129.114 89.9218Z" fill="#3CCFC7"/>
<path d="M129.114 93.1898V93.9497L145.504 88.0772V87.3099L129.114 93.1898Z" fill="#3CCFC7"/>
<path d="M129.114 96.465V97.2249L145.504 91.3524V90.5851L129.114 96.465Z" fill="#3CCFC7"/>
<path d="M129.114 99.7402V100.5L145.504 94.6276V93.8604L129.114 99.7402Z" fill="#3CCFC7"/>
<path d="M129.114 103.017V103.777L145.504 97.8969V97.137L129.114 103.017Z" fill="#3CCFC7"/>
<path d="M129.114 106.285V107.045L145.504 101.172V100.405L129.114 106.285Z" fill="#3CCFC7"/>
<path d="M129.114 109.56V110.32L145.504 104.447V103.68L129.114 109.56Z" fill="#3CCFC7"/>
<path d="M129.114 112.835V113.595L145.504 107.715V106.955L129.114 112.835Z" fill="#3CCFC7"/>
<path d="M129.114 116.112V116.865L145.504 110.992V110.232L129.114 116.112Z" fill="#3CCFC7"/>
<path d="M77.7207 136.127V142.287L84.2513 140.03V133.855L77.7207 136.127Z" fill="#3CCFC7"/>
<path d="M86.2139 133.176V139.358L92.7445 137.101V130.911L86.2139 133.176Z" fill="#3CCFC7"/>
<path d="M94.7002 130.232V136.422L101.231 134.171V127.967L94.7002 130.232Z" fill="#3CCFC7"/>
<path d="M103.193 127.281V133.493L109.724 131.243V125.016L103.193 127.281Z" fill="#3CCFC7"/>
<path d="M111.687 124.337V130.564L118.217 128.306V122.072L111.687 124.337Z" fill="#3CCFC7"/>
<path d="M117.419 131.943L118.852 120.958L118.382 118.516L115.098 117.815L112.015 117.66L111.627 112.134L110.448 111.824L109.329 113.108L109.515 123.864L106.649 123.149L105.306 124.41L105.567 126.321L107.754 128.062L109.149 132.172L109.582 134.798L117.419 131.943Z" fill="#1DBAB1"/>
<path d="M116.837 121.608L115.971 121.925L115.904 118.627C115.904 118.34 115.71 118.177 115.486 118.259L114.239 118.716V117.617L115.486 117.167C115.949 117.094 116.423 117.199 116.811 117.462C117.198 117.724 117.469 118.122 117.568 118.576L116.837 121.608Z" fill="#429B91"/>
<path d="M114.688 121.431L113.822 121.74L113.755 118.421C113.755 118.111 113.546 117.934 113.299 118.022L111.807 118.561V117.461L113.299 116.923C113.79 116.869 114.283 116.998 114.682 117.284C115.081 117.571 115.357 117.995 115.456 118.472L114.688 121.431Z" fill="#429B91"/>
<path d="M119.195 118.288C118.812 117.989 118.361 117.788 117.881 117.702C117.4 117.616 116.906 117.647 116.441 117.794L116.501 118.871C116.733 118.743 116.999 118.685 117.264 118.704C117.53 118.724 117.783 118.82 117.994 118.981C118.175 119.198 118.307 119.45 118.383 119.721C118.459 119.991 118.476 120.275 118.434 120.553C118.352 122.257 117.285 129.649 117.001 131.567L109.918 134.157C109.291 128.52 107.575 126.838 105.962 125.938C105.711 125.762 105.536 125.499 105.471 125.202C105.406 124.904 105.456 124.593 105.612 124.33C105.658 124.184 105.735 124.05 105.838 123.936C105.941 123.822 106.067 123.73 106.208 123.668C106.349 123.605 106.501 123.572 106.656 123.572C106.81 123.572 106.963 123.604 107.104 123.666L108.276 124.293L108.694 124.514C108.82 124.589 108.969 124.616 109.114 124.592C109.259 124.567 109.391 124.493 109.485 124.382C109.735 124.09 109.861 123.715 109.836 123.334L109.642 113.492C109.628 113.226 109.691 112.961 109.823 112.729C109.955 112.497 110.151 112.306 110.388 112.179C110.829 112.017 111.202 112.342 111.209 112.917L111.374 121.106L112.247 120.789L112.859 112.769C112.818 112.492 112.719 112.227 112.568 111.99C112.418 111.753 112.219 111.549 111.984 111.392C111.75 111.235 111.485 111.128 111.206 111.079C110.927 111.029 110.641 111.037 110.366 111.102C109.86 111.356 109.438 111.746 109.148 112.228C108.859 112.71 108.714 113.264 108.731 113.824L108.918 123.341L108.731 123.238C108.493 123.105 108.164 122.921 107.545 122.604C106.343 122.058 105.306 122.943 104.835 123.991C104.365 125.038 104.41 126.477 105.418 127.03C106.91 127.864 108.508 129.457 109.052 135.005V135.573L109.926 136.09L117.673 132.401L117.74 131.951C117.8 131.56 119.151 122.36 119.233 120.331C119.374 119.276 119.703 118.76 119.195 118.288Z" fill="#429B91"/>
<path d="M118.262 132.512L119.695 121.52L119.225 119.085L115.941 118.377L112.866 118.229L112.47 112.696L111.291 112.386L110.171 113.677L110.358 124.434L107.492 123.711L106.148 124.98L106.41 126.891L108.596 128.632L109.992 132.741L110.425 135.367L118.262 132.512Z" fill="white"/>
<path d="M119.501 118.516C119.227 118.283 118.891 118.134 118.534 118.086C118.176 118.037 117.812 118.092 117.486 118.243C117.444 118.131 117.381 118.029 117.298 117.942C117.216 117.855 117.117 117.785 117.007 117.737C116.897 117.689 116.778 117.663 116.658 117.661C116.537 117.659 116.418 117.682 116.306 117.727L115.359 118.073C115.321 117.951 115.259 117.838 115.174 117.741C115.09 117.644 114.987 117.565 114.87 117.51C114.753 117.455 114.626 117.425 114.497 117.422C114.368 117.418 114.239 117.442 114.12 117.49L113.119 117.852L113.03 113.108C113.03 111.943 112.231 111.271 111.313 111.633C110.807 111.886 110.385 112.277 110.095 112.759C109.806 113.241 109.661 113.795 109.679 114.355L109.865 123.872L109.679 123.769L108.492 123.134C107.298 122.588 106.253 123.474 105.79 124.521C105.327 125.569 105.365 127.007 106.372 127.561C107.865 128.394 109.462 129.988 110 135.536V136.104L118.62 132.939L118.687 132.482C118.739 132.091 120.098 122.891 120.18 120.862C120.243 120.446 120.214 120.021 120.097 119.616C119.98 119.212 119.777 118.836 119.501 118.516ZM119.329 121.076C119.247 122.78 118.18 130.172 117.896 132.091L110.806 134.673C110.186 129.044 108.462 127.354 106.85 126.462C106.601 126.283 106.428 126.021 106.363 125.724C106.299 125.427 106.347 125.117 106.499 124.853C106.547 124.708 106.625 124.575 106.727 124.461C106.83 124.348 106.956 124.257 107.097 124.194C107.237 124.132 107.39 124.099 107.544 124.098C107.698 124.097 107.851 124.128 107.992 124.189C108.597 124.499 108.925 124.684 109.156 124.809L109.582 125.038C109.708 125.112 109.857 125.139 110.002 125.115C110.147 125.091 110.278 125.016 110.373 124.905C110.622 124.614 110.748 124.238 110.724 123.857L110.522 114.008C110.515 113.739 110.585 113.473 110.725 113.241C110.865 113.01 111.069 112.823 111.313 112.702C111.754 112.54 112.127 112.865 112.134 113.44L112.298 121.629L113.164 121.312L113.157 118.922L114.157 118.56C114.403 118.464 114.605 118.649 114.612 118.951L114.679 122.278L115.545 121.961L115.493 119.106L116.344 118.796C116.568 118.715 116.754 118.877 116.762 119.158L116.829 122.463L117.695 122.146L117.635 119.276C117.845 119.191 118.074 119.165 118.297 119.2C118.521 119.235 118.731 119.33 118.904 119.475C119.086 119.696 119.218 119.954 119.292 120.23C119.365 120.506 119.378 120.795 119.329 121.076Z" fill="#3CCFC7"/>
<defs>
<radialGradient id="paint0_radial" cx="0" cy="0" r="1" gradientUnits="userSpaceOnUse" gradientTransform="translate(132.765 161.585) rotate(-1.20519) scale(104.795 43.7501)">
<stop stop-color="#3CCFC7" stop-opacity="0.48"/>
<stop offset="0.83" stop-color="#4EBDB4" stop-opacity="0.06"/>
<stop offset="0.91" stop-color="#4FBBB2" stop-opacity="0.02"/>
<stop offset="1" stop-color="#50BAB1" stop-opacity="0"/>
</radialGradient>
<linearGradient id="paint1_linear" x1="52.62" y1="109.539" x2="155.416" y2="109.539" gradientUnits="userSpaceOnUse">
<stop stop-color="#1DBAB1"/>
<stop offset="1" stop-color="#8FD3D2"/>
</linearGradient>
<linearGradient id="paint2_linear" x1="100.97" y1="163.032" x2="106.884" y2="74.1607" gradientUnits="userSpaceOnUse">
<stop offset="0.13" stop-color="#87EAD3"/>
<stop offset="0.51" stop-color="#A3F2D5"/>
<stop offset="1" stop-color="#E2FFF6"/>
</linearGradient>
<linearGradient id="paint3_linear" x1="9044.79" y1="4172.94" x2="19719.9" y2="4172.94" gradientUnits="userSpaceOnUse">
<stop stop-color="#1DBAB1"/>
<stop offset="1" stop-color="#8FD3D2"/>
</linearGradient>
<linearGradient id="paint4_linear" x1="9921.33" y1="4279.16" x2="20597.3" y2="4279.16" gradientUnits="userSpaceOnUse">
<stop stop-color="#1DBAB1"/>
<stop offset="1" stop-color="#8FD3D2"/>
</linearGradient>
<linearGradient id="paint5_linear" x1="10796.2" y1="4385.07" x2="21470.4" y2="4385.07" gradientUnits="userSpaceOnUse">
<stop stop-color="#1DBAB1"/>
<stop offset="1" stop-color="#8FD3D2"/>
</linearGradient>
<linearGradient id="paint6_linear" x1="11672" y1="4491.29" x2="22348" y2="4491.29" gradientUnits="userSpaceOnUse">
<stop stop-color="#1DBAB1"/>
<stop offset="1" stop-color="#8FD3D2"/>
</linearGradient>
<linearGradient id="paint7_linear" x1="12547.8" y1="4597.2" x2="23223.8" y2="4597.2" gradientUnits="userSpaceOnUse">
<stop stop-color="#1DBAB1"/>
<stop offset="1" stop-color="#8FD3D2"/>
</linearGradient>
</defs>
</svg>
