<svg width="343" height="344" viewBox="0 0 343 344" fill="none" xmlns="http://www.w3.org/2000/svg">
<path d="M302.03 224.378C296.839 184.49 226.892 139.89 145.676 124.697C64.4592 109.503 2.81578 129.463 8.00639 169.35C13.197 209.238 83.1227 253.942 164.339 269.136C245.556 284.33 307.22 264.266 302.03 224.378Z" fill="url(#paint0_radial)"/>
<path d="M57.8352 148.499C57.0132 149.342 56.0238 150.139 54.8518 150.89C53.8623 151.534 52.7968 152.102 51.6704 152.607C43.4507 156.271 32.0344 156.317 24.5453 152.393C20.3441 150.185 18.1522 147.15 18 143.977L18.1674 147.487C18.3197 150.645 20.5116 153.696 24.7128 155.903C32.2019 159.827 43.6181 159.781 51.8379 156.118C52.9643 155.612 54.0298 155.045 55.0192 154.401C56.176 153.65 57.1807 152.837 58.0027 152.01C60.1185 149.863 61.1079 147.472 60.9861 145.142L60.8187 141.632C60.9404 143.962 59.951 146.353 57.8352 148.499Z" fill="url(#paint1_linear)"/>
<path d="M54.2883 133.216C45.7793 128.755 32.1863 129.429 23.9971 134.718C15.8078 140.007 16.0666 147.947 24.5755 152.408C32.0646 156.332 43.4808 156.286 51.7006 152.623C52.827 152.117 53.8925 151.55 54.8819 150.906C56.0388 150.155 57.0434 149.342 57.8654 148.514C62.8124 143.425 61.5795 137.048 54.2883 133.216Z" fill="url(#paint2_linear)"/>
<path d="M52.0362 134.672C44.8211 130.885 33.2831 131.453 26.3268 135.944C19.3704 140.436 19.5835 147.165 26.8138 150.951C33.1765 154.278 42.8575 154.247 49.8291 151.135C50.788 150.706 51.6861 150.231 52.5233 149.679C53.5127 149.035 54.3499 148.361 55.0501 147.64C59.2818 143.333 58.2315 137.921 52.0362 134.672Z" fill="url(#paint3_linear)"/>
<path d="M321.766 193.439C320.189 190.587 318.221 187.78 315.893 185.093C315.172 180.022 313.519 175.102 310.981 170.454C305.814 161.036 297.057 152.977 285.671 147.151C275.938 142.17 266.656 138.563 258.064 136.435C250.674 134.594 243.599 133.809 237.035 134.066H237.02H236.855C219.581 125.418 203.72 118.234 192.124 112.967C189.961 111.986 187.678 110.959 185.71 110.054C161.858 99.1271 136.698 95.6559 126.439 96.667C107.333 98.5687 82.3992 110.718 47.2812 134.911L48.908 139.953C72.0846 123.986 103.518 103.791 126.905 101.466C134.535 100.712 158.463 102.87 183.712 114.431C185.65 115.321 187.858 116.317 190.141 117.359C200.055 121.856 213.423 127.923 228.053 135.092C219.822 136.707 213.813 139.816 209.307 142.125C208.631 142.472 207.97 142.819 207.34 143.136C194.497 149.566 186.251 162.832 187.287 175.389C187.783 181.38 190.111 187.161 194.422 193.062C198.387 198.495 203.524 203.264 207.565 206.796C212.987 211.55 214.384 214.357 215.751 217.074C217.463 220.485 219.071 223.699 226.926 228.936C236.104 235.064 246.153 241.222 257.463 244.708C263.486 246.564 269.419 247.5 275.157 247.5C275.998 247.5 276.824 247.485 277.651 247.44C282.908 247.183 287.804 246.127 292.205 244.285C312.363 235.849 323.628 225.224 325.671 212.712C326.677 206.479 325.371 199.989 321.766 193.439ZM246.904 139.182C257.808 140.48 270.095 144.6 283.478 151.452C299.701 159.753 306.595 170.393 309.479 178.769C295.81 166.937 274.782 153.641 246.904 139.182ZM311.041 195.929C309.148 207.158 301.473 215.278 291.499 216.636C284.981 217.527 269.582 213.265 261.471 210.202L259.302 209.478C259.122 209.146 258.482 208.572 258.152 208.436C257.626 208.224 257.04 208.315 256.47 208.677C255.508 209.296 254.832 210.624 254.892 211.771C254.922 212.42 255.193 212.933 255.628 213.235C255.974 213.477 256.394 213.552 256.815 213.477C256.86 213.477 256.905 213.477 256.935 213.492L257.836 213.824C264.1 216.827 279.813 221.602 289.397 221.602C290.388 221.602 291.304 221.541 292.145 221.435C304.237 219.79 313.519 210.101 315.773 196.76C315.953 195.673 316.088 194.556 316.178 193.424C321.886 202.404 321.27 209.784 320.925 211.942C319.167 222.688 308.878 232.076 290.358 239.833C285.822 241.735 280.67 242.686 275.187 242.686C269.975 242.686 264.448 241.825 258.86 240.105C248.135 236.784 238.432 230.853 229.57 224.922C222.781 220.394 221.504 217.844 220.032 214.901C218.53 211.927 216.848 208.547 210.719 203.174C201.587 195.145 192.995 186.18 192.079 175.011C191.208 164.371 198.357 153.052 209.488 147.483C210.103 147.181 210.734 146.849 211.41 146.502L211.515 146.457C217.088 143.574 224.718 139.65 235.668 138.895C268.443 155.346 292.536 170.272 307.271 183.267C308.728 184.55 310.08 185.863 311.311 187.191C311.627 190.134 311.522 193.092 311.041 195.929Z" fill="url(#paint4_linear)"/>
<path d="M65.3395 150.814C63.2237 152.148 61.1687 153.727 61.4123 158.678C61.5797 162.25 64.5023 165.423 66.131 165.347C67.775 165.27 68.1098 161.652 67.9424 158.08C67.7902 154.493 66.7399 149.925 65.3395 150.814Z" fill="#3CCFC7"/>
<path d="M262.004 182.96C260.36 183.037 260.026 186.654 260.193 190.226C260.36 193.798 261.411 198.366 262.811 197.477C264.927 196.143 266.982 194.564 266.738 189.613C266.556 186.041 263.633 182.868 262.004 182.96Z" fill="#3CCFC7"/>
<path d="M262.78 187.298L136.988 120.309C130.671 116.983 121.857 118.347 117.443 121.229L65.1412 155.444C61.4576 157.851 61.7468 163.369 65.6435 165.393L192.471 231.493C198.62 234.666 205.973 234.298 211.787 230.542L263.206 197.232C266.905 194.855 266.661 189.352 262.78 187.298Z" fill="url(#paint5_linear)"/>
<path d="M262.567 182.929L136.181 116.262C129.971 112.982 122.497 113.334 116.636 117.182L64.9283 151.075C61.2447 153.482 61.5339 159 65.4307 161.024L192.258 227.124C198.407 230.297 205.76 229.929 211.574 226.173L262.993 192.863C266.692 190.471 266.449 184.968 262.567 182.929Z" fill="url(#paint6_linear)"/>
<path d="M69.0078 158.785L196.307 225.146L258.472 184.876L131.721 118.163L69.0078 158.785Z" fill="url(#paint7_linear)"/>
<path d="M102.557 131.638C101.643 131.163 100.197 131.239 99.3296 131.791L93.7281 135.424C92.8604 135.991 92.8909 136.834 93.8042 137.31C94.7175 137.785 96.1635 137.708 97.0312 137.156L102.633 133.523C103.5 132.956 103.47 132.113 102.557 131.638Z" fill="url(#paint8_linear)"/>
<path d="M259.656 208.874C259.562 208.653 259.399 208.501 259.173 208.454L251.65 201.958C251.568 201.857 251.481 201.772 251.357 201.706L251.346 201.689C250.952 201.507 250.362 201.602 249.626 202.026C248.038 202.944 246.414 205.046 245.999 206.7C245.789 207.509 245.913 208.056 246.271 208.307L246.287 208.307C246.314 208.324 246.357 208.34 246.384 208.357L255.286 213.834L255.313 213.851C255.632 214.017 256.114 213.958 256.738 213.587C258.017 212.846 259.323 211.161 259.662 209.817C259.738 209.456 259.745 209.113 259.656 208.874Z" fill="url(#paint9_linear)"/>
<path d="M258.038 209.149C256.887 209.764 255.797 211.257 255.612 212.464C255.427 213.671 256.195 214.145 257.347 213.529C258.498 212.914 259.588 211.421 259.773 210.214C259.963 208.984 259.172 208.51 258.038 209.149Z" fill="#43CCBB"/>
<path d="M30.0857 143.853C30.3902 144.972 31.3643 145.999 33.0235 146.766C36.281 148.268 41.1671 148.238 44.7138 146.797C45.2009 146.597 45.6727 146.367 46.1142 146.122C46.6317 145.831 47.0731 145.509 47.4537 145.172C48.23 144.482 48.6866 143.715 48.8389 142.949H48.8997L51.046 136.035L27.2393 137.216L30.0857 143.853Z" fill="url(#paint10_linear)"/>
<path d="M51.6397 134.166C51.0613 134.687 50.3763 135.208 49.5543 135.668C48.8693 136.067 48.1235 136.435 47.3472 136.741C41.6238 139.056 33.7085 139.133 28.5179 136.695C25.6106 135.331 24.1036 133.43 23.9971 131.453L24.1036 133.583C24.195 135.561 25.7171 137.462 28.6245 138.826C33.8151 141.248 41.7456 141.187 47.4537 138.872C48.23 138.55 48.9759 138.197 49.6609 137.799C50.4676 137.324 51.1678 136.818 51.7462 136.297C53.2228 134.948 53.9077 133.445 53.8468 131.989L53.7403 129.858C53.8012 131.315 53.101 132.817 51.6397 134.166Z" fill="url(#paint11_linear)"/>
<path d="M49.2195 124.631C43.3287 121.872 33.8912 122.332 28.1831 125.673C22.475 129 22.6272 133.951 28.518 136.711C33.7086 139.148 41.6391 139.071 47.3472 136.757C48.1235 136.435 48.8694 136.082 49.5544 135.683C50.3611 135.208 51.0613 134.702 51.6398 134.181C55.1103 130.977 54.2731 126.992 49.2195 124.631Z" fill="url(#paint12_linear)"/>
<path d="M46.8148 126.026C42.2939 123.911 35.0484 124.263 30.6645 126.823C26.2807 129.383 26.4024 133.185 30.9233 135.3C34.8962 137.17 40.9848 137.109 45.3687 135.331C45.9623 135.086 46.5408 134.81 47.0735 134.503C47.6976 134.135 48.2304 133.752 48.6718 133.338C51.3356 130.916 50.6963 127.85 46.8148 126.026Z" fill="url(#paint13_linear)"/>
<defs>
<radialGradient id="paint0_radial" cx="0" cy="0" r="1" gradientUnits="userSpaceOnUse" gradientTransform="translate(154.975 193.261) rotate(19.9123) scale(139.575 51.8047)">
<stop stop-color="#24948A" stop-opacity="0.5"/>
<stop offset="0.833516" stop-color="#18ADA1" stop-opacity="0.05"/>
<stop offset="1" stop-color="#50BAB1" stop-opacity="0"/>
<stop offset="1" stop-color="#50BAB1" stop-opacity="0"/>
</radialGradient>
<linearGradient id="paint1_linear" x1="58" y1="136.5" x2="28.3651" y2="162.867" gradientUnits="userSpaceOnUse">
<stop stop-color="#45E7AE"/>
<stop offset="1" stop-color="#19A66E"/>
</linearGradient>
<linearGradient id="paint2_linear" x1="54.015" y1="132.937" x2="20.9932" y2="148.47" gradientUnits="userSpaceOnUse">
<stop stop-color="#92FFD9"/>
<stop offset="1" stop-color="#3FD298"/>
</linearGradient>
<linearGradient id="paint3_linear" x1="25.5004" y1="149.499" x2="27.1267" y2="132.605" gradientUnits="userSpaceOnUse">
<stop stop-color="#91FFE6"/>
<stop offset="1" stop-color="#E2FFF6"/>
</linearGradient>
<linearGradient id="paint4_linear" x1="187" y1="210.5" x2="227" y2="120.5" gradientUnits="userSpaceOnUse">
<stop stop-color="#32BDB6"/>
<stop offset="1" stop-color="#6AF0C8"/>
</linearGradient>
<linearGradient id="paint5_linear" x1="70.2421" y1="232.979" x2="78.7806" y2="106.888" gradientUnits="userSpaceOnUse">
<stop stop-color="#378B7A"/>
<stop offset="0.7263" stop-color="#1DBAB1"/>
</linearGradient>
<linearGradient id="paint6_linear" x1="-36.3827" y1="194.931" x2="16.0673" y2="34.302" gradientUnits="userSpaceOnUse">
<stop stop-color="#3CCFC7"/>
<stop offset="1" stop-color="#6AF0C8"/>
</linearGradient>
<linearGradient id="paint7_linear" x1="71.3717" y1="222.328" x2="78.206" y2="110.833" gradientUnits="userSpaceOnUse">
<stop stop-color="#87EAD3"/>
<stop offset="0.3436" stop-color="#A3F2D5"/>
<stop offset="1" stop-color="#E2FFF6"/>
</linearGradient>
<linearGradient id="paint8_linear" x1="96.7404" y1="138.704" x2="99.3475" y2="130.213" gradientUnits="userSpaceOnUse">
<stop stop-color="#46786E"/>
<stop offset="0.838" stop-color="#1DBAB1"/>
</linearGradient>
<linearGradient id="paint9_linear" x1="248.385" y1="216.192" x2="256.381" y2="198.932" gradientUnits="userSpaceOnUse">
<stop stop-color="#46786E"/>
<stop offset="0.838" stop-color="#1DBAB1"/>
</linearGradient>
<linearGradient id="paint10_linear" x1="49.3871" y1="132.505" x2="29.9542" y2="146.421" gradientUnits="userSpaceOnUse">
<stop stop-color="#45E7AE"/>
<stop offset="1" stop-color="#19A66E"/>
</linearGradient>
<linearGradient id="paint11_linear" x1="51.7703" y1="126.65" x2="33.1207" y2="145.082" gradientUnits="userSpaceOnUse">
<stop stop-color="#45E7AE"/>
<stop offset="1" stop-color="#19A66E"/>
</linearGradient>
<linearGradient id="paint12_linear" x1="49.0001" y1="124.5" x2="27.0001" y2="136" gradientUnits="userSpaceOnUse">
<stop stop-color="#92FFD9"/>
<stop offset="1" stop-color="#3FD298"/>
</linearGradient>
<linearGradient id="paint13_linear" x1="30.1246" y1="134.445" x2="30.9538" y2="124.877" gradientUnits="userSpaceOnUse">
<stop stop-color="#91FFE6"/>
<stop offset="1" stop-color="#E2FFF6"/>
</linearGradient>
</defs>
</svg>
