<svg width="200" height="268" viewBox="0 0 200 268" fill="none" xmlns="http://www.w3.org/2000/svg">
<path d="M87.2463 265.494C133.931 267.834 178.912 258.074 187.723 243.685C196.534 229.297 165.817 215.743 119.132 213.411C72.4472 211.079 27.4659 220.831 18.6633 235.219C9.8607 249.608 40.5615 263.162 87.2463 265.494Z" fill="url(#paint0_radial)"/>
<path d="M16.5112 140.468C14.8273 134.041 8.96766 128.027 3.7334 124.342L43.0385 96.8044L16.5112 140.468Z" fill="url(#paint1_linear)"/>
<path d="M16.5107 140.469C33.1468 140.469 49.3404 144.683 65.226 151.89C69.6175 129.285 76.3905 107.208 85.4318 86.0288C52.1788 94.6403 23.246 107.226 16.5107 140.469Z" fill="url(#paint2_linear)"/>
<path d="M139.814 98.4695C155.613 105.407 167.968 121.013 178.128 142.153C158.731 141.537 145.626 143.827 129.759 151.053L112.94 101.491L139.814 98.4695Z" fill="url(#paint3_linear)"/>
<path d="M96.8535 84.5667C127.768 84.5667 129.76 151.053 129.76 151.053C109.978 147.147 85.4227 148.022 65.5537 152.227C65.5826 152.227 65.9386 84.5667 96.8535 84.5667Z" fill="url(#paint4_linear)"/>
<path d="M177.792 142.152C181.102 135.532 188.559 128.556 198.45 124.246C184.492 111.667 169.203 105.65 152.583 106.195L177.792 142.152Z" fill="url(#paint5_linear)"/>
<path d="M103.011 102.799H99.9902V204.367H103.011V102.799Z" fill="url(#paint6_linear)"/>
<path d="M88.0108 229.356C83.5083 229.35 79.1917 227.56 76.008 224.376C72.8243 221.192 71.0334 216.876 71.0283 212.373C71.0283 211.442 71.3983 210.548 72.057 209.89C72.7156 209.231 73.6088 208.861 74.5403 208.861C75.4717 208.861 76.365 209.231 77.0236 209.89C77.6822 210.548 78.0522 211.442 78.0522 212.373C78.1327 214.962 79.2177 217.418 81.0774 219.221C82.9371 221.023 85.4255 222.032 88.0156 222.032C90.6057 222.032 93.0941 221.023 94.9538 219.221C96.8136 217.418 97.8985 214.962 97.979 212.373V203.608C97.9541 203.132 98.0263 202.655 98.1913 202.208C98.3563 201.761 98.6106 201.352 98.9387 201.006C99.2668 200.661 99.6619 200.385 100.1 200.197C100.538 200.009 101.009 199.912 101.486 199.912C101.963 199.912 102.434 200.009 102.872 200.197C103.31 200.385 103.706 200.661 104.034 201.006C104.362 201.352 104.616 201.761 104.781 202.208C104.946 202.655 105.018 203.132 104.993 203.608V212.354C104.993 216.86 103.205 221.181 100.02 224.369C96.8361 227.557 92.5166 229.35 88.0108 229.356Z" fill="#299E95"/>
<path d="M3.72363 124.342L5.09955 123.726C28.2689 113.546 45.3957 110.852 58.5006 110.9C61.5413 97.8479 66.8884 85.4431 74.29 74.2703C49.9468 76.464 26.4247 93.1547 3.72363 124.342Z" fill="url(#paint7_linear)"/>
<path d="M126.046 73.5974C151.967 76.4166 179.514 98.4217 199.297 124.68C184.037 116.28 161.926 108.765 147.214 108.881L126.046 73.5974Z" fill="url(#paint8_linear)"/>
<path d="M58.1641 111.238C62.8595 87.0868 72.5968 68.2185 82.3629 67.9395C92.1291 67.6604 106.889 68.9016 117.636 67.2659C128.384 65.6302 136.563 88.0971 147.214 108.928C123.015 102.164 84.4412 101.876 58.1641 111.238Z" fill="url(#paint9_linear)"/>
<path d="M48.5415 44.0775L53.1311 42.0088C53.8624 43.9332 55.0555 45.4726 57.307 45.463C59.5585 45.4534 60.0588 44.2026 60.0492 42.8844C60.0492 41.1621 58.1248 39.9978 55.1036 38.391C51.6493 36.4666 48.0796 34.446 48.0508 30.2413C48.11 28.9738 48.4852 27.7411 49.1423 26.6556C49.7993 25.57 50.7174 24.6659 51.8129 24.0256C50.973 23.4227 50.2911 22.6259 49.8254 21.7028C49.3597 20.7797 49.1239 19.7578 49.1381 18.724C49.1381 14.7983 52.1304 11.5846 57.5283 11.5461C63.7247 11.5461 65.8992 14.4327 66.7652 17.1653L62.2141 19.234C61.4828 17.3096 60.1165 15.7701 57.8362 15.7797C55.5558 15.7894 54.8823 17.0402 54.8919 18.3584C54.8919 20.0807 57.0279 21.2449 60.0396 22.8421C63.4938 24.7665 67.0635 26.7967 67.0923 31.0014C67.0406 32.2818 66.6647 33.5281 66 34.6236C65.3353 35.7191 64.4035 36.628 63.2917 37.2652C64.1025 37.8745 64.7548 38.6698 65.1936 39.5842C65.6324 40.4986 65.8447 41.5051 65.8126 42.5187C65.8126 46.4444 63.0223 49.6581 57.6245 49.6966C51.4665 49.7351 49.4459 46.7716 48.5415 44.0775ZM61.9062 32.3389C61.9062 30.4145 61.0017 29.5485 56.7489 27.172C56.1524 26.8641 55.5462 26.5465 55.0266 26.2098C54.53 26.4861 54.1083 26.8794 53.7981 27.3556C53.4879 27.8318 53.2986 28.3764 53.2466 28.9424C53.2466 30.8667 54.1414 31.7327 58.3942 34.1093C59.0389 34.4172 59.597 34.7347 60.1262 35.0715C60.6201 34.792 61.0397 34.3979 61.3495 33.9223C61.6593 33.4467 61.8502 32.9037 61.9062 32.3389Z" fill="url(#paint10_linear)"/>
<path d="M10.0449 42.8945L15.7988 42.8752L15.8084 46.2333L10.0642 51.0442L10.0449 42.8945Z" fill="url(#paint11_linear)"/>
<path d="M7.1582 56.7595L21.2734 44.7227L35.4559 56.6826L35.5137 74.5001L7.20631 74.5867L7.1582 56.7595Z" fill="url(#paint12_linear)"/>
<path d="M40.3058 61.4928L21.2738 45.4532L2.3381 61.6082L0 58.866L21.2642 40.7385L42.6246 58.7409L40.3058 61.4928Z" fill="url(#paint13_linear)"/>
<path d="M24.5163 61.2036H16.79V74.4999H24.5163V61.2036Z" fill="url(#paint14_linear)"/>
<path d="M191.811 49.7437H186.865V48.1754C186.855 47.3111 186.503 46.4859 185.886 45.8802C185.27 45.2744 184.439 44.9373 183.574 44.9424L178.571 44.9906C178.143 44.9943 177.719 45.0824 177.325 45.2499C176.931 45.4173 176.573 45.6607 176.273 45.9663C175.973 46.2719 175.736 46.6336 175.575 47.0308C175.415 47.428 175.334 47.8529 175.338 48.2812V49.888L169.488 49.9362C168.259 49.9489 167.085 50.4481 166.223 51.3245C165.361 52.2009 164.881 53.3831 164.889 54.6124L165.004 67.1881C165.008 67.7983 165.132 68.4017 165.37 68.9637C165.608 69.5257 165.955 70.035 166.39 70.4625C166.826 70.8899 167.342 71.2271 167.908 71.4544C168.474 71.6818 169.08 71.7949 169.69 71.7873L192.003 71.5949C192.612 71.5898 193.213 71.4648 193.773 71.227C194.334 70.9891 194.841 70.6431 195.268 70.2087C195.694 69.7744 196.031 69.2602 196.258 68.6956C196.485 68.1311 196.599 67.5272 196.593 66.9187L196.487 54.3526C196.477 53.1217 195.979 51.9451 195.102 51.0811C194.225 50.217 193.041 49.736 191.811 49.7437ZM177.686 48.2523C177.678 48.1296 177.695 48.0066 177.736 47.8907C177.778 47.7749 177.842 47.6687 177.926 47.5786C178.01 47.4886 178.111 47.4165 178.224 47.3669C178.336 47.3173 178.458 47.2912 178.581 47.2902H183.584C183.703 47.2876 183.821 47.3089 183.932 47.3527C184.043 47.3965 184.144 47.462 184.229 47.5453C184.314 47.6287 184.382 47.7282 184.428 47.838C184.474 47.9479 184.498 48.0658 184.498 48.185V49.8015L177.676 49.8592L177.686 48.2523ZM181.14 67.3131C179.805 67.3284 178.495 66.9464 177.377 66.2157C176.26 65.4849 175.384 64.4384 174.863 63.2091C174.341 61.9799 174.197 60.6233 174.448 59.3117C174.699 58.0002 175.334 56.7929 176.273 55.8432C177.212 54.8936 178.412 54.2444 179.72 53.9782C181.029 53.712 182.387 53.8408 183.622 54.3483C184.858 54.8557 185.914 55.7189 186.658 56.8281C187.401 57.9373 187.798 59.2425 187.798 60.5779C187.798 62.3509 187.099 64.0525 185.853 65.3134C184.606 66.5743 182.913 67.2929 181.14 67.3131Z" fill="url(#paint15_linear)"/>
<path d="M184.604 59.723L182.083 59.7422L182.063 57.231L180.052 57.2406L180.072 59.7615L177.551 59.7904L177.57 61.8013L180.091 61.7821L180.11 64.303L182.121 64.2837L182.102 61.7628L184.623 61.7436L184.604 59.723Z" fill="url(#paint16_linear)"/>
<path d="M144.308 27.2785L148.926 7.59229L137.005 31.6468L143.163 31.7911H143.249L138.111 53.7289L149.648 31.9451L151.697 27.4517L144.308 27.2785Z" fill="url(#paint17_linear)"/>
<path d="M106.561 2.93473L104.906 11.7868L106.571 11.0748L104.733 20.9083L105.214 12.8644L103.646 13.0761L105.204 4.71477L102.962 5.82127L104.011 0.182899L95.5922 8.18848e-05L104.011 0.182899L95.5729 8.18848e-05C95.4992 -0.0015926 95.4271 0.0224594 95.3692 0.0681096C95.3113 0.11376 95.271 0.178162 95.2554 0.250251L92.0802 15.9242C91.7961 17.3244 91.9568 18.7784 92.54 20.0827C93.1231 21.387 94.0995 22.4763 95.3324 23.1983C95.6828 23.4128 96.0495 23.5994 96.4292 23.7563L99.6814 25.0745C99.7414 25.1007 99.7924 25.1437 99.8283 25.1984C99.8642 25.2531 99.8833 25.317 99.8835 25.3824L99.6429 36.1107C99.6338 36.4892 99.526 36.8587 99.3303 37.1827C99.1345 37.5067 98.8576 37.774 98.5268 37.9581L94.0912 39.6612C94.0405 39.6795 93.9957 39.7112 93.9616 39.7529C93.9276 39.7945 93.9054 39.8447 93.8975 39.898C93.8896 39.9513 93.8963 40.0057 93.9168 40.0555C93.9374 40.1052 93.971 40.1485 94.0142 40.1808C94.0647 40.2099 94.1201 40.2295 94.1777 40.2385L107.321 40.5271C107.377 40.5455 107.438 40.5455 107.494 40.5271C107.538 40.4964 107.573 40.4545 107.595 40.4058C107.617 40.3571 107.625 40.3034 107.619 40.2503C107.613 40.1972 107.593 40.1466 107.561 40.104C107.529 40.0613 107.486 40.028 107.437 40.0076L103.107 38.1121C102.781 37.9105 102.514 37.6263 102.333 37.2884C102.152 36.9505 102.064 36.5707 102.077 36.1877L102.318 25.4594C102.322 25.3962 102.345 25.3357 102.382 25.2846C102.42 25.2336 102.471 25.1941 102.529 25.1707L105.839 23.9969C106.227 23.8547 106.603 23.6843 106.965 23.4869C108.228 22.8202 109.251 21.7755 109.891 20.4989C110.531 19.2223 110.756 17.7776 110.535 16.3668L108.014 0.587013C108.007 0.513009 107.972 0.444362 107.917 0.394524C107.862 0.344687 107.79 0.317254 107.716 0.317603L105.358 0.269491L104.319 4.11821L106.561 2.93473Z" fill="url(#paint18_linear)"/>
<path d="M107.697 0.269789L105.368 0.22168L107.697 0.269789Z" fill="#D1CA89"/>
<defs>
<radialGradient id="paint0_radial" cx="0" cy="0" r="1" gradientUnits="userSpaceOnUse" gradientTransform="translate(102.862 239.529) rotate(2.8662) scale(82.7699 22.2739)">
<stop stop-color="#3CCFC7" stop-opacity="0.42"/>
<stop offset="0.83" stop-color="#4EBDB4" stop-opacity="0.06"/>
<stop offset="0.91" stop-color="#4FBBB2" stop-opacity="0.02"/>
<stop offset="1" stop-color="#50BAB1" stop-opacity="0"/>
</radialGradient>
<linearGradient id="paint1_linear" x1="23.3811" y1="96.7852" x2="23.3811" y2="140.468" gradientUnits="userSpaceOnUse">
<stop stop-color="#378B7A"/>
<stop offset="0.73" stop-color="#1DBAB1"/>
</linearGradient>
<linearGradient id="paint2_linear" x1="50.9376" y1="151.89" x2="50.9376" y2="86.0288" gradientUnits="userSpaceOnUse">
<stop offset="0.2" stop-color="#DEF4F2"/>
<stop offset="0.27" stop-color="#D5EDEB"/>
<stop offset="0.38" stop-color="#BBDBD9"/>
<stop offset="0.51" stop-color="#92BEBA"/>
<stop offset="0.68" stop-color="#589590"/>
<stop offset="0.85" stop-color="#12645D"/>
</linearGradient>
<linearGradient id="paint3_linear" x1="145.529" y1="151.053" x2="145.529" y2="98.4695" gradientUnits="userSpaceOnUse">
<stop offset="0.2" stop-color="#DEF4F2"/>
<stop offset="0.28" stop-color="#D5EDEB"/>
<stop offset="0.42" stop-color="#BBDBD9"/>
<stop offset="0.59" stop-color="#92BEBA"/>
<stop offset="0.78" stop-color="#589590"/>
<stop offset="1" stop-color="#12645D"/>
</linearGradient>
<linearGradient id="paint4_linear" x1="97.6617" y1="84.5667" x2="97.6617" y2="152.227" gradientUnits="userSpaceOnUse">
<stop offset="0.36" stop-color="#21817C"/>
<stop offset="0.46" stop-color="#248A85"/>
<stop offset="0.61" stop-color="#2DA49D"/>
<stop offset="0.81" stop-color="#3BCDC5"/>
<stop offset="0.82" stop-color="#3CCFC7"/>
</linearGradient>
<linearGradient id="paint5_linear" x1="11768.9" y1="5566.67" x2="11768.9" y2="6913.08" gradientUnits="userSpaceOnUse">
<stop stop-color="#378B7A"/>
<stop offset="0.73" stop-color="#1DBAB1"/>
</linearGradient>
<linearGradient id="paint6_linear" x1="101.501" y1="204.367" x2="101.501" y2="102.799" gradientUnits="userSpaceOnUse">
<stop offset="0.32" stop-color="#808080"/>
<stop offset="1" stop-color="#4D4D4D"/>
</linearGradient>
<linearGradient id="paint7_linear" x1="39.0068" y1="124.342" x2="39.0068" y2="74.2703" gradientUnits="userSpaceOnUse">
<stop offset="0.2" stop-color="#DEF4F2"/>
<stop offset="0.4" stop-color="#D5EEEB"/>
<stop offset="0.74" stop-color="#BBDFD8"/>
<stop offset="1" stop-color="#A3D0C5"/>
</linearGradient>
<linearGradient id="paint8_linear" x1="17698.9" y1="8807.12" x2="17698.9" y2="6095.17" gradientUnits="userSpaceOnUse">
<stop offset="0.2" stop-color="#DEF4F2"/>
<stop offset="0.4" stop-color="#D5EEEB"/>
<stop offset="0.74" stop-color="#BBDFD8"/>
<stop offset="1" stop-color="#A3D0C5"/>
</linearGradient>
<linearGradient id="paint9_linear" x1="58.1641" y1="89.1844" x2="147.214" y2="89.1844" gradientUnits="userSpaceOnUse">
<stop stop-color="#3CCFC7"/>
<stop offset="1" stop-color="#6AF0C8"/>
</linearGradient>
<linearGradient id="paint10_linear" x1="48.0508" y1="30.6166" x2="67.0923" y2="30.6166" gradientUnits="userSpaceOnUse">
<stop offset="0.46" stop-color="#1DBAB1"/>
<stop offset="0.58" stop-color="#26C0B8"/>
<stop offset="0.75" stop-color="#3CCFC7"/>
</linearGradient>
<linearGradient id="paint11_linear" x1="10.0449" y1="46.9645" x2="16" y2="42.9999" gradientUnits="userSpaceOnUse">
<stop stop-color="#4CA9A3"/>
<stop offset="1" stop-color="#26E0D6"/>
</linearGradient>
<linearGradient id="paint12_linear" x1="31" y1="47.5001" x2="7" y2="75.0001" gradientUnits="userSpaceOnUse">
<stop stop-color="#DEF4F2"/>
<stop offset="0.19" stop-color="#D5EFEC"/>
<stop offset="0.5" stop-color="#BBE2DC"/>
<stop offset="0.9" stop-color="#92CEC2"/>
<stop offset="1" stop-color="#87C8BB"/>
</linearGradient>
<linearGradient id="paint13_linear" x1="2.41182" y1="61.0724" x2="4.38993" y2="37.9756" gradientUnits="userSpaceOnUse">
<stop stop-color="#1DBAB1"/>
<stop offset="1" stop-color="#56D8D1"/>
</linearGradient>
<linearGradient id="paint14_linear" x1="17.2272" y1="74.6283" x2="21.5939" y2="60.6298" gradientUnits="userSpaceOnUse">
<stop stop-color="#1DBAB1"/>
<stop offset="1" stop-color="#56D8D1"/>
</linearGradient>
<linearGradient id="paint15_linear" x1="166.683" y1="71.0984" x2="171.02" y2="41.8129" gradientUnits="userSpaceOnUse">
<stop stop-color="#1DBAB1"/>
<stop offset="1" stop-color="#56D8D1"/>
</linearGradient>
<linearGradient id="paint16_linear" x1="1546.63" y1="503.83" x2="1598.61" y2="503.83" gradientUnits="userSpaceOnUse">
<stop offset="0.46" stop-color="#1DBAB1"/>
<stop offset="0.58" stop-color="#26C0B8"/>
<stop offset="0.75" stop-color="#3CCFC7"/>
</linearGradient>
<linearGradient id="paint17_linear" x1="137.836" y1="52.5443" x2="159.54" y2="13.0313" gradientUnits="userSpaceOnUse">
<stop stop-color="#1DBAB1"/>
<stop offset="1" stop-color="#56D8D1"/>
</linearGradient>
<linearGradient id="paint18_linear" x1="93" y1="39.5" x2="108" y2="-2.36698e-07" gradientUnits="userSpaceOnUse">
<stop stop-color="#1DBAB1"/>
<stop offset="1" stop-color="#56D8D1"/>
</linearGradient>
</defs>
</svg>
