<svg width="218" height="243" viewBox="0 0 218 243" fill="none" xmlns="http://www.w3.org/2000/svg">
<path d="M95.9876 242.398C155.759 246.77 210.03 226.856 217.211 197.92C224.392 168.983 181.776 141.984 122.012 137.603C62.2486 133.223 7.97009 153.162 0.78921 182.099C-6.39167 211.035 36.2319 238.035 95.9876 242.398Z" fill="url(#paint0_radial)"/>
<path d="M29.0664 177.03C49.9395 174.343 104.438 167.504 126.932 145.146L133.184 147.318C110.7 168.752 73.2145 175.125 35.9669 180.383L29.0664 177.03Z" fill="url(#paint1_linear)"/>
<path d="M36.0623 180.383C65.7708 176.744 108.403 166.513 133.184 147.318L134.319 150.548C111.844 169.885 76.9984 179.821 36.0146 185.946L36.0623 180.383Z" fill="#429B91"/>
<path d="M96.0986 163.265L123.691 0.476562L127.885 1.26722L99.6823 164.885L96.0986 163.265Z" fill="url(#paint2_linear)"/>
<path d="M132.336 0.867188L127.885 1.26728L99.5967 164.999L105.306 162.456L132.336 0.867188Z" fill="#429B91"/>
<path d="M128.723 4.13477L127.637 10.8506L188.903 19.4048L190.332 11.9365L128.723 4.13477Z" fill="url(#paint3_linear)"/>
<path d="M126.713 15.9648L187.312 25.024L171.023 123.341L111.939 102.537L126.713 15.9648Z" fill="url(#paint4_linear)"/>
<path d="M29.0664 176.973V182.45L35.9765 185.946L36.0622 180.383L29.0664 176.973Z" fill="#A5DAD6"/>
<path d="M82.5645 216.952C119.917 208.379 152.856 193.766 179.782 170.818L186.025 172.99C160.361 196.538 128.168 212.31 89.4459 220.306L82.5645 216.952Z" fill="url(#paint5_linear)"/>
<path d="M89.4459 220.307L89.3887 225.86C127.761 218.973 161.11 201.874 186.844 175.878L186.044 172.963C157.193 198.073 124.768 213.2 89.4459 220.307Z" fill="#429B91"/>
<path d="M53.523 117.635L108.413 115.787L168.506 142.126L111.262 152.7L52.5127 121.665" fill="url(#paint6_linear)"/>
<path d="M82.4502 216.896V222.374L89.3603 225.87L89.446 220.307L82.4502 216.896Z" fill="#A5DAD6"/>
<path d="M123.358 112.436L118.907 112.683L98.8438 217.373L104.324 215.973L123.358 112.436Z" fill="#429B91"/>
<path d="M39.8457 176.629L52.036 86.7422L55.9819 87.9901L43.7153 178.868L39.8457 176.629Z" fill="url(#paint7_linear)"/>
<path d="M60.4332 87.7715L55.9821 87.9906L43.7061 178.868L49.2627 177.896L60.4332 87.7715Z" fill="#429B91"/>
<path d="M158.88 187.319L189.484 8.42188L193.516 9.4221L163.474 189.367L158.88 187.319Z" fill="url(#paint8_linear)"/>
<path d="M197.968 8.99219L193.517 9.42086L163.389 189.499L168.23 186.032L197.968 8.99219Z" fill="#429B91"/>
<path d="M112.836 106.929L173.044 104.252L177.276 106.691L119.746 109.663L112.836 106.929Z" fill="url(#paint9_linear)"/>
<path d="M56.0492 122.865L111.263 152.024L108.585 163.77L54.7148 133.572L56.0492 122.865Z" fill="url(#paint10_linear)"/>
<path d="M177.408 106.768L177.122 111.473L119.621 114.569L119.745 109.663L177.408 106.768Z" fill="#429B91"/>
<path d="M48.1666 82.0859L48.1094 86.9156L54.9908 89.7448L55.1147 84.8389L48.1666 82.0859Z" fill="#A5DAD6"/>
<path d="M48.2051 82.0952L110.424 79.0469L114.351 80.4948L55.1151 84.8386L48.2051 82.0952Z" fill="url(#paint11_linear)"/>
<path d="M114.666 80.4277L114.284 85.0288L54.9912 89.7441L55.1151 84.8382L114.666 80.4277Z" fill="#429B91"/>
<path d="M99.2633 192.204L47.1758 157.93L50.3592 157.092L99.7017 190.004L99.2633 192.204Z" fill="url(#paint12_linear)"/>
<path d="M97.9861 198.854L46.7754 163.16L47.2234 157.949L99.2632 192.195L97.9861 198.854Z" fill="url(#paint13_linear)"/>
<path d="M115.075 151.862L167.038 142.336L165.399 152.405L113.502 162.712L115.075 151.862Z" fill="#429B91"/>
<path d="M127.771 0L132.25 0.838282L127.885 1.26695L123.691 0.476297L127.771 0Z" fill="url(#paint14_linear)"/>
<path d="M193.573 7.94531L197.996 9.00269L193.487 9.54567L189.484 8.42161L193.573 7.94531Z" fill="url(#paint15_linear)"/>
<path d="M126.713 15.9659L129.286 15.8516L186.873 24.3392L186.645 25.0536L126.713 15.9659Z" fill="url(#paint16_linear)"/>
<path d="M128.781 4.11431L131.355 4L189.294 11.173L189.275 11.9161L128.781 4.11431Z" fill="url(#paint17_linear)"/>
<path d="M94.8975 214.525L114.96 111.264L118.906 112.683L98.8433 217.459L94.8975 214.525Z" fill="url(#paint18_linear)"/>
<path d="M112.788 106.91L112.73 111.749L119.621 114.569L119.745 109.663L112.788 106.91Z" fill="#A5DAD6"/>
<defs>
<radialGradient id="paint0_radial" cx="0" cy="0" r="1" gradientUnits="userSpaceOnUse" gradientTransform="translate(109.789 190.233) rotate(3.05074) scale(108.365 46.3704)">
<stop stop-color="#3CCFC7" stop-opacity="0.42"/>
<stop offset="0.83" stop-color="#4EBDB4" stop-opacity="0.06"/>
<stop offset="0.91" stop-color="#4FBBB2" stop-opacity="0.02"/>
<stop offset="1" stop-color="#50BAB1" stop-opacity="0"/>
</radialGradient>
<linearGradient id="paint1_linear" x1="29.0664" y1="162.769" x2="133.184" y2="162.769" gradientUnits="userSpaceOnUse">
<stop stop-color="#1DBAB1"/>
<stop offset="1" stop-color="#8FD3D2"/>
</linearGradient>
<linearGradient id="paint2_linear" x1="3967.98" y1="14269.5" x2="5028.06" y2="14269.5" gradientUnits="userSpaceOnUse">
<stop stop-color="#1DBAB1"/>
<stop offset="1" stop-color="#8FD3D2"/>
</linearGradient>
<linearGradient id="paint3_linear" x1="9839.19" y1="192.873" x2="13963.3" y2="192.873" gradientUnits="userSpaceOnUse">
<stop stop-color="#1DBAB1"/>
<stop offset="1" stop-color="#8FD3D2"/>
</linearGradient>
<linearGradient id="paint4_linear" x1="160.605" y1="12.3831" x2="139.068" y2="117.573" gradientUnits="userSpaceOnUse">
<stop stop-color="#CDFFEB"/>
<stop offset="1" stop-color="#78DCB5"/>
</linearGradient>
<linearGradient id="paint5_linear" x1="14757.4" y1="12701" x2="25984.9" y2="12701" gradientUnits="userSpaceOnUse">
<stop stop-color="#1DBAB1"/>
<stop offset="1" stop-color="#8FD3D2"/>
</linearGradient>
<linearGradient id="paint6_linear" x1="8877.31" y1="5317.57" x2="22993.7" y2="5317.57" gradientUnits="userSpaceOnUse">
<stop stop-color="#CDFFEB"/>
<stop offset="1" stop-color="#78DCB5"/>
</linearGradient>
<linearGradient id="paint7_linear" x1="1053.04" y1="12930.9" x2="1326.22" y2="12930.9" gradientUnits="userSpaceOnUse">
<stop stop-color="#1DBAB1"/>
<stop offset="1" stop-color="#8FD3D2"/>
</linearGradient>
<linearGradient id="paint8_linear" x1="6659.38" y1="18792.3" x2="7918.05" y2="18792.3" gradientUnits="userSpaceOnUse">
<stop stop-color="#1DBAB1"/>
<stop offset="1" stop-color="#8FD3D2"/>
</linearGradient>
<linearGradient id="paint9_linear" x1="112.836" y1="106.957" x2="177.276" y2="106.957" gradientUnits="userSpaceOnUse">
<stop stop-color="#5CACA1"/>
<stop offset="0.48" stop-color="#9ED7C9"/>
</linearGradient>
<linearGradient id="paint10_linear" x1="4487.52" y1="6276.93" x2="7842.52" y2="6276.93" gradientUnits="userSpaceOnUse">
<stop stop-color="#1DBAB1"/>
<stop offset="1" stop-color="#8FD3D2"/>
</linearGradient>
<linearGradient id="paint11_linear" x1="4781.61" y1="577.254" x2="9372.13" y2="577.254" gradientUnits="userSpaceOnUse">
<stop stop-color="#5CACA1"/>
<stop offset="0.48" stop-color="#9ED7C9"/>
</linearGradient>
<linearGradient id="paint12_linear" x1="3749.21" y1="6594.63" x2="6643.91" y2="6594.63" gradientUnits="userSpaceOnUse">
<stop stop-color="#5CACA1"/>
<stop offset="0.48" stop-color="#9ED7C9"/>
</linearGradient>
<linearGradient id="paint13_linear" x1="3724.6" y1="7818.52" x2="6614.58" y2="7818.52" gradientUnits="userSpaceOnUse">
<stop stop-color="#1DBAB1"/>
<stop offset="1" stop-color="#8FD3D2"/>
</linearGradient>
<linearGradient id="paint14_linear" x1="1414.04" y1="0.836187" x2="1490.9" y2="0.836187" gradientUnits="userSpaceOnUse">
<stop stop-color="#5CACA1"/>
<stop offset="0.48" stop-color="#9ED7C9"/>
</linearGradient>
<linearGradient id="paint15_linear" x1="2060.27" y1="22.6366" x2="2136.19" y2="22.6366" gradientUnits="userSpaceOnUse">
<stop stop-color="#5CACA1"/>
<stop offset="0.48" stop-color="#9ED7C9"/>
</linearGradient>
<linearGradient id="paint16_linear" x1="9387.2" y1="213.42" x2="13184.5" y2="213.42" gradientUnits="userSpaceOnUse">
<stop stop-color="#5CACA1"/>
<stop offset="0.48" stop-color="#9ED7C9"/>
</linearGradient>
<linearGradient id="paint17_linear" x1="9574.86" y1="70.0991" x2="13416.8" y2="70.0991" gradientUnits="userSpaceOnUse">
<stop stop-color="#5CACA1"/>
<stop offset="0.48" stop-color="#9ED7C9"/>
</linearGradient>
<linearGradient id="paint18_linear" x1="2989.17" y1="18434.2" x2="3593.95" y2="18434.2" gradientUnits="userSpaceOnUse">
<stop stop-color="#1DBAB1"/>
<stop offset="1" stop-color="#8FD3D2"/>
</linearGradient>
</defs>
</svg>
