<svg width="181" height="50" viewBox="0 0 181 50" fill="none" xmlns="http://www.w3.org/2000/svg">
<path d="M73.173 27.0231C73.8164 25.9643 74.1381 24.729 74.1381 23.3173C74.1381 22.0776 73.8262 20.9806 73.2023 20.0264C72.5783 19.0721 71.7107 18.3186 70.5994 17.7657C69.4881 17.2128 68.2208 16.9362 66.7975 16.9358H57.205V36.9672H63.1125V30.2996H64.1069L67.9381 36.9672H74.9862L70.5409 29.4412C71.6385 28.9007 72.5527 28.0609 73.173 27.0231ZM67.4409 25.4206C67.0701 25.812 66.5241 26.0076 65.8031 26.0072H63.1125V21.7989H65.6862C66.466 21.7989 67.0461 21.9754 67.4263 22.3283C67.8065 22.6812 67.9966 23.1725 67.9966 23.802C67.9966 24.4888 67.8113 25.0283 67.4409 25.4206Z" fill="#FFFF00"/>
<path d="M87.839 22.3712C86.523 21.6844 85.0168 21.341 83.3206 21.341C81.6244 21.341 80.1133 21.6844 78.7875 22.3712C77.4617 23.058 76.4186 23.9976 75.6583 25.1899C74.8979 26.3823 74.5177 27.7511 74.5177 29.2964C74.5177 30.8417 74.8979 32.2105 75.6583 33.4028C76.4186 34.5952 77.4617 35.5347 78.7875 36.2215C80.1133 36.9083 81.6244 37.2517 83.3206 37.2517C85.0168 37.2517 86.523 36.9083 87.839 36.2215C89.1551 35.5347 90.1884 34.5952 90.9391 33.4028C91.6897 32.2105 92.065 30.8417 92.065 29.2964C92.065 27.7511 91.6897 26.3823 90.9391 25.1899C90.1884 23.9976 89.1551 23.058 87.839 22.3712ZM85.2947 31.5141C84.7784 32.0964 84.1204 32.3873 83.3206 32.3869C82.5017 32.3869 81.8291 32.096 81.3026 31.5141C80.7762 30.9323 80.513 30.193 80.513 29.2964C80.513 28.3806 80.7762 27.6319 81.3026 27.05C81.8291 26.4681 82.5017 26.1772 83.3206 26.1772C84.1204 26.1772 84.7784 26.4681 85.2947 27.05C85.811 27.6319 86.0693 28.3806 86.0697 29.2964C86.0697 30.1945 85.8119 30.9344 85.2964 31.5158L85.2947 31.5141Z" fill="#FFFF00"/>
<path d="M107.609 22.3712C106.585 21.6844 105.411 21.341 104.085 21.341C103.295 21.3359 102.511 21.4767 101.775 21.756C101.095 22.0072 100.47 22.3809 99.9321 22.8577V15.7895H93.966V36.9655H99.3179L99.5226 35.5633C100.03 36.0784 100.697 36.4934 101.526 36.8082C102.39 37.1292 103.307 37.2894 104.231 37.2803C105.518 37.2803 106.663 36.9417 107.667 36.2644C108.672 35.5872 109.461 34.6524 110.036 33.46C110.611 32.2681 110.899 30.8897 110.899 29.325C110.899 27.7797 110.607 26.4061 110.022 25.2042C109.437 24.0023 108.633 23.058 107.609 22.3712ZM104.392 31.7144C103.933 32.2776 103.285 32.559 102.447 32.5586C101.589 32.5586 100.931 32.2772 100.473 31.7144C100.015 31.1517 99.7858 30.3552 99.7858 29.325C99.7858 28.2948 100.015 27.4983 100.473 26.9355C100.931 26.3727 101.589 26.0913 102.447 26.0913C103.285 26.0913 103.933 26.3727 104.392 26.9355C104.851 27.4983 105.08 28.2948 105.079 29.325C105.079 30.3563 104.85 31.1534 104.392 31.7162V31.7144Z" fill="#FFFF00"/>
<path d="M124.953 22.3712C123.637 21.6844 122.131 21.341 120.435 21.341C118.739 21.341 117.228 21.6844 115.902 22.3712C114.576 23.058 113.533 23.9976 112.773 25.1899C112.012 26.3823 111.632 27.7511 111.632 29.2964C111.632 30.8417 112.012 32.2105 112.773 33.4028C113.533 34.5952 114.576 35.5347 115.902 36.2215C117.228 36.9083 118.739 37.2517 120.435 37.2517C122.131 37.2517 123.637 36.9083 124.953 36.2215C126.269 35.5347 127.303 34.5952 128.053 33.4028C128.804 32.2105 129.179 30.8417 129.179 29.2964C129.179 27.7511 128.804 26.3823 128.053 25.1899C127.303 23.9976 126.269 23.058 124.953 22.3712ZM122.409 31.5141C121.892 32.0964 121.234 32.3873 120.435 32.3869C119.616 32.3869 118.943 32.096 118.417 31.5141C117.891 30.9323 117.627 30.193 117.627 29.2964C117.627 28.3806 117.891 27.6319 118.417 27.05C118.943 26.4681 119.616 26.1772 120.435 26.1772C121.234 26.1772 121.892 26.4681 122.409 27.05C122.926 27.6319 123.184 28.3806 123.184 29.2964C123.182 30.1945 122.923 30.9344 122.407 31.5158L122.409 31.5141Z" fill="#FFFF00"/>
<path d="M148.771 17.7943H142.834V21.6575H137.833V17.7943H131.896V21.6575H129.469V26.5223H131.896V36.9673H137.833V26.5223H142.834V36.9673H148.771V26.5223H151.344V21.6575H148.771V17.7943Z" fill="#FFFF00"/>
<path d="M163.616 22.3712C162.455 21.6844 161.105 21.341 159.565 21.341C158.026 21.341 156.661 21.6844 155.471 22.3712C154.293 23.0464 153.323 24.0202 152.663 25.1899C151.98 26.3827 151.639 27.7515 151.64 29.2964C151.641 30.8413 151.992 32.2101 152.693 33.4028C153.395 34.5955 154.399 35.5351 155.705 36.2215C157.011 36.9079 158.571 37.2513 160.384 37.2517C161.43 37.2525 162.471 37.0981 163.47 36.7938C164.473 36.4886 165.521 35.9258 166.614 35.1055L163.894 31.3567C163.486 31.6499 163.038 31.8858 162.563 32.0578C162.143 32.2009 161.641 32.2725 161.057 32.2725C160.14 32.2725 159.375 32.1151 158.761 31.8003C158.148 31.4855 157.704 31.0515 157.43 30.4983H167.169L167.198 29.2964C167.237 27.7511 166.94 26.3823 166.306 25.1899C165.696 24.0229 164.764 23.0464 163.616 22.3712ZM157.197 27.7797C157.508 26.5969 158.337 26.0055 159.682 26.0055C160.345 26.0055 160.877 26.1629 161.276 26.4777C161.676 26.7924 161.886 27.2265 161.905 27.7797H157.197Z" fill="#FFFF00"/>
<path d="M180.093 21.4143C179.764 21.3654 179.432 21.3415 179.099 21.3427C178.208 21.3361 177.331 21.5581 176.555 21.9866C175.773 22.4175 175.094 23.0079 174.566 23.7179L174.42 21.6575H168.922V36.9655H174.858V29.8687C174.858 29.1247 175.049 28.5428 175.429 28.1231C175.809 27.7034 176.36 27.4935 177.081 27.4935C177.54 27.49 177.998 27.5478 178.441 27.6652C178.86 27.7797 179.167 27.9037 179.362 28.0373L181 21.5986C180.701 21.5219 180.399 21.4604 180.093 21.4143Z" fill="#FFFF00"/>
<path d="M44.7214 20.3899C43.9491 19.7524 42.7499 19.809 41.5973 20.4226C39.0517 16.1382 33.917 13.1226 26.3185 12.4253C23.9532 11.733 23.6572 6.15096 23.6271 3.83884C23.9797 3.67661 24.278 3.41873 24.4869 3.09546C24.6958 2.7722 24.8067 2.39696 24.8066 2.01382C24.8066 1.47972 24.5911 0.967528 24.2074 0.589863C23.8238 0.212199 23.3035 0 22.7609 0C22.2184 0 21.6981 0.212199 21.3144 0.589863C20.9308 0.967528 20.7152 1.47972 20.7152 2.01382C20.7151 2.39696 20.826 2.7722 21.0349 3.09546C21.2438 3.41873 21.5421 3.67661 21.8947 3.83884C21.864 6.18683 21.5584 11.9067 19.0908 12.4542C11.6368 13.2012 6.55012 16.2006 4.00899 20.434C2.84998 19.8097 1.64045 19.748 0.863727 20.3899C-0.304873 21.3553 -0.444868 24.2288 1.43077 25.663C1.66763 25.8442 1.91929 26.0059 2.18321 26.1463C2.1457 26.5713 2.12696 27.002 2.12696 27.4383C2.12696 29.7957 2.61025 31.8775 3.48542 33.6887C5.54709 31.9417 8.16877 30.5704 11.8919 30.6094C13.8353 28.5081 17.9861 27.0569 22.7929 27.0569C27.5996 27.0569 31.7504 28.5081 33.6938 30.6094C37.417 30.5704 40.0387 31.9417 42.1003 33.6887C42.9755 31.8775 43.4588 29.7957 43.4588 27.4383C43.4588 27.002 43.4405 26.5713 43.4038 26.1463C43.6671 26.0055 43.9183 25.8439 44.155 25.663C46.03 24.2288 45.89 21.3553 44.7214 20.3899ZM10.9336 26.5572C10.4589 26.5572 10.0036 26.3716 9.66794 26.0411C9.33225 25.7107 9.14366 25.2625 9.14366 24.7951C9.14366 24.3278 9.33225 23.8796 9.66794 23.5492C10.0036 23.2187 10.4589 23.0331 10.9336 23.0331C11.4084 23.0331 11.8636 23.2187 12.1993 23.5492C12.535 23.8796 12.7236 24.3278 12.7236 24.7951C12.7236 25.2625 12.535 25.7107 12.1993 26.0411C11.8636 26.3716 11.4084 26.5572 10.9336 26.5572ZM34.6509 26.5572C34.1761 26.5572 33.7208 26.3716 33.3852 26.0411C33.0495 25.7107 32.8609 25.2625 32.8609 24.7951C32.8609 24.3278 33.0495 23.8796 33.3852 23.5492C33.7208 23.2187 34.1761 23.0331 34.6509 23.0331C35.1256 23.0331 35.5809 23.2187 35.9165 23.5492C36.2522 23.8796 36.4408 24.3278 36.4408 24.7951C36.4408 25.2625 36.2522 25.7107 35.9165 26.0411C35.5809 26.3716 35.1256 26.5572 34.6509 26.5572Z" fill="#FFFF00"/>
<path d="M34.8158 32.7164C34.8503 32.9081 34.8677 33.1025 34.8676 33.2972C34.8675 33.5301 34.8521 33.7629 34.8215 33.9939C36.9989 34.5986 38.5293 35.7667 39.7088 37.1078C40.4842 36.3053 41.1545 35.4103 41.704 34.4439C39.5995 33.3828 37.2169 32.6666 34.8158 32.7164Z" fill="#FFFF00"/>
<path d="M33.6606 36.7013C34.989 37.4967 35.8782 38.5263 36.5265 39.6301C37.4616 39.0668 38.3356 38.4105 39.1347 37.6717C37.7136 36.6805 36.0828 35.9052 34.3491 35.6132C34.1671 36.003 33.9358 36.3686 33.6606 36.7013Z" fill="#FFFF00"/>
<path d="M11.9239 36.7013C11.6487 36.3686 11.4173 36.003 11.2354 35.6132C9.50165 35.9052 7.87083 36.683 6.44972 37.6717C7.24882 38.4105 8.12283 39.0668 9.05799 39.6301C9.70622 38.5288 10.5955 37.4967 11.9239 36.7013Z" fill="#FFFF00"/>
<path d="M11.2354 35.6132L11.7979 35.5363C11.6093 35.5565 11.422 35.5817 11.2354 35.6132Z" fill="#FFFF00"/>
<path d="M10.7629 33.9939C10.7324 33.7629 10.717 33.5301 10.7169 33.2972C10.7168 33.1025 10.7341 32.9081 10.7687 32.7164C8.36755 32.6666 5.98496 33.3828 3.88046 34.4439C4.42994 35.4103 5.10021 36.3053 5.87565 37.1078C7.05703 35.7667 8.58556 34.5986 10.7629 33.9939Z" fill="#FFFF00"/>
<path d="M32.531 37.683C32.0579 37.9721 31.5341 38.1715 30.9865 38.2707C28.4933 38.732 23.748 38.4671 23.6565 32.5678C25.5827 32.4596 26.789 31.9687 26.789 31.065C26.789 30.2218 24.999 29.5383 22.7929 29.5383C20.5867 29.5383 18.7967 30.2218 18.7967 31.065C18.7967 31.9687 20.0024 32.4596 21.9292 32.5678C21.8378 38.4671 17.0937 38.732 14.5992 38.2707C14.0516 38.1715 13.5278 37.9721 13.0548 37.683C11.7711 38.1864 10.6383 39.0221 9.68959 39.9963C13.3053 42.0001 17.9075 42.9825 22.7948 42.9825C27.6821 42.9825 32.283 42.0001 35.9 39.9963C34.9475 39.0221 33.8147 38.1852 32.531 37.683Z" fill="#FFFF00"/>
</svg>
