<svg width="181" height="50" viewBox="0 0 181 50" fill="none" xmlns="http://www.w3.org/2000/svg">
<path d="M67.2259 20.1584C66.8755 20.1064 66.5216 20.0808 66.1672 20.0818C65.2495 20.0779 64.3452 20.299 63.5361 20.7252C62.7142 21.1559 61.9971 21.7569 61.4344 22.4869C61.4014 22.5298 61.3684 22.5733 61.336 22.6168L61.1853 20.4189H55.3315V36.8084H61.6524V29.2101C61.6455 28.8468 61.6981 28.4847 61.808 28.1378C61.904 27.8457 62.0574 27.575 62.2595 27.3412C62.4616 27.1137 62.7186 26.9399 63.0068 26.8357C63.331 26.7198 63.6739 26.6627 64.0188 26.6672C64.5076 26.6633 64.9948 26.7252 65.4666 26.851C65.9131 26.9736 66.2401 27.1071 66.4475 27.2493L68.1911 20.3557C67.873 20.2739 67.5508 20.2081 67.2259 20.1584Z" fill="#FFFF00"/>
<path d="M82.0023 21.183C80.6011 20.4477 78.9975 20.08 77.1916 20.08C75.3856 20.08 73.7769 20.4477 72.3653 21.183C70.9538 21.9183 69.8432 22.9242 69.0337 24.2008C68.2241 25.4774 67.8193 26.9429 67.8193 28.5974C67.8193 30.2518 68.2241 31.7173 69.0337 32.9939C69.8432 34.2705 70.9538 35.2765 72.3653 36.0118C73.7769 36.7471 75.3856 37.1147 77.1916 37.1147C78.9975 37.1147 80.6011 36.7471 82.0023 36.0118C83.4034 35.2765 84.5036 34.2705 85.3028 32.9939C86.102 31.7173 86.5015 30.2518 86.5015 28.5974C86.5015 26.9429 86.102 25.4774 85.3028 24.2008C84.5036 22.9242 83.4034 21.9183 82.0023 21.183ZM79.7448 30.2978C79.514 30.7779 79.1531 31.1861 78.7017 31.4773C78.2527 31.7645 77.727 31.9138 77.1916 31.9063C76.646 31.9168 76.1095 31.7675 75.6503 31.4773C75.1967 31.1843 74.8311 30.777 74.5916 30.2978C74.3255 29.7698 74.192 29.1866 74.2024 28.5974C74.2024 27.9438 74.3322 27.3667 74.5916 26.8663C74.8318 26.3876 75.1972 25.9805 75.6503 25.6868C76.1097 25.3971 76.646 25.2479 77.1916 25.2578C77.727 25.2509 78.2524 25.4002 78.7017 25.6868C79.1525 25.9786 79.5133 26.3866 79.7448 26.8663C79.9939 27.3676 80.1185 27.9446 80.1185 28.5974C80.1286 29.1856 80.0003 29.7683 79.7436 30.2996L79.7448 30.2978Z" fill="#FFFF00"/>
<path d="M102.707 21.183C101.617 20.4477 100.366 20.08 98.9545 20.08C98.2689 20.0773 97.5867 20.1754 96.9306 20.3711C96.309 20.5555 95.7207 20.8346 95.1869 21.1983C94.9568 21.3571 94.7383 21.5315 94.533 21.7204V14.1362H88.1811V36.8084H93.8792L94.089 35.2875C94.3924 35.6012 94.7351 35.8754 95.1091 36.1037C95.6745 36.446 96.2884 36.7041 96.9306 36.8696C97.6414 37.0567 98.3744 37.1495 99.1102 37.1454C100.48 37.1454 101.7 36.7828 102.769 36.0577C103.838 35.3326 104.679 34.3318 105.291 33.0552C105.903 31.7794 106.209 30.3037 106.209 28.628C106.209 26.9736 105.898 25.5029 105.275 24.2161C104.653 22.9293 103.796 21.9183 102.707 21.183ZM99.6881 30.4969C99.4701 31.008 99.1536 31.4012 98.7384 31.6765C98.3232 31.9518 97.8147 32.0897 97.2127 32.0901C96.6107 32.0901 96.097 31.9522 95.6714 31.6765C95.2357 31.3886 94.8991 30.9772 94.7062 30.4969C94.4882 29.9871 94.3792 29.3641 94.3792 28.628C94.3792 27.8919 94.4882 27.2638 94.7062 26.7438C94.9241 26.2229 95.2459 25.8297 95.6714 25.5642C96.097 25.2987 96.6107 25.1659 97.2127 25.1659C97.8151 25.1659 98.3237 25.2987 98.7384 25.5642C99.1532 25.8297 99.4697 26.2229 99.6881 26.7438C99.906 27.2646 100.015 27.8927 100.015 28.628C100.015 29.3633 99.906 29.9863 99.6881 30.4969Z" fill="#FFFF00"/>
<path d="M121.326 21.183C119.925 20.4477 118.322 20.08 116.516 20.08C114.71 20.08 113.101 20.4477 111.69 21.183C110.278 21.9183 109.167 22.9242 108.358 24.2008C107.548 25.4774 107.144 26.9429 107.144 28.5974C107.144 30.2518 107.548 31.7173 108.358 32.9939C109.167 34.2705 110.278 35.2765 111.69 36.0118C113.101 36.7471 114.71 37.1147 116.516 37.1147C118.322 37.1147 119.925 36.7471 121.326 36.0118C122.728 35.2765 123.828 34.2705 124.627 32.9939C125.426 31.7173 125.826 30.2518 125.826 28.5974C125.826 26.9429 125.426 25.4774 124.627 24.2008C123.828 22.9242 122.728 21.9183 121.326 21.183ZM119.069 30.2978C118.838 30.7779 118.477 31.1861 118.026 31.4773C117.577 31.7644 117.051 31.9137 116.516 31.9063C115.97 31.9168 115.434 31.7675 114.974 31.4773C114.521 31.1844 114.155 30.7771 113.916 30.2978C113.649 29.7699 113.516 29.1867 113.527 28.5974C113.527 27.9438 113.656 27.3667 113.916 26.8663C114.156 26.3875 114.521 25.9803 114.974 25.6868C115.434 25.3971 115.97 25.2479 116.516 25.2578C117.051 25.251 117.577 25.4002 118.026 25.6868C118.477 25.9786 118.838 26.3866 119.069 26.8663C119.318 27.3676 119.443 27.9446 119.443 28.5974C119.453 29.1855 119.325 29.7682 119.069 30.2996V30.2978Z" fill="#FFFF00"/>
<path d="M140.055 25.6273V36.8102H146.376V25.6273H149.116V20.4189H146.376V16.2827H140.055V20.4189H135.197V16.2827H128.877V20.4189H126.292V25.6273H128.877V36.8102H135.197V25.6273H140.055Z" fill="#FFFF00"/>
<path d="M163.968 22.4869C163.239 21.7197 162.353 21.114 161.368 20.7099C160.361 20.292 159.245 20.0827 158.021 20.0818C156.797 20.081 155.67 20.2904 154.642 20.7099C153.635 21.1153 152.724 21.7202 151.965 22.4869C151.199 23.2652 150.601 24.1874 150.205 25.1984C149.79 26.2401 149.583 27.3737 149.583 28.5992C149.583 30.2537 149.956 31.7192 150.704 32.9958C151.451 34.2724 152.52 35.2783 153.911 36.0136C155.301 36.7489 156.962 37.1166 158.893 37.1166C159.63 37.1175 160.365 37.0456 161.088 36.9021C161.839 36.7485 162.57 36.5121 163.267 36.1974C164.074 35.8293 164.832 35.3664 165.525 34.8187L162.629 30.8051C162.196 31.1191 161.72 31.3718 161.215 31.5558C160.768 31.709 160.234 31.7856 159.611 31.7856C158.677 31.7856 157.894 31.6324 157.26 31.326C156.627 31.0196 156.15 30.5907 155.828 30.0392C155.799 29.989 155.771 29.9381 155.745 29.886H166.119L166.15 28.5992C166.192 27.3737 166.02 26.2401 165.636 25.1984C165.274 24.1923 164.706 23.2696 163.968 22.4869ZM156.62 25.4435C157.035 25.1984 157.543 25.0758 158.145 25.0758C158.574 25.0661 158.999 25.1498 159.391 25.3209C159.727 25.4699 160.014 25.7088 160.218 26.0103C160.407 26.2983 160.509 26.6328 160.512 26.9754H155.486C155.532 26.807 155.593 26.643 155.669 26.4852C155.872 26.052 156.204 25.689 156.62 25.4435Z" fill="#FFFF00"/>
<path d="M180.035 20.1584C179.684 20.1064 179.33 20.0808 178.976 20.0818C178.058 20.0778 177.154 20.2989 176.345 20.7252C175.523 21.1559 174.806 21.7569 174.243 22.4869C174.21 22.5298 174.177 22.5733 174.145 22.6168L173.994 20.4189H168.14V36.8083H174.461V29.2101C174.454 28.8468 174.507 28.4847 174.617 28.1378C174.713 27.8457 174.866 27.575 175.068 27.3412C175.27 27.1135 175.527 26.9396 175.816 26.8357C176.14 26.7198 176.483 26.6627 176.828 26.6672C177.316 26.6633 177.804 26.7252 178.275 26.851C178.721 26.9735 179.049 27.1071 179.256 27.2493L181 20.3557C180.682 20.2739 180.36 20.208 180.035 20.1584Z" fill="#FFFF00"/>
<path d="M45.5458 22.12C45.133 21.6484 44.5154 21.4196 43.8094 21.4196C43.5252 21.4213 43.2422 21.4548 42.9658 21.5193C41.0246 16.2223 35.7045 12.3363 27.1912 11.4084C27.0024 11.3876 26.8123 11.3685 26.6209 11.3509C24.8229 11.009 23.9108 10.2212 23.833 6.32669C24.1842 6.17742 24.4834 5.93047 24.6935 5.61627C24.9037 5.30207 25.0158 4.93433 25.0159 4.55835C25.0159 4.04734 24.8093 3.55727 24.4415 3.19593C24.0737 2.83459 23.5749 2.63159 23.0547 2.63159C22.5346 2.63159 22.0358 2.83459 21.668 3.19593C21.3002 3.55727 21.0936 4.04734 21.0936 4.55835C21.0937 4.93433 21.2058 5.30207 21.4159 5.61627C21.6261 5.93047 21.9253 6.17742 22.2765 6.32669C22.1968 10.3172 21.2411 11.0457 19.3541 11.376C10.6422 12.2427 5.14843 16.1593 3.15614 21.5218C2.10396 21.2771 1.13707 21.4655 0.563665 22.12C-0.491003 23.325 -0.156061 26.557 2.34115 27.581C2.83922 37.2576 9.39386 41.9007 23.0361 41.9007C24.5041 41.9007 25.8908 41.8467 27.1962 41.7387C35.8533 41.023 40.9766 37.9231 42.9122 32.2975C43.3983 30.8854 43.6853 29.3132 43.7733 27.581C46.2655 26.557 46.6005 23.325 45.5458 22.12ZM10.8794 21.5933C11.7392 21.5933 12.4358 22.5518 12.4358 23.7342C12.4358 24.9165 11.7392 25.875 10.8794 25.875C10.0196 25.875 9.32288 24.9165 9.32288 23.7342C9.32288 22.5518 10.0208 21.5933 10.8794 21.5933ZM23.922 30.8675C25.8676 30.7586 27.0854 30.2631 27.0854 29.3524C27.0854 28.5034 25.2799 27.8146 23.051 27.8146C20.8221 27.8146 19.0166 28.5034 19.0166 29.3524C19.0166 30.2631 20.2344 30.7592 22.18 30.8675C22.1576 37.0961 17.3493 37.6796 14.8123 37.1995C14.1433 37.0768 13.5092 36.8137 12.9532 36.4281C12.7303 36.5046 11.3862 36.9946 10.3564 38.0185C10.3182 38.056 10.2687 38.0803 10.2152 38.0877C10.1618 38.0952 10.1073 38.0853 10.0601 38.0597C10.0128 38.0341 9.97528 37.9941 9.95315 37.9458C9.93102 37.8974 9.92549 37.8433 9.93739 37.7916C10.2225 36.4759 11.3756 35.6507 11.8587 35.3583C11.68 35.1151 11.5239 34.8565 11.3924 34.5858C10.6714 34.6671 8.86715 34.9608 7.31877 35.94C7.27407 35.9682 7.22139 35.9816 7.1684 35.9783C7.1154 35.9749 7.06488 35.955 7.02421 35.9215C6.98354 35.888 6.95484 35.8425 6.94231 35.7918C6.92978 35.7411 6.93406 35.6878 6.95455 35.6397C7.87349 33.4206 10.5033 32.7373 10.8769 32.6511C10.8669 32.5177 10.8619 32.3832 10.8619 32.2492C10.8619 32.0977 10.8719 31.9463 10.8918 31.796C10.1814 31.7428 9.12863 31.7458 8.09015 32.0474C8.03918 32.062 7.98477 32.0603 7.93487 32.0425C7.88496 32.0246 7.84218 31.9915 7.81277 31.9481C7.78335 31.9046 7.76885 31.8531 7.77138 31.8009C7.7739 31.7488 7.79332 31.6989 7.8268 31.6583C9.03089 30.2289 11.106 30.2038 11.4845 30.2118C13.097 27.6507 17.6675 25.8041 23.0535 25.8041C24.4424 25.8012 25.8283 25.9288 27.1925 26.1851C31.888 27.0812 35.2444 29.4582 35.2444 32.2492C35.2444 32.2657 35.2444 32.2816 35.2444 32.2982C35.2245 34.5375 33.8174 36.723 31.2928 37.2001C30.8247 37.2872 30.3492 37.3308 29.8727 37.3304C29.0142 37.3304 28.0703 37.1897 27.1956 36.8111C25.4305 36.052 23.9357 34.3338 23.9232 30.8675H23.922ZM40.2183 35.5492C39.3577 36.5949 38.318 37.485 37.1458 38.1794C35.9131 38.9213 34.4531 39.5287 32.8057 39.9856C31.3738 40.3826 29.76 40.6768 27.9993 40.8621V37.9096C28.6112 38.0526 29.2381 38.1243 29.8671 38.1231C30.395 38.1238 30.9218 38.0754 31.4404 37.9787C34.0036 37.4943 35.8452 35.3485 36.0326 32.6933H41.8912C41.4799 33.7208 40.9166 34.6831 40.2195 35.5492H40.2183ZM45.199 24.7275C45.0589 25.3092 44.6455 26.3582 43.452 26.847C43.3108 26.9045 43.1891 27.0003 43.1009 27.123C43.0128 27.2458 42.9618 27.3906 42.954 27.5406C42.8712 29.1383 42.6115 30.6044 42.1819 31.9H36.032C35.9125 30.4191 35.029 29.0325 33.4588 27.8709C32.0505 26.8311 30.1716 26.0285 27.9944 25.5398V12.3094C31.5998 12.8061 34.6561 13.8722 37.0842 15.4846C38.2783 16.2678 39.3423 17.2271 40.2388 18.3289C41.0784 19.3703 41.7403 20.5387 42.1988 21.7885C42.2551 21.9424 42.3584 22.0755 42.4945 22.1696C42.6307 22.2637 42.7931 22.3143 42.9596 22.3145C43.0224 22.3147 43.0851 22.3077 43.1463 22.2937C43.3625 22.2428 43.584 22.2163 43.8063 22.2148C44.1493 22.2148 44.6225 22.2882 44.927 22.6387C45.2246 22.9727 45.4331 23.769 45.2034 24.7275H45.199Z" fill="#FFFF00"/>
<path d="M35.2226 22.3273C34.8429 22.3273 34.4786 22.4756 34.2101 22.7394C33.9416 23.0032 33.7907 23.3611 33.7907 23.7342C33.7907 24.1073 33.9416 24.4651 34.2101 24.729C34.4786 24.9928 34.8429 25.141 35.2226 25.141C35.6024 25.141 35.9666 24.9928 36.2352 24.729C36.5037 24.4651 36.6546 24.1073 36.6546 23.7342C36.6546 23.3611 36.5037 23.0032 36.2352 22.7394C35.9666 22.4756 35.6024 22.3273 35.2226 22.3273ZM35.2226 24.3458C35.0575 24.3458 34.8992 24.2814 34.7824 24.1667C34.6656 24.052 34.6001 23.8964 34.6001 23.7342C34.6001 23.572 34.6656 23.4164 34.7824 23.3017C34.8992 23.187 35.0575 23.1225 35.2226 23.1225C35.3878 23.1225 35.5461 23.187 35.6629 23.3017C35.7796 23.4164 35.8452 23.572 35.8452 23.7342C35.8452 23.8964 35.7796 24.052 35.6629 24.1667C35.5461 24.2814 35.3878 24.3458 35.2226 24.3458Z" fill="#FFFF00"/>
<path d="M35.2226 20.6758C34.397 20.6758 33.6053 20.998 33.0215 21.5716C32.4377 22.1452 32.1097 22.9231 32.1097 23.7342C32.1097 24.5453 32.4377 25.3232 33.0215 25.8968C33.6053 26.4703 34.397 26.7925 35.2226 26.7925C36.0483 26.7925 36.84 26.4703 37.4238 25.8968C38.0076 25.3232 38.3356 24.5453 38.3356 23.7342C38.3356 22.9231 38.0076 22.1452 37.4238 21.5716C36.84 20.998 36.0483 20.6758 35.2226 20.6758ZM35.2226 25.9974C34.6117 25.9974 34.0258 25.7589 33.5938 25.3345C33.1618 24.9101 32.9191 24.3344 32.9191 23.7342C32.9191 23.1339 33.1618 22.5583 33.5938 22.1339C34.0258 21.7094 34.6117 21.471 35.2226 21.471C35.8336 21.471 36.4195 21.7094 36.8515 22.1339C37.2835 22.5583 37.5262 23.1339 37.5262 23.7342C37.5262 24.3344 37.2835 24.9101 36.8515 25.3345C36.4195 25.7589 35.8336 25.9974 35.2226 25.9974Z" fill="#FFFF00"/>
<path d="M35.2226 20.6758C34.397 20.6758 33.6053 20.998 33.0215 21.5716C32.4377 22.1452 32.1097 22.9231 32.1097 23.7342C32.1097 24.5453 32.4377 25.3232 33.0215 25.8968C33.6053 26.4703 34.397 26.7925 35.2226 26.7925C36.0483 26.7925 36.84 26.4703 37.4238 25.8968C38.0076 25.3232 38.3356 24.5453 38.3356 23.7342C38.3356 22.9231 38.0076 22.1452 37.4238 21.5716C36.84 20.998 36.0483 20.6758 35.2226 20.6758ZM35.2226 25.9974C34.6117 25.9974 34.0258 25.7589 33.5938 25.3345C33.1618 24.9101 32.9191 24.3344 32.9191 23.7342C32.9191 23.1339 33.1618 22.5583 33.5938 22.1339C34.0258 21.7094 34.6117 21.471 35.2226 21.471C35.8336 21.471 36.4195 21.7094 36.8515 22.1339C37.2835 22.5583 37.5262 23.1339 37.5262 23.7342C37.5262 24.3344 37.2835 24.9101 36.8515 25.3345C36.4195 25.7589 35.8336 25.9974 35.2226 25.9974Z" fill="#FFFF00"/>
<path d="M35.2226 22.3273C34.8429 22.3273 34.4786 22.4756 34.2101 22.7394C33.9416 23.0032 33.7907 23.3611 33.7907 23.7342C33.7907 24.1073 33.9416 24.4651 34.2101 24.729C34.4786 24.9928 34.8429 25.141 35.2226 25.141C35.6024 25.141 35.9666 24.9928 36.2352 24.729C36.5037 24.4651 36.6546 24.1073 36.6546 23.7342C36.6546 23.3611 36.5037 23.0032 36.2352 22.7394C35.9666 22.4756 35.6024 22.3273 35.2226 22.3273ZM35.2226 24.3458C35.0575 24.3458 34.8992 24.2814 34.7824 24.1667C34.6656 24.052 34.6001 23.8964 34.6001 23.7342C34.6001 23.572 34.6656 23.4164 34.7824 23.3017C34.8992 23.187 35.0575 23.1225 35.2226 23.1225C35.3878 23.1225 35.5461 23.187 35.6629 23.3017C35.7796 23.4164 35.8452 23.572 35.8452 23.7342C35.8452 23.8964 35.7796 24.052 35.6629 24.1667C35.5461 24.2814 35.3878 24.3458 35.2226 24.3458Z" fill="#FFFF00"/>
<path d="M35.2226 22.3273C34.8429 22.3273 34.4786 22.4756 34.2101 22.7394C33.9416 23.0032 33.7907 23.3611 33.7907 23.7342C33.7907 24.1073 33.9416 24.4651 34.2101 24.729C34.4786 24.9928 34.8429 25.141 35.2226 25.141C35.6024 25.141 35.9666 24.9928 36.2352 24.729C36.5037 24.4651 36.6546 24.1073 36.6546 23.7342C36.6546 23.3611 36.5037 23.0032 36.2352 22.7394C35.9666 22.4756 35.6024 22.3273 35.2226 22.3273ZM35.2226 24.3458C35.0575 24.3458 34.8992 24.2814 34.7824 24.1667C34.6656 24.052 34.6001 23.8964 34.6001 23.7342C34.6001 23.572 34.6656 23.4164 34.7824 23.3017C34.8992 23.187 35.0575 23.1225 35.2226 23.1225C35.3878 23.1225 35.5461 23.187 35.6629 23.3017C35.7796 23.4164 35.8452 23.572 35.8452 23.7342C35.8452 23.8964 35.7796 24.052 35.6629 24.1667C35.5461 24.2814 35.3878 24.3458 35.2226 24.3458Z" fill="#FFFF00"/>
</svg>
