<svg width="128" height="104" viewBox="0 0 128 104" fill="none" xmlns="http://www.w3.org/2000/svg">
<g filter="url(#filter0_d_7:19129)">
<path d="M64 85.2417C63.5905 85.2417 63.199 85.0737 62.9162 84.779L16.4162 36.1588C16.0007 35.7253 15.8852 35.0848 16.1207 34.5328C16.357 33.9808 16.8992 33.6223 17.5 33.6223H110.5C111.101 33.6223 111.643 33.9808 111.879 34.5328C112.115 35.0848 111.999 35.7253 111.584 36.1588L65.0837 84.779C64.801 85.0745 64.4095 85.2417 64 85.2417ZM21.01 36.6223L64 81.572L106.989 36.6223H21.01Z" fill="#404AFF"/>
</g>
<g filter="url(#filter1_d_7:19129)">
<path d="M64 85.2417C63.397 85.2417 62.8525 84.881 62.6178 84.3245L42.1195 35.7043L44.884 34.5388L64 79.8815L80.7603 40.1345L83.5248 41.3L65.383 84.3252C65.1475 84.881 64.6038 85.2417 64 85.2417Z" fill="#404AFF"/>
</g>
<g filter="url(#filter2_d_7:19129)">
<path d="M110.5 36.7633H17.5C16.9457 36.7633 16.4365 36.458 16.1755 35.9675C15.9152 35.4785 15.946 34.8853 16.255 34.4248L29.0515 15.4198C29.3305 15.0058 29.797 14.7575 30.2957 14.7575H97.708C98.2075 14.7575 98.6732 15.0058 98.9522 15.4205L111.743 34.4255C112.053 34.8853 112.083 35.4785 111.823 35.9683C111.563 36.4573 111.054 36.7633 110.5 36.7633ZM20.3185 33.7633H107.682L96.9107 17.7583H31.0945L20.3185 33.7633Z" fill="#404AFF"/>
</g>
<g filter="url(#filter3_d_7:19129)">
<path d="M44.5269 36.3583L42.4764 34.1683L62.9747 14.9713H65.0252L80.3199 29.2933L78.2687 31.4833L63.9999 18.1213L44.5269 36.3583Z" fill="#404AFF"/>
</g>
<g filter="url(#filter4_d_7:19129)">
<path d="M44.572 34.4167L35.1053 20.5814L32.6294 22.2755L42.0961 36.1108L44.572 34.4167Z" fill="#404AFF"/>
</g>
<g filter="url(#filter5_d_7:19129)">
<path d="M110.5 36.7632H84.6723C84.1158 36.7632 83.605 36.4557 83.3455 35.9637C83.0853 35.4717 83.1198 34.8762 83.434 34.4165L96.4375 15.4115C96.7173 15.0027 97.18 14.7582 97.675 14.7582C98.1745 14.7582 98.674 15.0065 98.953 15.4212L111.744 34.4262C112.054 34.886 112.084 35.4792 111.824 35.969C111.564 36.4572 111.054 36.7632 110.5 36.7632ZM87.5155 33.7632H107.682L97.6818 18.905L87.5155 33.7632Z" fill="#404AFF"/>
</g>
<defs>
<filter id="filter0_d_7:19129" x="0.000244141" y="19.6223" width="128" height="83.6195" filterUnits="userSpaceOnUse" color-interpolation-filters="sRGB">
<feFlood flood-opacity="0" result="BackgroundImageFix"/>
<feColorMatrix in="SourceAlpha" type="matrix" values="0 0 0 0 0 0 0 0 0 0 0 0 0 0 0 0 0 0 127 0" result="hardAlpha"/>
<feOffset dy="2"/>
<feGaussianBlur stdDeviation="8"/>
<feComposite in2="hardAlpha" operator="out"/>
<feColorMatrix type="matrix" values="0 0 0 0 0 0 0 0 0 0.054902 0 0 0 0 1 0 0 0 0.42 0"/>
<feBlend mode="normal" in2="BackgroundImageFix" result="effect1_dropShadow_7:19129"/>
<feBlend mode="normal" in="SourceGraphic" in2="effect1_dropShadow_7:19129" result="shape"/>
</filter>
<filter id="filter1_d_7:19129" x="26.1195" y="20.5388" width="73.4053" height="82.703" filterUnits="userSpaceOnUse" color-interpolation-filters="sRGB">
<feFlood flood-opacity="0" result="BackgroundImageFix"/>
<feColorMatrix in="SourceAlpha" type="matrix" values="0 0 0 0 0 0 0 0 0 0 0 0 0 0 0 0 0 0 127 0" result="hardAlpha"/>
<feOffset dy="2"/>
<feGaussianBlur stdDeviation="8"/>
<feComposite in2="hardAlpha" operator="out"/>
<feColorMatrix type="matrix" values="0 0 0 0 0 0 0 0 0 0.054902 0 0 0 0 1 0 0 0 0.42 0"/>
<feBlend mode="normal" in2="BackgroundImageFix" result="effect1_dropShadow_7:19129"/>
<feBlend mode="normal" in="SourceGraphic" in2="effect1_dropShadow_7:19129" result="shape"/>
</filter>
<filter id="filter2_d_7:19129" x="-0.000244141" y="0.757507" width="127.999" height="54.0057" filterUnits="userSpaceOnUse" color-interpolation-filters="sRGB">
<feFlood flood-opacity="0" result="BackgroundImageFix"/>
<feColorMatrix in="SourceAlpha" type="matrix" values="0 0 0 0 0 0 0 0 0 0 0 0 0 0 0 0 0 0 127 0" result="hardAlpha"/>
<feOffset dy="2"/>
<feGaussianBlur stdDeviation="8"/>
<feComposite in2="hardAlpha" operator="out"/>
<feColorMatrix type="matrix" values="0 0 0 0 0 0 0 0 0 0.054902 0 0 0 0 1 0 0 0 0.42 0"/>
<feBlend mode="normal" in2="BackgroundImageFix" result="effect1_dropShadow_7:19129"/>
<feBlend mode="normal" in="SourceGraphic" in2="effect1_dropShadow_7:19129" result="shape"/>
</filter>
<filter id="filter3_d_7:19129" x="26.4764" y="0.971252" width="69.8435" height="53.387" filterUnits="userSpaceOnUse" color-interpolation-filters="sRGB">
<feFlood flood-opacity="0" result="BackgroundImageFix"/>
<feColorMatrix in="SourceAlpha" type="matrix" values="0 0 0 0 0 0 0 0 0 0 0 0 0 0 0 0 0 0 127 0" result="hardAlpha"/>
<feOffset dy="2"/>
<feGaussianBlur stdDeviation="8"/>
<feComposite in2="hardAlpha" operator="out"/>
<feColorMatrix type="matrix" values="0 0 0 0 0 0 0 0 0 0.054902 0 0 0 0 1 0 0 0 0.42 0"/>
<feBlend mode="normal" in2="BackgroundImageFix" result="effect1_dropShadow_7:19129"/>
<feBlend mode="normal" in="SourceGraphic" in2="effect1_dropShadow_7:19129" result="shape"/>
</filter>
<filter id="filter4_d_7:19129" x="16.6294" y="6.58136" width="43.9426" height="47.5294" filterUnits="userSpaceOnUse" color-interpolation-filters="sRGB">
<feFlood flood-opacity="0" result="BackgroundImageFix"/>
<feColorMatrix in="SourceAlpha" type="matrix" values="0 0 0 0 0 0 0 0 0 0 0 0 0 0 0 0 0 0 127 0" result="hardAlpha"/>
<feOffset dy="2"/>
<feGaussianBlur stdDeviation="8"/>
<feComposite in2="hardAlpha" operator="out"/>
<feColorMatrix type="matrix" values="0 0 0 0 0 0 0 0 0 0.054902 0 0 0 0 1 0 0 0 0.42 0"/>
<feBlend mode="normal" in2="BackgroundImageFix" result="effect1_dropShadow_7:19129"/>
<feBlend mode="normal" in="SourceGraphic" in2="effect1_dropShadow_7:19129" result="shape"/>
</filter>
<filter id="filter5_d_7:19129" x="67.1719" y="0.75824" width="60.8279" height="54.005" filterUnits="userSpaceOnUse" color-interpolation-filters="sRGB">
<feFlood flood-opacity="0" result="BackgroundImageFix"/>
<feColorMatrix in="SourceAlpha" type="matrix" values="0 0 0 0 0 0 0 0 0 0 0 0 0 0 0 0 0 0 127 0" result="hardAlpha"/>
<feOffset dy="2"/>
<feGaussianBlur stdDeviation="8"/>
<feComposite in2="hardAlpha" operator="out"/>
<feColorMatrix type="matrix" values="0 0 0 0 0 0 0 0 0 0.054902 0 0 0 0 1 0 0 0 0.42 0"/>
<feBlend mode="normal" in2="BackgroundImageFix" result="effect1_dropShadow_7:19129"/>
<feBlend mode="normal" in="SourceGraphic" in2="effect1_dropShadow_7:19129" result="shape"/>
</filter>
</defs>
</svg>
