<svg width="128" height="128" viewBox="0 0 128 128" fill="none" xmlns="http://www.w3.org/2000/svg">
<g filter="url(#filter0_d_7:19254)">
<path d="M65.3673 109.952H16.51V60.5442H35.095C35.443 60.479 35.698 60.173 35.698 59.8107C35.698 59.5047 35.5135 59.3097 35.4025 59.2205C33.1938 57.4857 31.918 54.8622 31.918 52.0362C31.918 47.0142 35.9643 42.9275 40.9368 42.9275C45.9115 42.9275 49.9578 47.0135 49.9578 52.0362C49.9578 54.8652 48.6798 57.4895 46.4508 59.234C46.3645 59.3052 46.1785 59.5025 46.1785 59.81C46.1785 60.1722 46.4328 60.4782 46.7793 60.5435H65.3673V78.9762C65.626 79.4052 65.968 79.8267 66.1713 79.955C66.4195 79.922 66.5793 79.7517 66.6408 79.6737C68.3523 77.4335 70.9563 76.139 73.7733 76.139C78.7435 76.139 82.7875 80.225 82.7875 85.2477C82.7875 90.269 78.7435 94.3557 73.7733 94.3557C70.9563 94.3557 68.3515 93.059 66.6288 90.7992C66.5673 90.722 66.4098 90.5675 66.1713 90.5375C65.9688 90.6642 65.6268 91.082 65.368 91.511V109.952H65.3673ZM19.51 106.952H62.368V90.7722L62.5255 90.4565C62.8668 89.7702 64.132 87.533 66.0895 87.533C67.2198 87.533 68.2795 88.052 68.9973 88.958C70.1665 90.4902 71.9005 91.3557 73.774 91.3557C77.0905 91.3557 79.7883 88.616 79.7883 85.2477C79.7883 81.8795 77.0905 79.139 73.774 79.139C71.8998 79.139 70.1643 80.003 69.013 81.5097C68.2855 82.4367 67.2243 82.9602 66.0895 82.9602C64.1313 82.9602 62.8653 80.7162 62.5248 80.0285L62.368 79.7135V63.5435L46.5168 63.5352C44.614 63.3297 43.1793 61.7285 43.1793 59.81C43.1793 58.6805 43.69 57.617 44.5788 56.891C46.0998 55.7 46.9585 53.9375 46.9585 52.0362C46.9585 48.668 44.257 45.9275 40.9375 45.9275C37.6188 45.9275 34.9188 48.668 34.9188 52.0362C34.9188 53.9352 35.7775 55.6985 37.273 56.8737C38.185 57.6095 38.6988 58.6752 38.6988 59.8107C38.6988 61.7292 37.2633 63.3297 35.3598 63.536L35.1985 63.5442H19.51V106.952Z" fill="#404AFF"/>
</g>
<g filter="url(#filter1_d_7:19254)">
<path d="M36.124 63.41H16.51V14H65.368V32.8002C65.4333 33.1565 65.7273 33.4175 66.0738 33.4175C66.3618 33.4175 66.547 33.2367 66.6325 33.1295C68.3425 30.8908 70.945 29.5955 73.7553 29.5955C76.1673 29.5955 78.4338 30.545 80.1393 32.2685C81.8395 33.9883 82.7755 36.2728 82.7748 38.702C82.7748 43.7255 78.7278 47.813 73.7545 47.813C70.9465 47.813 68.344 46.5177 66.6145 44.2595C66.5598 44.1898 66.3693 43.9888 66.0723 43.9888C65.725 43.9888 65.4318 44.2505 65.3658 44.606V63.4077H45.7473L45.463 63.2855C45.3445 63.2345 45.2328 63.1775 45.1218 63.116L44.9223 62.9983C44.8923 62.9803 44.8623 62.9607 44.833 62.9412L44.6718 62.8948L44.443 62.639C44.2495 62.4672 44.0718 62.27 43.9105 62.0532L43.8438 61.9647C43.7778 61.8725 43.7178 61.7713 43.6638 61.667C43.5963 61.5537 43.5378 61.4352 43.4898 61.3167C43.4613 61.2545 43.4208 61.1577 43.3885 61.0573C43.3443 60.9215 43.3105 60.8105 43.2843 60.6973C43.2648 60.617 43.249 60.5465 43.2378 60.4775C43.1965 60.2518 43.177 60.041 43.177 59.8347C43.177 58.7045 43.6885 57.641 44.5788 56.9165C46.0975 55.727 46.9563 53.9637 46.9563 52.0632C46.9563 48.695 44.2548 45.9538 40.9353 45.9538C37.6165 45.9538 34.9165 48.6942 34.9165 52.0632C34.9165 53.9637 35.7745 55.7255 37.2693 56.897C38.1828 57.635 38.6965 58.7007 38.6965 59.8347C38.6965 60.0477 38.674 60.2518 38.6425 60.4557L38.5698 60.7865C38.5428 60.8787 38.5158 60.968 38.485 61.0618C38.4385 61.19 38.4063 61.2755 38.3688 61.3573C38.3215 61.4668 38.2645 61.5755 38.206 61.6782C38.1693 61.7465 38.1288 61.817 38.0853 61.8845L37.927 62.1005C37.8063 62.27 37.6308 62.4635 37.435 62.6375L37.234 62.864L37.078 62.9173C37.0368 62.9458 36.9955 62.9743 36.9535 63.0013L36.625 63.185C36.5538 63.221 36.481 63.2555 36.4053 63.2885L36.124 63.41ZM19.51 60.41H35.4018L35.6418 60.1077L35.674 60.0013C35.6793 59.9787 35.6845 59.957 35.6898 59.9352C35.6868 59.9398 35.6973 59.9135 35.6973 59.8363C35.6973 59.5303 35.512 59.3353 35.4018 59.2453C33.1938 57.515 31.9173 54.893 31.9173 52.064C31.9173 47.0412 35.9635 42.9545 40.936 42.9545C45.9108 42.9545 49.957 47.0412 49.957 52.064C49.957 54.893 48.679 57.5165 46.4508 59.2625C46.3623 59.3345 46.1778 59.5295 46.1778 59.8355C46.1778 59.8775 46.1853 59.9165 46.1928 59.9563L46.3338 60.2547L46.4725 60.4093H62.3658L62.3748 44.345C62.581 42.4325 64.171 40.9902 66.0723 40.9902C67.2055 40.9902 68.2668 41.5115 68.983 42.4205C70.1538 43.9482 71.887 44.8145 73.7538 44.8145C77.074 44.8145 79.774 42.0725 79.774 38.7028C79.7748 37.0685 79.1463 35.5333 78.0055 34.379C76.8685 33.2292 75.3595 32.5963 73.7553 32.5963C71.887 32.5963 70.1538 33.4625 68.9995 34.9722C68.266 35.8985 67.2055 36.4183 66.0738 36.4183C64.1725 36.4183 62.5833 34.976 62.3763 33.0627L62.3673 32.9022V17H19.51V60.41Z" fill="#404AFF"/>
</g>
<g filter="url(#filter2_d_7:19254)">
<path d="M111.438 110L62.5398 109.95L62.5683 90.8832C62.7738 88.9685 64.3653 87.5217 66.268 87.5165C67.42 87.524 68.4798 88.0497 69.1885 88.9595C70.354 90.4857 72.0895 91.3542 73.9578 91.3542C77.2848 91.3542 79.9893 88.6122 79.993 85.244C79.9945 81.8712 77.293 79.1247 73.9735 79.1225C72.0858 79.1225 70.36 79.9842 69.214 81.4872C68.4813 82.4165 67.4178 82.9385 66.2808 82.9385C64.366 82.9332 62.7775 81.4805 62.581 79.5582L62.5735 79.4045L62.5945 60.4925L81.8748 60.5187L82.0773 60.5765C83.6763 61.0355 84.7885 62.5205 84.781 64.1877C84.7885 65.3157 84.2733 66.3875 83.3688 67.1105C81.8538 68.2895 80.9943 70.052 80.9943 71.9585C80.9898 75.332 83.6898 78.08 87.013 78.086C90.3363 78.086 93.0393 75.3462 93.043 71.9772C93.0453 70.0692 92.1896 68.3037 90.6955 67.1307C89.779 66.389 89.2683 65.3202 89.2728 64.1855C89.275 62.4965 90.3656 61.049 91.9855 60.587L92.1888 60.5292L111.49 60.551L111.438 110ZM65.5428 106.953L108.441 106.998L108.488 63.548L92.6665 63.5307C92.455 63.644 92.2743 63.872 92.2735 64.1952C92.272 64.5027 92.4565 64.6977 92.5675 64.787C94.7733 66.518 96.0483 69.146 96.0445 71.9817C96.0393 77.0022 91.99 81.0875 87.0183 81.0875C82.0323 81.0785 77.9883 76.9827 77.9958 71.9577C77.9958 69.122 79.2775 66.497 81.5118 64.757C81.604 64.6827 81.7848 64.493 81.7825 64.1915C81.784 63.8997 81.6295 63.6455 81.3925 63.5187L65.5923 63.4977L65.5735 79.31C65.6358 79.6707 65.9328 79.937 66.2838 79.9377C66.5718 79.9377 66.7578 79.757 66.8425 79.649C68.5458 77.4147 71.1408 76.1217 73.951 76.1217C78.949 76.1255 82.9945 80.2182 82.993 85.2455C82.9878 90.2675 78.937 94.3535 73.9638 94.3542C71.146 94.3542 68.542 93.056 66.8125 90.791C66.7383 90.6965 66.5568 90.518 66.2628 90.5165C65.9238 90.5172 65.6253 90.7835 65.56 91.1457L65.5428 106.953Z" fill="#404AFF"/>
</g>
<g filter="url(#filter3_d_7:19254)">
<path d="M64.8265 14.0007H63.3655V17.0007H64.8265V14.0007Z" fill="#404AFF"/>
</g>
<g filter="url(#filter4_d_7:19254)">
<path d="M106.652 17.0007H103.658V14.0007H106.652V17.0007ZM100.665 17.0007H97.672V14.0007H100.665V17.0007ZM94.678 17.0007H91.6847V14.0007H94.678V17.0007ZM88.6915 17.0007H85.699V14.0007H88.6915V17.0007ZM82.705 17.0007H79.7125V14.0007H82.705V17.0007ZM76.7192 17.0007H73.726V14.0007H76.7192V17.0007ZM70.7327 17.0007H67.7395V14.0007H70.7327V17.0007Z" fill="#404AFF"/>
</g>
<g filter="url(#filter5_d_7:19254)">
<path d="M109.989 17.0007H108.529V16.9602H108.489V15.5007H108.529V14.0007H111.489V16.9602H109.989V17.0007Z" fill="#404AFF"/>
</g>
<g filter="url(#filter6_d_7:19254)">
<path d="M111.489 59.3233H108.489V56.2918H111.489V59.3233ZM111.489 53.2595H108.489V50.228H111.489V53.2595ZM111.489 47.1965H108.489V44.165H111.489V47.1965ZM111.489 41.1328H108.489V38.1013H111.489V41.1328ZM111.489 35.069H108.489V32.0375H111.489V35.069ZM111.489 29.006H108.489V25.9745H111.489V29.006ZM111.489 22.9423H108.489V19.9108H111.489V22.9423Z" fill="#404AFF"/>
</g>
<g filter="url(#filter7_d_7:19254)">
<path d="M111.489 61.2252H108.489V62.6862H111.489V61.2252Z" fill="#404AFF"/>
</g>
<defs>
<filter id="filter0_d_7:19254" x="0.51001" y="28.9275" width="98.2775" height="99.0245" filterUnits="userSpaceOnUse" color-interpolation-filters="sRGB">
<feFlood flood-opacity="0" result="BackgroundImageFix"/>
<feColorMatrix in="SourceAlpha" type="matrix" values="0 0 0 0 0 0 0 0 0 0 0 0 0 0 0 0 0 0 127 0" result="hardAlpha"/>
<feOffset dy="2"/>
<feGaussianBlur stdDeviation="8"/>
<feComposite in2="hardAlpha" operator="out"/>
<feColorMatrix type="matrix" values="0 0 0 0 0 0 0 0 0 0.054902 0 0 0 0 1 0 0 0 0.42 0"/>
<feBlend mode="normal" in2="BackgroundImageFix" result="effect1_dropShadow_7:19254"/>
<feBlend mode="normal" in="SourceGraphic" in2="effect1_dropShadow_7:19254" result="shape"/>
</filter>
<filter id="filter1_d_7:19254" x="0.51001" y="0" width="98.2648" height="81.41" filterUnits="userSpaceOnUse" color-interpolation-filters="sRGB">
<feFlood flood-opacity="0" result="BackgroundImageFix"/>
<feColorMatrix in="SourceAlpha" type="matrix" values="0 0 0 0 0 0 0 0 0 0 0 0 0 0 0 0 0 0 127 0" result="hardAlpha"/>
<feOffset dy="2"/>
<feGaussianBlur stdDeviation="8"/>
<feComposite in2="hardAlpha" operator="out"/>
<feColorMatrix type="matrix" values="0 0 0 0 0 0 0 0 0 0.054902 0 0 0 0 1 0 0 0 0.42 0"/>
<feBlend mode="normal" in2="BackgroundImageFix" result="effect1_dropShadow_7:19254"/>
<feBlend mode="normal" in="SourceGraphic" in2="effect1_dropShadow_7:19254" result="shape"/>
</filter>
<filter id="filter2_d_7:19254" x="46.5398" y="46.4925" width="80.9503" height="81.5075" filterUnits="userSpaceOnUse" color-interpolation-filters="sRGB">
<feFlood flood-opacity="0" result="BackgroundImageFix"/>
<feColorMatrix in="SourceAlpha" type="matrix" values="0 0 0 0 0 0 0 0 0 0 0 0 0 0 0 0 0 0 127 0" result="hardAlpha"/>
<feOffset dy="2"/>
<feGaussianBlur stdDeviation="8"/>
<feComposite in2="hardAlpha" operator="out"/>
<feColorMatrix type="matrix" values="0 0 0 0 0 0 0 0 0 0.054902 0 0 0 0 1 0 0 0 0.42 0"/>
<feBlend mode="normal" in2="BackgroundImageFix" result="effect1_dropShadow_7:19254"/>
<feBlend mode="normal" in="SourceGraphic" in2="effect1_dropShadow_7:19254" result="shape"/>
</filter>
<filter id="filter3_d_7:19254" x="47.3655" y="0.000732422" width="33.461" height="35" filterUnits="userSpaceOnUse" color-interpolation-filters="sRGB">
<feFlood flood-opacity="0" result="BackgroundImageFix"/>
<feColorMatrix in="SourceAlpha" type="matrix" values="0 0 0 0 0 0 0 0 0 0 0 0 0 0 0 0 0 0 127 0" result="hardAlpha"/>
<feOffset dy="2"/>
<feGaussianBlur stdDeviation="8"/>
<feComposite in2="hardAlpha" operator="out"/>
<feColorMatrix type="matrix" values="0 0 0 0 0 0 0 0 0 0.054902 0 0 0 0 1 0 0 0 0.42 0"/>
<feBlend mode="normal" in2="BackgroundImageFix" result="effect1_dropShadow_7:19254"/>
<feBlend mode="normal" in="SourceGraphic" in2="effect1_dropShadow_7:19254" result="shape"/>
</filter>
<filter id="filter4_d_7:19254" x="51.7395" y="0.000732422" width="70.9122" height="35" filterUnits="userSpaceOnUse" color-interpolation-filters="sRGB">
<feFlood flood-opacity="0" result="BackgroundImageFix"/>
<feColorMatrix in="SourceAlpha" type="matrix" values="0 0 0 0 0 0 0 0 0 0 0 0 0 0 0 0 0 0 127 0" result="hardAlpha"/>
<feOffset dy="2"/>
<feGaussianBlur stdDeviation="8"/>
<feComposite in2="hardAlpha" operator="out"/>
<feColorMatrix type="matrix" values="0 0 0 0 0 0 0 0 0 0.054902 0 0 0 0 1 0 0 0 0.42 0"/>
<feBlend mode="normal" in2="BackgroundImageFix" result="effect1_dropShadow_7:19254"/>
<feBlend mode="normal" in="SourceGraphic" in2="effect1_dropShadow_7:19254" result="shape"/>
</filter>
<filter id="filter5_d_7:19254" x="92.4885" y="0.000732422" width="35" height="35" filterUnits="userSpaceOnUse" color-interpolation-filters="sRGB">
<feFlood flood-opacity="0" result="BackgroundImageFix"/>
<feColorMatrix in="SourceAlpha" type="matrix" values="0 0 0 0 0 0 0 0 0 0 0 0 0 0 0 0 0 0 127 0" result="hardAlpha"/>
<feOffset dy="2"/>
<feGaussianBlur stdDeviation="8"/>
<feComposite in2="hardAlpha" operator="out"/>
<feColorMatrix type="matrix" values="0 0 0 0 0 0 0 0 0 0.054902 0 0 0 0 1 0 0 0 0.42 0"/>
<feBlend mode="normal" in2="BackgroundImageFix" result="effect1_dropShadow_7:19254"/>
<feBlend mode="normal" in="SourceGraphic" in2="effect1_dropShadow_7:19254" result="shape"/>
</filter>
<filter id="filter6_d_7:19254" x="92.4885" y="5.91077" width="35" height="71.4125" filterUnits="userSpaceOnUse" color-interpolation-filters="sRGB">
<feFlood flood-opacity="0" result="BackgroundImageFix"/>
<feColorMatrix in="SourceAlpha" type="matrix" values="0 0 0 0 0 0 0 0 0 0 0 0 0 0 0 0 0 0 127 0" result="hardAlpha"/>
<feOffset dy="2"/>
<feGaussianBlur stdDeviation="8"/>
<feComposite in2="hardAlpha" operator="out"/>
<feColorMatrix type="matrix" values="0 0 0 0 0 0 0 0 0 0.054902 0 0 0 0 1 0 0 0 0.42 0"/>
<feBlend mode="normal" in2="BackgroundImageFix" result="effect1_dropShadow_7:19254"/>
<feBlend mode="normal" in="SourceGraphic" in2="effect1_dropShadow_7:19254" result="shape"/>
</filter>
<filter id="filter7_d_7:19254" x="92.4885" y="47.2252" width="35" height="33.461" filterUnits="userSpaceOnUse" color-interpolation-filters="sRGB">
<feFlood flood-opacity="0" result="BackgroundImageFix"/>
<feColorMatrix in="SourceAlpha" type="matrix" values="0 0 0 0 0 0 0 0 0 0 0 0 0 0 0 0 0 0 127 0" result="hardAlpha"/>
<feOffset dy="2"/>
<feGaussianBlur stdDeviation="8"/>
<feComposite in2="hardAlpha" operator="out"/>
<feColorMatrix type="matrix" values="0 0 0 0 0 0 0 0 0 0.054902 0 0 0 0 1 0 0 0 0.42 0"/>
<feBlend mode="normal" in2="BackgroundImageFix" result="effect1_dropShadow_7:19254"/>
<feBlend mode="normal" in="SourceGraphic" in2="effect1_dropShadow_7:19254" result="shape"/>
</filter>
</defs>
</svg>
