<svg width="231" height="24" viewBox="0 0 231 24" fill="none" xmlns="http://www.w3.org/2000/svg">
<rect x="0.400024" y="11.5" width="95.2" height="1" fill="#BDBDBD"/>
<path d="M103.6 12C103.6 5.37258 108.973 0 115.6 0C122.227 0 127.6 5.37258 127.6 12C127.6 18.6274 122.227 24 115.6 24C108.973 24 103.6 18.6274 103.6 12Z" fill="white" fill-opacity="0.4"/>
<path d="M112.705 18L112.177 16.688L115.601 12.832C115.782 12.64 115.969 12.4213 116.161 12.176C116.364 11.92 116.556 11.6587 116.737 11.392C116.918 11.1253 117.062 10.864 117.169 10.608C117.286 10.3413 117.345 10.0907 117.345 9.856C117.345 9.51467 117.276 9.22667 117.137 8.992C117.009 8.74667 116.817 8.56 116.561 8.432C116.316 8.304 116.017 8.24 115.665 8.24C115.356 8.24 115.052 8.33067 114.753 8.512C114.454 8.69333 114.182 8.94933 113.937 9.28C113.692 9.61067 113.5 9.99467 113.361 10.432L112.033 9.6C112.214 8.98133 112.486 8.45333 112.849 8.016C113.222 7.568 113.665 7.22667 114.177 6.992C114.7 6.75733 115.265 6.64 115.873 6.64C116.502 6.64 117.062 6.77333 117.553 7.04C118.044 7.296 118.428 7.65867 118.705 8.128C118.982 8.58667 119.121 9.12 119.121 9.728C119.121 9.97333 119.094 10.224 119.041 10.48C118.988 10.736 118.902 11.0027 118.785 11.28C118.668 11.5467 118.518 11.8293 118.337 12.128C118.156 12.416 117.937 12.72 117.681 13.04C117.436 13.36 117.153 13.696 116.833 14.048L114.289 16.816L113.969 16.336H119.473V18H112.705Z" fill="#212121"/>
<rect x="135.6" y="11.5" width="95.2" height="1" fill="#BDBDBD"/>
</svg>
