<svg width="232" height="24" viewBox="0 0 232 24" fill="none" xmlns="http://www.w3.org/2000/svg">
<rect x="0.799988" y="11.5" width="95.2" height="1" fill="#BDBDBD"/>
<path d="M104 12C104 5.37258 109.373 0 116 0C122.627 0 128 5.37258 128 12C128 18.6274 122.627 24 116 24C109.373 24 104 18.6274 104 12Z" fill="white" fill-opacity="0.4"/>
<path d="M115.782 18.16C114.992 18.16 114.304 17.9787 113.718 17.616C113.142 17.2533 112.598 16.6453 112.086 15.792L113.43 14.944C113.696 15.3387 113.958 15.664 114.214 15.92C114.48 16.1653 114.752 16.3467 115.03 16.464C115.307 16.5813 115.6 16.64 115.91 16.64C116.283 16.64 116.63 16.5493 116.95 16.368C117.27 16.176 117.526 15.9147 117.718 15.584C117.91 15.2533 118.006 14.88 118.006 14.464C118.006 14.048 117.931 13.696 117.782 13.408C117.632 13.1093 117.414 12.8853 117.126 12.736C116.838 12.576 116.496 12.496 116.102 12.496C115.92 12.496 115.728 12.5173 115.526 12.56C115.334 12.592 115.126 12.6453 114.902 12.72C114.678 12.784 114.432 12.8693 114.166 12.976L113.686 11.712L117.142 7.904L117.478 8.4H112.71V6.8H119.126L119.446 7.44L115.782 11.504L115.382 11.088C115.467 11.0453 115.606 11.008 115.798 10.976C116 10.9333 116.166 10.912 116.294 10.912C116.763 10.912 117.2 11.0027 117.606 11.184C118.022 11.3547 118.379 11.6 118.678 11.92C118.987 12.2293 119.227 12.5973 119.398 13.024C119.579 13.44 119.67 13.888 119.67 14.368C119.67 15.0933 119.494 15.744 119.142 16.32C118.8 16.8853 118.336 17.3333 117.75 17.664C117.163 17.9947 116.507 18.16 115.782 18.16Z" fill="#212121"/>
<rect x="136" y="11.5" width="95.2" height="1" fill="#BDBDBD"/>
</svg>
