<svg width="24" height="138" viewBox="0 0 24 138" fill="none" xmlns="http://www.w3.org/2000/svg">
<path d="M0 12C0 5.37258 5.37258 0 12 0C18.6274 0 24 5.37258 24 12C24 18.6274 18.6274 24 12 24C5.37258 24 0 18.6274 0 12Z" fill="white" fill-opacity="0.4"/>
<path d="M9.10519 18L8.72119 17.056L12.4812 12.832C12.7159 12.5653 12.9665 12.256 13.2332 11.904C13.4999 11.5413 13.7292 11.168 13.9212 10.784C14.1132 10.4 14.2092 10.032 14.2092 9.68C14.2092 9.104 14.0172 8.656 13.6332 8.336C13.2492 8.00533 12.7479 7.84 12.1292 7.84C11.5959 7.84 11.0679 8.032 10.5452 8.416C10.0332 8.78933 9.66519 9.38667 9.44119 10.208L8.43319 9.6C8.71052 8.62933 9.19052 7.89333 9.87319 7.392C10.5665 6.89067 11.3665 6.64 12.2732 6.64C12.8812 6.64 13.4305 6.768 13.9212 7.024C14.4119 7.26933 14.8012 7.62133 15.0892 8.08C15.3772 8.528 15.5212 9.04533 15.5212 9.632C15.5212 10.2827 15.3399 10.928 14.9772 11.568C14.6145 12.208 14.1025 12.896 13.4412 13.632L10.6092 16.784H15.8732V18H9.10519Z" fill="#212121"/>
<rect x="11.5" y="32" width="1" height="106" fill="#BDBDBD"/>
</svg>
