<svg width="24" height="138" viewBox="0 0 24 138" fill="none" xmlns="http://www.w3.org/2000/svg">
<path d="M0 12C0 5.37258 5.37258 0 12 0C18.6274 0 24 5.37258 24 12C24 18.6274 18.6274 24 12 24C5.37258 24 0 18.6274 0 12Z" fill="white" fill-opacity="0.4"/>
<path d="M11.5651 18.112C10.8291 18.112 10.1625 17.9467 9.56512 17.616C8.96779 17.2747 8.47179 16.7893 8.07713 16.16L8.82913 15.328C9.28779 15.9253 9.74113 16.3413 10.1891 16.576C10.6371 16.8 11.1011 16.912 11.5811 16.912C12.0931 16.912 12.5571 16.7947 12.9731 16.56C13.3891 16.3253 13.7198 16.0053 13.9651 15.6C14.2105 15.1947 14.3331 14.7467 14.3331 14.256C14.3331 13.776 14.2211 13.344 13.9971 12.96C13.7838 12.5653 13.4798 12.256 13.0851 12.032C12.7011 11.808 12.2638 11.696 11.7731 11.696C11.0265 11.696 10.1891 11.9627 9.26113 12.496L8.54113 11.552L9.19713 6.8H15.2451V7.968H10.2211L9.75713 11.04C10.0558 10.8907 10.4025 10.768 10.7971 10.672C11.1918 10.5653 11.5811 10.512 11.9651 10.512C12.6478 10.512 13.2611 10.672 13.8051 10.992C14.3491 11.3013 14.7811 11.7333 15.1011 12.288C15.4211 12.832 15.5811 13.4613 15.5811 14.176C15.5811 14.9227 15.4051 15.5947 15.0531 16.192C14.7011 16.7787 14.2211 17.248 13.6131 17.6C13.0051 17.9413 12.3225 18.112 11.5651 18.112Z" fill="#212121"/>
<rect x="11.5" y="32" width="1" height="50" fill="#BDBDBD"/>
</svg>
