<svg width="24" height="138" viewBox="0 0 24 138" fill="none" xmlns="http://www.w3.org/2000/svg">
<path d="M0 12C0 5.37258 5.37258 0 12 0C18.6274 0 24 5.37258 24 12C24 18.6274 18.6274 24 12 24C5.37258 24 0 18.6274 0 12Z" fill="white" fill-opacity="0.4"/>
<path d="M11.8616 18.16C11.0616 18.16 10.3576 17.984 9.74963 17.632C9.15229 17.2693 8.59763 16.656 8.08563 15.792L9.12563 15.136C9.55229 15.8293 9.99496 16.3147 10.4536 16.592C10.923 16.8587 11.4243 16.992 11.9576 16.992C12.4056 16.992 12.8163 16.8853 13.1896 16.672C13.563 16.448 13.8563 16.1493 14.0696 15.776C14.2936 15.4027 14.4056 14.9813 14.4056 14.512C14.4056 13.7973 14.187 13.216 13.7496 12.768C13.3123 12.32 12.747 12.096 12.0536 12.096C11.787 12.096 11.4936 12.144 11.1736 12.24C10.8643 12.336 10.5123 12.5227 10.1176 12.8L9.73363 11.792L13.2376 7.984H8.86963V6.8H14.9176L15.2376 7.44L11.9896 10.912C12.043 10.912 12.1016 10.912 12.1656 10.912C12.8163 10.912 13.403 11.072 13.9256 11.392C14.459 11.7013 14.8803 12.1227 15.1896 12.656C15.5096 13.1893 15.6696 13.7867 15.6696 14.448C15.6696 15.152 15.499 15.7867 15.1576 16.352C14.8163 16.9067 14.3576 17.3493 13.7816 17.68C13.2163 18 12.5763 18.16 11.8616 18.16Z" fill="#212121"/>
<rect x="11.5" y="32" width="1" height="106" fill="#BDBDBD"/>
</svg>
