<svg width="215" height="24" viewBox="0 0 215 24" fill="none" xmlns="http://www.w3.org/2000/svg">
<rect x="0.599976" y="11.5" width="95.2" height="1" fill="#BDBDBD"/>
<path d="M103.8 12C103.8 5.37258 109.173 0 115.8 0C122.427 0 127.8 5.37258 127.8 12C127.8 18.6274 122.427 24 115.8 24C109.173 24 103.8 18.6274 103.8 12Z" fill="white" fill-opacity="0.4"/>
<path d="M115.365 18.112C114.629 18.112 113.962 17.9467 113.365 17.616C112.768 17.2747 112.272 16.7893 111.877 16.16L112.837 15.088C113.338 15.6427 113.776 16.0213 114.149 16.224C114.522 16.4267 114.928 16.528 115.365 16.528C115.802 16.528 116.197 16.432 116.549 16.24C116.901 16.048 117.178 15.7867 117.381 15.456C117.594 15.1253 117.701 14.7573 117.701 14.352C117.701 13.9253 117.6 13.5467 117.397 13.216C117.205 12.8747 116.944 12.608 116.613 12.416C116.282 12.2133 115.909 12.112 115.493 12.112C115.29 12.112 115.098 12.128 114.917 12.16C114.736 12.1813 114.517 12.24 114.261 12.336C114.005 12.432 113.669 12.5813 113.253 12.784L112.341 11.552L112.997 6.8H119.045V8.4H114.085L114.421 8.096L113.893 11.648L113.493 11.184C113.6 11.0773 113.781 10.976 114.037 10.88C114.293 10.7733 114.576 10.688 114.885 10.624C115.205 10.5493 115.509 10.512 115.797 10.512C116.48 10.512 117.088 10.672 117.621 10.992C118.165 11.3013 118.592 11.7333 118.901 12.288C119.221 12.8427 119.381 13.4773 119.381 14.192C119.381 14.928 119.205 15.5947 118.853 16.192C118.501 16.7787 118.021 17.248 117.413 17.6C116.805 17.9413 116.122 18.112 115.365 18.112Z" fill="#212121"/>
<rect x="135.8" y="11.5" width="79.2" height="1" fill="#BDBDBD"/>
</svg>
