<?xml version="1.0" encoding="utf-8"?>
<!-- Generator: Adobe Illustrator 25.4.1, SVG Export Plug-In . SVG Version: 6.00 Build 0)  -->
<svg version="1.1" xmlns="http://www.w3.org/2000/svg" xmlns:xlink="http://www.w3.org/1999/xlink" x="0px" y="0px"
	 viewBox="0 0 428.12 129.54" style="enable-background:new 0 0 428.12 129.54;" xml:space="preserve">
<style type="text/css">
	.st0{fill:none;}
	.st1{fill:#FFFFFF;}
	.st2{fill:#FF6600;}
	.st3{fill:#0066B3;}
</style>
<g id="Schutzraum">
	<rect class="st0" width="428.12" height="129.54"/>
	<rect class="st0" width="428.12" height="129.54"/>
	<rect class="st0" width="428.12" height="129.54"/>
	<rect class="st0" width="428.12" height="129.54"/>
	<rect class="st0" width="428.12" height="129.54"/>
	<rect class="st0" width="428.12" height="129.54"/>
</g>
<g id="Logo">
	<rect x="21.26" y="21.25" class="st1" width="62.99" height="42.52"/>
	<g>
		<path class="st2" d="M84.25,63.77v-7.48H60.24c-0.65,3.43-1.21,6.35-1.42,7.48H84.25z"/>
	</g>
	<polygon class="st2" points="21.26,56.29 21.26,63.77 46.51,63.77 44.83,56.29 	"/>
	<g>
		<path class="st3" d="M33.67,38.67l-1.84-7.74h15.68l5.19,22.69l3.31-14.7c1.61-6.46,2.22-7.98,11.31-7.98h6.53
			c0,0-1.32,5.95-2.96,12.42c-0.63,2.46-6.08,2.17-5.81-0.13c0.03-0.24,0.29-1.97,0.49-3.21c0.3-1.77-1.77-1.99-2.14-0.24
			c-0.26,1.26-1.46,7.5-2.58,13.37h23.41V21.25H21.26v31.89h22.86l-3.26-14.46L33.67,38.67z"/>
		<path class="st3" d="M109,41.73h8.51l-2.33-6.64c-0.75-2.28-1.25-3.9-1.91-6.23c-0.75,2.83-0.95,3.45-2.03,6.27L109,41.73z
			 M116.68,23.82l11.67,29.32h-6.48l-2.53-6.69h-12.17l-2.49,6.69h-6.23l11.59-29.32H116.68z"/>
		<path class="st3" d="M141.64,43.22c-2.99,0-5.23,0.46-6.19,2.12c-0.25,0.46-0.33,0.96-0.33,1.41c0,1.21,0.79,2.99,3.41,2.99
			c1.29,0,4.53-0.75,5.15-4.78c0.08-0.62,0.12-1.62,0.12-1.66C143.1,43.26,142.39,43.22,141.64,43.22 M143.93,53.15v-3.2
			c-0.33,0.62-0.91,1.54-2.37,2.41c-1.62,0.95-3.28,1.16-4.86,1.16c-5.98,0-7.39-4.03-7.35-6.69c0.04-2.33,1-3.78,2.08-4.74
			c1.79-1.62,4.74-2.37,9.06-2.41h0.25c1.08,0,1.87,0.04,2.95,0.12c-0.08-1-0.08-2.2-0.79-3.2c-0.66-0.91-1.7-1.54-3.57-1.62h-0.54
			c-2.08,0.04-3.57,0.62-4.44,1c-0.42,0.21-1.16,0.5-2.2,1.33l-0.17-4.9c1.74-0.66,3.74-1.41,7.43-1.45
			c2.16-0.04,4.86,0.21,6.98,2.04c0.54,0.5,1.41,1.37,1.87,2.74c0.54,1.41,0.54,3.74,0.54,5.15v5.15c0,2.62,0.08,4.49,0.17,7.1
			H143.93z"/>
		<path class="st3" d="M167.68,36.29c-0.75-0.33-1.7-0.75-3.32-0.75c-3.49,0-5.15,2.08-5.81,3.94c-0.42,1.16-0.37,2.45-0.37,2.78
			c0,1.5,0.29,3.41,1.66,4.9c1.45,1.45,3.2,1.83,4.65,1.83c1.87,0,2.99-0.58,3.82-1l0.37,4.74c-1.04,0.29-2.82,0.83-5.32,0.83
			c-3.99,0-6.52-1.5-8.14-3.2c-0.17-0.21-0.25-0.33-0.41-0.5c-1-1.2-1.54-2.49-1.66-2.82c-0.83-2.12-0.83-4.19-0.83-4.9
			c0-3.53,1.04-5.77,2.29-7.27c1.25-1.54,2.66-2.28,3.16-2.57c1.12-0.54,2.28-0.87,3.41-1.04c0.25-0.04,1.45-0.21,2.45-0.21
			c2.12,0,3.57,0.46,4.44,0.71L167.68,36.29z"/>
		<path class="st3" d="M177.19,21.42v13.25c0.33-0.5,0.62-1,1.58-1.79c2.29-1.87,4.86-1.83,5.48-1.83c2.12,0,3.65,0.62,4.49,1.16
			c2.95,1.91,3.16,5.19,3.16,10.26v10.67h-5.61V42.1c-0.04-1.41-0.04-3.49-0.87-4.86c-0.17-0.33-0.46-0.79-1.21-1.21
			c-0.79-0.46-1.66-0.46-1.87-0.46c-2.04,0-3.32,1-3.99,2.04c-1.16,1.74-1.12,4.36-1.12,6.11v9.43h-5.65V21.42H177.19z"/>
		<path class="st3" d="M210.63,40.27c-0.08-1.2-0.21-2.41-1.08-3.57c-1.29-1.74-3.03-1.79-3.53-1.79c-0.33,0-2.66,0-4.07,2.12
			c-0.87,1.41-0.96,2.82-1,3.24H210.63z M200.95,44.22c0.04,0.12,0.25,1.33,0.79,2.16c1.45,2.41,3.99,2.91,5.82,2.91
			c1.66,0,3.45-0.37,5.11-1.2c0.67-0.29,1.49-0.87,1.66-0.96l0.08,4.86c-1.66,0.71-3.86,1.62-7.52,1.62c-0.62,0-2.78,0.04-4.9-0.75
			c-3.45-1.33-6.52-4.44-6.52-10.34c0-2.7,0.62-4.57,1.12-5.69c0.25-0.5,0.62-1.16,0.66-1.29c0.25-0.37,0.5-0.75,0.83-1.08
			c1.62-1.91,4.07-3.53,7.93-3.53c7.06,0,9.8,5.23,9.8,11.09c0,0.75,0,1.45-0.04,2.2H200.95z"/>
		<path class="st3" d="M234.01,53.15V42.64c-0.04-2.58-0.12-3.95-0.75-5.15c-0.37-0.71-0.83-1.16-1.62-1.54
			c-0.29-0.12-0.87-0.33-1.66-0.33c-0.37-0.04-1.62,0-2.83,0.96c-1.99,1.54-2.16,3.86-2.2,6.4v10.18h-5.69V36.62
			c0-1.91-0.08-3.28-0.17-5.23h5.44v3.37c0.29-0.37,0.5-0.62,0.83-1c0.83-0.92,1.79-1.41,2.08-1.58c1.66-0.91,2.99-1.12,4.61-1.12
			c2.08,0,3.41,0.54,4.28,1.08c0.42,0.29,1.12,0.71,1.87,1.83c1.29,1.79,1.33,4.07,1.41,8.06v11.13H234.01z"/>
		<path class="st3" d="M258.22,40.27c-0.08-1.2-0.21-2.41-1.08-3.57c-1.29-1.74-3.03-1.79-3.53-1.79c-0.33,0-2.66,0-4.07,2.12
			c-0.87,1.41-0.96,2.82-1,3.24H258.22z M248.54,44.22c0.04,0.12,0.25,1.33,0.79,2.16c1.45,2.41,3.99,2.91,5.82,2.91
			c1.66,0,3.45-0.37,5.11-1.2c0.67-0.29,1.49-0.87,1.66-0.96l0.08,4.86c-1.66,0.71-3.86,1.62-7.52,1.62c-0.62,0-2.78,0.04-4.9-0.75
			c-3.45-1.33-6.52-4.44-6.52-10.34c0-2.7,0.62-4.57,1.12-5.69c0.25-0.5,0.62-1.16,0.66-1.29c0.25-0.37,0.5-0.75,0.83-1.08
			c1.62-1.91,4.07-3.53,7.93-3.53c7.06,0,9.8,5.23,9.8,11.09c0,0.75,0,1.45-0.04,2.2H248.54z"/>
		<path class="st3" d="M279.69,36.53c-0.33-0.08-0.87-0.29-1.7-0.29c-0.66,0-3.86,0.04-5.03,3.57c-0.25,0.66-0.37,1.25-0.46,2.57
			c-0.04,0.83-0.04,1.41-0.04,2.24v8.51h-5.65V37.03c0-2.08-0.04-3.57-0.12-5.65h5.32v5.23c0.29-1.12,0.46-1.58,0.75-2.12
			c1.29-2.37,3.41-3.41,5.4-3.41c0.5,0,1.04,0.08,1.54,0.17V36.53z"/>
		<path class="st3" d="M299.71,48.62c0.58,0,1.12,0.04,1.7,0.04h0.33c1.41,0,3.16-0.04,4.53-0.79c1.08-0.54,1.37-1.16,1.62-1.58
			c0.21-0.33,0.46-1.08,0.46-1.95c0-0.5-0.04-2.74-2.41-3.78c-1.16-0.5-2.29-0.54-3.45-0.54h-2.78V48.62z M299.71,35.66
			c0.58,0,1.12,0.04,1.7,0.04c2.53,0,4.11-0.21,5.19-1.45c0.58-0.67,0.79-1.62,0.79-2.28c0-0.83-0.25-1.45-0.42-1.75
			c-0.83-1.45-2.41-1.95-4.86-1.95c-0.87,0-1.49,0.04-2.41,0.04V35.66z M302.83,23.82c1.91,0,4.07,0,5.94,0.75
			c0.33,0.12,1.66,0.62,2.74,1.83c0.91,1,1.79,2.49,1.79,4.82c0,1.49-0.33,3.36-1.95,4.82c-0.46,0.42-0.71,0.54-1.16,0.83
			c-0.25,0.12-0.96,0.5-1.62,0.66c-0.62,0.21-0.83,0.21-1.41,0.29c1.5,0.12,2.58,0.25,4.07,1.21c0.12,0.08,0.83,0.54,1.37,1.12
			c1.79,1.91,1.79,4.36,1.79,4.78c0,2.33-0.87,3.95-1.62,4.9c-2.62,3.28-6.65,3.28-9.47,3.32h-9.35V23.82H302.83z"/>
		<path class="st3" d="M328.53,43.22c-2.99,0-5.23,0.46-6.19,2.12c-0.25,0.46-0.33,0.96-0.33,1.41c0,1.21,0.79,2.99,3.41,2.99
			c1.29,0,4.53-0.75,5.15-4.78c0.08-0.62,0.12-1.62,0.12-1.66C329.99,43.26,329.28,43.22,328.53,43.22 M330.82,53.15v-3.2
			c-0.33,0.62-0.91,1.54-2.37,2.41c-1.62,0.95-3.28,1.16-4.86,1.16c-5.98,0-7.39-4.03-7.35-6.69c0.04-2.33,1-3.78,2.08-4.74
			c1.79-1.62,4.73-2.37,9.05-2.41h0.25c1.08,0,1.87,0.04,2.95,0.12c-0.08-1-0.08-2.2-0.79-3.2c-0.66-0.91-1.7-1.54-3.57-1.62h-0.54
			c-2.08,0.04-3.57,0.62-4.44,1c-0.42,0.21-1.16,0.5-2.2,1.33l-0.17-4.9c1.74-0.66,3.74-1.41,7.43-1.45
			c2.16-0.04,4.86,0.21,6.98,2.04c0.54,0.5,1.41,1.37,1.87,2.74c0.54,1.41,0.54,3.74,0.54,5.15v5.15c0,2.62,0.08,4.49,0.17,7.1
			H330.82z"/>
		<path class="st3" d="M355.16,53.15V42.64c-0.04-2.58-0.12-3.95-0.75-5.15c-0.37-0.71-0.83-1.16-1.62-1.54
			c-0.29-0.12-0.87-0.33-1.66-0.33c-0.37-0.04-1.62,0-2.82,0.96c-1.99,1.54-2.16,3.86-2.2,6.4v10.18h-5.69V36.62
			c0-1.91-0.08-3.28-0.17-5.23h5.44v3.37c0.29-0.37,0.5-0.62,0.83-1c0.83-0.92,1.79-1.41,2.08-1.58c1.66-0.91,2.99-1.12,4.61-1.12
			c2.08,0,3.41,0.54,4.28,1.08c0.42,0.29,1.12,0.71,1.87,1.83c1.29,1.79,1.33,4.07,1.41,8.06v11.13H355.16z"/>
		<path class="st3" d="M371.15,40.19c0.71-1.04,1.25-1.74,1.99-2.7l4.9-6.11h6.52l-8.1,9.6l9.14,12.17h-6.98l-4.78-6.6
			c-1.08-1.5-1.74-2.62-2.7-4.19v10.8h-5.61V21.42h5.61V40.19z"/>
	</g>
	<polygon class="st2" points="196.66,85.08 200.82,85.08 206.34,99.71 211.76,85.08 215.92,85.08 215.92,102.68 213.4,102.68 
		213.4,87.45 213.35,87.45 207.52,102.68 205.05,102.68 199.23,87.45 199.18,87.45 199.18,102.68 196.66,102.68 	"/>
	<g>
		<path class="st2" d="M227.81,95.02c0-0.49-0.07-0.95-0.21-1.39c-0.14-0.44-0.35-0.82-0.62-1.15c-0.27-0.33-0.61-0.58-1.01-0.77
			c-0.4-0.18-0.86-0.28-1.36-0.28c-0.59,0-1.09,0.11-1.5,0.33c-0.41,0.22-0.76,0.5-1.03,0.85c-0.28,0.35-0.49,0.73-0.63,1.15
			c-0.14,0.42-0.24,0.84-0.29,1.26H227.81z M229.34,102.16c-0.24,0.08-0.48,0.17-0.73,0.26c-0.25,0.09-0.53,0.18-0.85,0.26
			c-0.31,0.08-0.67,0.16-1.09,0.21c-0.41,0.06-0.88,0.09-1.4,0.09c-1.14,0-2.13-0.17-2.96-0.51c-0.83-0.34-1.52-0.81-2.07-1.41
			c-0.55-0.6-0.95-1.34-1.22-2.19c-0.27-0.86-0.4-1.81-0.4-2.85c0-0.96,0.14-1.83,0.43-2.62c0.29-0.79,0.69-1.47,1.22-2.05
			c0.53-0.58,1.16-1.03,1.9-1.35c0.74-0.32,1.56-0.48,2.47-0.48c1.07,0,1.97,0.18,2.7,0.56c0.72,0.37,1.3,0.88,1.74,1.53
			c0.44,0.65,0.75,1.42,0.95,2.31c0.19,0.89,0.29,1.85,0.29,2.87h-9.18c0,0.64,0.11,1.22,0.34,1.74c0.23,0.52,0.54,0.97,0.93,1.35
			c0.4,0.38,0.85,0.67,1.36,0.88c0.51,0.21,1.05,0.31,1.6,0.31c0.39,0,0.79-0.05,1.2-0.14c0.41-0.09,0.8-0.2,1.16-0.33
			c0.36-0.13,0.68-0.26,0.96-0.42c0.28-0.15,0.49-0.29,0.64-0.4V102.16z"/>
	</g>
	<path class="st2" d="M232.78,89.82h2.37v12.86h-2.37V89.82z M235.3,86.95h-2.67v-2.67h2.67V86.95z"/>
	<g>
		<path class="st2" d="M238.41,89.82h2.29v2.04h0.05c0.35-0.74,0.92-1.32,1.69-1.73c0.77-0.41,1.61-0.62,2.52-0.62
			c1.66,0,2.88,0.49,3.66,1.46c0.77,0.98,1.16,2.33,1.16,4.06v7.64h-2.37v-6.66c0-1.51-0.19-2.64-0.58-3.38
			c-0.39-0.74-1.1-1.14-2.14-1.21c-0.67,0-1.26,0.13-1.75,0.39c-0.5,0.26-0.9,0.62-1.22,1.08c-0.32,0.46-0.55,1.02-0.71,1.68
			c-0.15,0.65-0.23,1.37-0.23,2.14v5.95h-2.37V89.82z"/>
	</g>
	<polygon class="st2" points="259.77,85.08 262.29,85.08 262.29,100.47 269.65,100.47 269.65,102.68 259.77,102.68 	"/>
	<g>
		<path class="st2" d="M279.7,95.02c0-0.49-0.07-0.95-0.21-1.39c-0.14-0.44-0.35-0.82-0.62-1.15c-0.27-0.33-0.6-0.58-1.01-0.77
			c-0.4-0.18-0.86-0.28-1.36-0.28c-0.59,0-1.09,0.11-1.5,0.33c-0.41,0.22-0.76,0.5-1.03,0.85c-0.28,0.35-0.49,0.73-0.63,1.15
			c-0.14,0.42-0.24,0.84-0.29,1.26H279.7z M281.23,102.16c-0.24,0.08-0.48,0.17-0.73,0.26c-0.25,0.09-0.53,0.18-0.85,0.26
			s-0.67,0.16-1.08,0.21c-0.41,0.06-0.88,0.09-1.4,0.09c-1.14,0-2.13-0.17-2.96-0.51c-0.83-0.34-1.52-0.81-2.07-1.41
			c-0.55-0.6-0.95-1.34-1.22-2.19c-0.27-0.86-0.4-1.81-0.4-2.85c0-0.96,0.14-1.83,0.43-2.62c0.29-0.79,0.69-1.47,1.22-2.05
			c0.53-0.58,1.16-1.03,1.9-1.35c0.74-0.32,1.56-0.48,2.47-0.48c1.07,0,1.97,0.18,2.7,0.56c0.72,0.37,1.3,0.88,1.74,1.53
			c0.44,0.65,0.75,1.42,0.95,2.31c0.19,0.89,0.29,1.85,0.29,2.87h-9.18c0,0.64,0.11,1.22,0.34,1.74c0.23,0.52,0.54,0.97,0.93,1.35
			c0.4,0.38,0.85,0.67,1.36,0.88c0.51,0.21,1.05,0.31,1.6,0.31c0.39,0,0.79-0.05,1.2-0.14c0.41-0.09,0.8-0.2,1.16-0.33
			c0.36-0.13,0.68-0.26,0.96-0.42c0.28-0.15,0.49-0.29,0.64-0.4V102.16z"/>
		<path class="st2" d="M294.25,96.2c0.02-0.57-0.04-1.14-0.16-1.71c-0.13-0.57-0.33-1.08-0.62-1.54c-0.29-0.45-0.66-0.82-1.11-1.1
			s-1-0.42-1.64-0.42s-1.2,0.14-1.68,0.42s-0.88,0.64-1.2,1.1c-0.32,0.45-0.55,0.97-0.71,1.55c-0.15,0.58-0.23,1.17-0.23,1.78
			c0,0.54,0.07,1.09,0.21,1.65c0.14,0.56,0.37,1.08,0.67,1.55s0.69,0.85,1.17,1.15c0.48,0.29,1.05,0.44,1.73,0.44
			c0.64,0,1.18-0.16,1.64-0.48c0.45-0.32,0.82-0.72,1.11-1.2c0.29-0.48,0.5-1,0.63-1.58C294.21,97.25,294.26,96.71,294.25,96.2
			 M284.54,83.77h2.37v7.82h0.05c0.37-0.59,0.89-1.08,1.56-1.47s1.57-0.59,2.7-0.59c0.92,0,1.74,0.18,2.43,0.53
			c0.7,0.35,1.28,0.83,1.74,1.42s0.81,1.29,1.03,2.08c0.23,0.79,0.34,1.61,0.34,2.47c0,0.89-0.1,1.75-0.32,2.59
			c-0.21,0.83-0.54,1.57-0.98,2.22c-0.45,0.65-1.02,1.17-1.71,1.56c-0.7,0.39-1.53,0.59-2.51,0.59c-0.57,0-1.09-0.07-1.56-0.2
			s-0.89-0.3-1.26-0.5c-0.37-0.2-0.68-0.43-0.95-0.68c-0.26-0.25-0.47-0.5-0.62-0.73h-0.05v1.82h-2.27V83.77z"/>
		<path class="st2" d="M307.64,95.02c0-0.49-0.07-0.95-0.21-1.39c-0.14-0.44-0.35-0.82-0.62-1.15c-0.27-0.33-0.61-0.58-1.01-0.77
			c-0.4-0.18-0.86-0.28-1.36-0.28c-0.59,0-1.09,0.11-1.5,0.33c-0.41,0.22-0.76,0.5-1.03,0.85c-0.28,0.35-0.49,0.73-0.63,1.15
			c-0.14,0.42-0.24,0.84-0.29,1.26H307.64z M309.18,102.16c-0.24,0.08-0.48,0.17-0.73,0.26c-0.25,0.09-0.54,0.18-0.85,0.26
			c-0.31,0.08-0.67,0.16-1.08,0.21c-0.41,0.06-0.88,0.09-1.4,0.09c-1.14,0-2.13-0.17-2.96-0.51c-0.83-0.34-1.52-0.81-2.07-1.41
			c-0.55-0.6-0.95-1.34-1.22-2.19c-0.27-0.86-0.4-1.81-0.4-2.85c0-0.96,0.14-1.83,0.43-2.62c0.29-0.79,0.69-1.47,1.22-2.05
			c0.53-0.58,1.16-1.03,1.9-1.35c0.74-0.32,1.56-0.48,2.47-0.48c1.08,0,1.97,0.18,2.7,0.56c0.72,0.37,1.3,0.88,1.74,1.53
			c0.44,0.65,0.75,1.42,0.95,2.31c0.19,0.89,0.29,1.85,0.29,2.87h-9.18c0,0.64,0.11,1.22,0.34,1.74c0.23,0.52,0.54,0.97,0.93,1.35
			c0.4,0.38,0.85,0.67,1.36,0.88c0.51,0.21,1.05,0.31,1.6,0.31c0.39,0,0.79-0.05,1.2-0.14c0.41-0.09,0.8-0.2,1.16-0.33
			s0.68-0.26,0.96-0.42c0.28-0.15,0.49-0.29,0.64-0.4V102.16z"/>
		<path class="st2" d="M312.48,89.82h2.29v2.04h0.05c0.35-0.74,0.92-1.32,1.69-1.73c0.77-0.41,1.61-0.62,2.52-0.62
			c1.66,0,2.88,0.49,3.66,1.46c0.77,0.98,1.16,2.33,1.16,4.06v7.64h-2.37v-6.66c0-1.51-0.19-2.64-0.58-3.38
			c-0.39-0.74-1.1-1.14-2.14-1.21c-0.67,0-1.26,0.13-1.75,0.39c-0.5,0.26-0.9,0.62-1.22,1.08c-0.32,0.46-0.56,1.02-0.71,1.68
			c-0.15,0.65-0.23,1.37-0.23,2.14v5.95h-2.37V89.82z"/>
	</g>
	<rect x="333.94" y="83.77" class="st2" width="2.37" height="18.91"/>
	<g>
		<path class="st2" d="M347.2,96.56c-0.25,0-0.5-0.01-0.76-0.03c-0.25-0.02-0.5-0.03-0.76-0.03c-0.32,0-0.73,0.02-1.24,0.06
			c-0.5,0.04-1,0.15-1.47,0.31c-0.48,0.17-0.89,0.42-1.24,0.74c-0.35,0.33-0.52,0.78-0.52,1.35c0,0.34,0.08,0.64,0.23,0.9
			c0.15,0.26,0.34,0.48,0.57,0.66c0.23,0.18,0.48,0.31,0.77,0.4c0.29,0.09,0.56,0.14,0.83,0.14c1.18,0,2.07-0.32,2.67-0.97
			c0.61-0.65,0.91-1.45,0.91-2.41V96.56z M340.17,90.73c0.59-0.35,1.23-0.64,1.94-0.87c0.71-0.23,1.47-0.34,2.3-0.34
			c1.85,0,3.17,0.44,3.97,1.34c0.8,0.89,1.2,2.22,1.2,3.98v5.32c0,0.74,0.01,1.3,0.03,1.68c0.02,0.38,0.04,0.66,0.08,0.85h-2.22
			v-1.66h-0.05c-0.13,0.2-0.32,0.42-0.55,0.64c-0.24,0.23-0.52,0.44-0.85,0.63c-0.33,0.19-0.71,0.36-1.14,0.49
			c-0.43,0.13-0.91,0.2-1.45,0.2c-0.69,0-1.32-0.08-1.9-0.23c-0.58-0.15-1.08-0.39-1.5-0.72c-0.42-0.33-0.75-0.74-0.97-1.25
			c-0.23-0.5-0.34-1.11-0.34-1.82c0-0.81,0.2-1.48,0.59-2.02c0.39-0.54,0.89-0.97,1.47-1.3c0.59-0.33,1.24-0.56,1.94-0.71
			c0.71-0.14,1.36-0.21,1.97-0.21h1.26c0.37,0,0.79,0.02,1.26,0.05c0-1.11-0.23-1.95-0.69-2.51c-0.46-0.56-1.29-0.85-2.48-0.85
			c-0.67,0-1.34,0.12-2,0.35c-0.66,0.24-1.24,0.55-1.73,0.96L340.17,90.73z"/>
		<path class="st2" d="M352.62,89.82h2.29v2.04h0.05c0.35-0.74,0.92-1.32,1.69-1.73c0.77-0.41,1.61-0.62,2.52-0.62
			c1.66,0,2.88,0.49,3.66,1.46c0.77,0.98,1.16,2.33,1.16,4.06v7.64h-2.37v-6.66c0-1.51-0.19-2.64-0.58-3.38
			c-0.39-0.74-1.1-1.14-2.14-1.21c-0.67,0-1.26,0.13-1.75,0.39c-0.5,0.26-0.9,0.62-1.22,1.08c-0.32,0.46-0.56,1.02-0.71,1.68
			c-0.15,0.65-0.23,1.37-0.23,2.14v5.95h-2.37V89.82z"/>
		<path class="st2" d="M372.4,100.77c0.55,0,1.06-0.11,1.52-0.34c0.46-0.23,0.86-0.54,1.19-0.93c0.33-0.39,0.58-0.86,0.77-1.39
			c0.18-0.53,0.28-1.1,0.28-1.7c0-0.67-0.08-1.31-0.23-1.9c-0.15-0.6-0.39-1.12-0.71-1.58c-0.32-0.45-0.71-0.82-1.18-1.09
			c-0.47-0.27-1.02-0.4-1.64-0.4c-0.6,0-1.13,0.15-1.58,0.44c-0.45,0.29-0.82,0.67-1.11,1.13c-0.29,0.46-0.52,0.98-0.67,1.54
			c-0.15,0.56-0.23,1.12-0.23,1.68c0,0.61,0.08,1.18,0.25,1.73c0.17,0.55,0.4,1.03,0.71,1.45c0.3,0.42,0.68,0.75,1.12,1
			C371.35,100.65,371.85,100.77,372.4,100.77 M378.53,102.13c0,1.95-0.53,3.46-1.59,4.54c-1.06,1.07-2.74,1.61-5.04,1.61
			c-0.34,0-0.67-0.01-1-0.04c-0.33-0.03-0.68-0.07-1.05-0.14c-0.37-0.07-0.76-0.16-1.17-0.26c-0.41-0.11-0.88-0.26-1.4-0.44
			l0.25-2.19c0.45,0.2,0.87,0.38,1.25,0.53c0.38,0.15,0.74,0.27,1.1,0.37c0.35,0.09,0.71,0.16,1.08,0.2
			c0.37,0.04,0.77,0.06,1.21,0.06c1.26,0,2.24-0.39,2.94-1.18c0.7-0.79,1.05-1.86,1.05-3.23v-1.26h-0.05
			c-0.51,0.67-1.14,1.17-1.92,1.5c-0.77,0.33-1.57,0.49-2.39,0.49c-0.93,0-1.73-0.17-2.42-0.52c-0.69-0.35-1.26-0.81-1.71-1.4
			c-0.45-0.59-0.79-1.26-1.02-2.02c-0.23-0.76-0.34-1.56-0.34-2.4c0-0.82,0.12-1.64,0.35-2.46c0.24-0.82,0.59-1.55,1.07-2.19
			c0.48-0.65,1.08-1.17,1.79-1.58c0.71-0.4,1.56-0.6,2.54-0.6c1.14,0,2.05,0.19,2.71,0.58c0.67,0.39,1.17,0.93,1.53,1.64h0.05v-1.92
			h2.19V102.13z"/>
	</g>
	<rect x="381.74" y="99.86" class="st2" width="2.82" height="2.82"/>
</g>
</svg>
