<svg xmlns="http://www.w3.org/2000/svg" viewBox="0 0 428.12 85.04"><defs><style>.cls-1{fill:none;}.cls-2{fill:#fff;}.cls-3{fill:#f60;}.cls-4{fill:#0066b3;}</style></defs><g id="Schutzraum"><rect class="cls-1" width="428.12" height="85.04"/><rect class="cls-1" width="428.12" height="85.04"/></g><g id="Logo"><rect class="cls-2" x="21.26" y="21.26" width="62.99" height="42.52"/><path class="cls-3" d="M84.25,63.78V56.3h-24c-.66,3.43-1.21,6.35-1.43,7.48Z" transform="translate(0 0)"/><polygon class="cls-3" points="21.26 56.3 21.26 63.78 46.51 63.78 44.83 56.3 21.26 56.3"/><path class="cls-4" d="M33.67,38.68l-1.84-7.74H47.51L52.7,53.62,56,38.92c1.61-6.46,2.22-8,11.3-8h6.54s-1.32,5.95-3,12.42c-.63,2.46-6.09,2.17-5.81-.13,0-.24.28-2,.49-3.21.3-1.77-1.77-2-2.15-.24C63.16,41,62,47.28,60.84,53.15H84.25V21.26h-63V53.15H44.12L40.86,38.69Z" transform="translate(0 0)"/><path class="cls-4" d="M109,41.73h8.51l-2.32-6.64c-.75-2.29-1.25-3.91-1.91-6.23a46.23,46.23,0,0,1-2,6.27Zm7.68-17.9,11.67,29.33h-6.48l-2.53-6.69H107.17l-2.49,6.69H98.45L110,23.83Z" transform="translate(0 0)"/><path class="cls-4" d="M141.64,43.23c-3,0-5.23.46-6.19,2.12a2.89,2.89,0,0,0-.33,1.41c0,1.2.79,3,3.41,3A5.27,5.27,0,0,0,143.68,45c.08-.62.12-1.62.12-1.66-.71,0-1.41-.08-2.16-.08m2.29,9.93V50a6.09,6.09,0,0,1-2.37,2.41,9.26,9.26,0,0,1-4.86,1.16c-6,0-7.39-4-7.35-6.69a6.12,6.12,0,0,1,2.07-4.73c1.79-1.62,4.74-2.37,9.06-2.41h.25c1.08,0,1.87,0,3,.12a6.18,6.18,0,0,0-.79-3.19A4.24,4.24,0,0,0,139.32,35h-.54a11.57,11.57,0,0,0-4.45,1,10.13,10.13,0,0,0-2.2,1.33l-.17-4.9A19.09,19.09,0,0,1,139.4,31a10,10,0,0,1,7,2,6.55,6.55,0,0,1,1.87,2.74,17.08,17.08,0,0,1,.53,5.15v5.15c0,2.62.09,4.49.17,7.11Z" transform="translate(0 0)"/><path class="cls-4" d="M167.68,36.29a7.42,7.42,0,0,0-3.32-.74,5.77,5.77,0,0,0-5.82,3.94,8.41,8.41,0,0,0-.37,2.78,7.12,7.12,0,0,0,1.66,4.91A6.37,6.37,0,0,0,164.48,49a7.79,7.79,0,0,0,3.82-1l.38,4.73a18.34,18.34,0,0,1-5.32.83,10.66,10.66,0,0,1-8.14-3.2c-.17-.2-.25-.33-.41-.5a10.92,10.92,0,0,1-1.67-2.82,13.49,13.49,0,0,1-.83-4.9,10.85,10.85,0,0,1,2.29-7.27,10.53,10.53,0,0,1,3.15-2.57,11.81,11.81,0,0,1,3.41-1,18.42,18.42,0,0,1,2.45-.21,14.8,14.8,0,0,1,4.45.71Z" transform="translate(0 0)"/><path class="cls-4" d="M177.19,21.42V34.67a6.56,6.56,0,0,1,1.58-1.78,8.48,8.48,0,0,1,5.48-1.83,8.37,8.37,0,0,1,4.49,1.16c2.95,1.91,3.15,5.19,3.15,10.26V53.16h-5.6v-11c0-1.41,0-3.49-.87-4.86A2.77,2.77,0,0,0,184.21,36a3.87,3.87,0,0,0-1.87-.45,4.56,4.56,0,0,0-4,2c-1.16,1.75-1.12,4.36-1.12,6.11v9.43h-5.65V21.42Z" transform="translate(0 0)"/><path class="cls-4" d="M210.62,40.28a6.16,6.16,0,0,0-1.07-3.57A4.27,4.27,0,0,0,206,34.92,4.9,4.9,0,0,0,201.94,37a7.17,7.17,0,0,0-1,3.24ZM201,44.23a7.37,7.37,0,0,0,.79,2.16,6.46,6.46,0,0,0,5.81,2.9,11.51,11.51,0,0,0,5.11-1.2,15.21,15.21,0,0,0,1.66-1L214.4,52a17.35,17.35,0,0,1-7.51,1.62,14.22,14.22,0,0,1-4.91-.74c-3.44-1.33-6.51-4.45-6.51-10.35a13.75,13.75,0,0,1,1.12-5.69c.25-.5.62-1.16.66-1.29a7.58,7.58,0,0,1,.83-1.08A9.85,9.85,0,0,1,206,30.93c7.06,0,9.81,5.24,9.81,11.09,0,.75,0,1.46,0,2.21Z" transform="translate(0 0)"/><path class="cls-4" d="M234,53.16V42.65c0-2.58-.13-3.95-.75-5.15A3.21,3.21,0,0,0,231.64,36a4.29,4.29,0,0,0-1.66-.33,4.21,4.21,0,0,0-2.83.95c-2,1.54-2.16,3.87-2.2,6.4V53.16h-5.69V36.63c0-1.92-.08-3.29-.16-5.24h5.44v3.37a12.56,12.56,0,0,1,.83-1,7.93,7.93,0,0,1,2.07-1.58,8.76,8.76,0,0,1,4.62-1.12,7.83,7.83,0,0,1,4.27,1.08A5.91,5.91,0,0,1,238.2,34c1.29,1.78,1.33,4.07,1.41,8.05V53.16Z" transform="translate(0 0)"/><path class="cls-4" d="M258.22,40.28a6.18,6.18,0,0,0-1.08-3.57,4.25,4.25,0,0,0-3.53-1.79A4.89,4.89,0,0,0,249.54,37a7.23,7.23,0,0,0-1,3.24Zm-9.68,3.95a7.37,7.37,0,0,0,.79,2.16,6.49,6.49,0,0,0,5.82,2.9,11.54,11.54,0,0,0,5.11-1.2,16.28,16.28,0,0,0,1.66-1L262,52a17.36,17.36,0,0,1-7.52,1.62,14.2,14.2,0,0,1-4.9-.74c-3.45-1.33-6.52-4.45-6.52-10.35a13.75,13.75,0,0,1,1.12-5.69c.25-.5.63-1.16.67-1.29a7.58,7.58,0,0,1,.83-1.08,9.85,9.85,0,0,1,7.93-3.53c7.06,0,9.8,5.24,9.8,11.09,0,.75,0,1.46,0,2.21Z" transform="translate(0 0)"/><path class="cls-4" d="M279.69,36.54a5.85,5.85,0,0,0-1.7-.29,5,5,0,0,0-5,3.57,7.94,7.94,0,0,0-.45,2.58c-.05.83-.05,1.41-.05,2.24v8.52h-5.64V37c0-2.08-.05-3.57-.13-5.65H272v5.24a7.94,7.94,0,0,1,.75-2.12,6.11,6.11,0,0,1,5.39-3.41,9,9,0,0,1,1.54.17Z" transform="translate(0 0)"/><path class="cls-4" d="M299.71,48.63c.58,0,1.12,0,1.7,0h.33a9.57,9.57,0,0,0,4.53-.79,3.39,3.39,0,0,0,1.62-1.58,4,4,0,0,0,.46-1.95,4,4,0,0,0-2.41-3.78,8.32,8.32,0,0,0-3.45-.54h-2.78Zm0-13c.58,0,1.12,0,1.7,0,2.54,0,4.11-.21,5.19-1.45a3.66,3.66,0,0,0,.79-2.29,3.71,3.71,0,0,0-.41-1.74c-.83-1.46-2.41-1.95-4.86-1.95-.87,0-1.5,0-2.41,0Zm3.11-11.84a16.09,16.09,0,0,1,5.94.75,6.83,6.83,0,0,1,4.53,6.65,6.17,6.17,0,0,1-2,4.81,6.79,6.79,0,0,1-1.16.83,8.34,8.34,0,0,1-1.62.67,6,6,0,0,1-1.42.29,7.65,7.65,0,0,1,4.07,1.2,7.78,7.78,0,0,1,1.38,1.13,7.14,7.14,0,0,1,1.78,4.77,7.79,7.79,0,0,1-1.62,4.9c-2.62,3.28-6.64,3.28-9.47,3.33h-9.34V23.83Z" transform="translate(0 0)"/><path class="cls-4" d="M328.53,43.23c-3,0-5.23.46-6.19,2.12a2.89,2.89,0,0,0-.33,1.41c0,1.2.79,3,3.41,3A5.27,5.27,0,0,0,330.57,45c.08-.62.12-1.62.12-1.66-.7,0-1.41-.08-2.16-.08m2.29,9.93V50a6.09,6.09,0,0,1-2.37,2.41,9.26,9.26,0,0,1-4.86,1.16c-6,0-7.39-4-7.35-6.69a6.12,6.12,0,0,1,2.07-4.73c1.79-1.62,4.74-2.37,9.06-2.41h.25c1.08,0,1.87,0,2.95.12a6.18,6.18,0,0,0-.79-3.19A4.23,4.23,0,0,0,326.21,35h-.54a11.57,11.57,0,0,0-4.45,1,10.13,10.13,0,0,0-2.2,1.33l-.17-4.9A19.09,19.09,0,0,1,326.29,31a10,10,0,0,1,7,2,6.55,6.55,0,0,1,1.87,2.74,16.77,16.77,0,0,1,.54,5.15v5.15c0,2.62.08,4.49.16,7.11Z" transform="translate(0 0)"/><path class="cls-4" d="M355.15,53.16V42.65c0-2.58-.12-3.95-.74-5.15A3.25,3.25,0,0,0,352.79,36a4.34,4.34,0,0,0-1.66-.33,4.21,4.21,0,0,0-2.83.95c-2,1.54-2.16,3.87-2.2,6.4V53.16h-5.69V36.63c0-1.92-.08-3.29-.17-5.24h5.44v3.37c.29-.38.5-.63.83-1a8.09,8.09,0,0,1,2.08-1.58,8.73,8.73,0,0,1,4.61-1.12,7.84,7.84,0,0,1,4.28,1.08A6,6,0,0,1,359.35,34c1.29,1.78,1.33,4.07,1.41,8.05V53.16Z" transform="translate(0 0)"/><path class="cls-4" d="M371.14,40.2c.71-1,1.25-1.75,2-2.7l4.9-6.11h6.52l-8.1,9.6,9.14,12.17h-7l-4.78-6.61c-1.08-1.49-1.74-2.62-2.7-4.19v10.8h-5.6V21.42h5.6Z" transform="translate(0 0)"/></g></svg>